<?xml version="1.0" encoding="UTF-8" standalone="no" ?>
<!DOCTYPE svg PUBLIC "-//W3C//DTD SVG 1.1//EN" "http://www.w3.org/Graphics/SVG/1.1/DTD/svg11.dtd">
<svg xmlns="http://www.w3.org/2000/svg" xmlns:xlink="http://www.w3.org/1999/xlink" version="1.1" width="1080" height="1080" viewBox="0 0 1080 1080" xml:space="preserve">
<desc>Created with Fabric.js 5.2.4</desc>
<defs>
</defs>
<g transform="matrix(1 0 0 1 540 540)" id="b1e762b0-e9f9-4157-ba9c-02d6e14ff7c9"  >
<rect style="stroke: none; stroke-width: 1; stroke-dasharray: none; stroke-linecap: butt; stroke-dashoffset: 0; stroke-linejoin: miter; stroke-miterlimit: 4; fill: rgb(255,255,255); fill-rule: nonzero; opacity: 1; visibility: hidden;" vector-effect="non-scaling-stroke"  x="-540" y="-540" rx="0" ry="0" width="1080" height="1080" />
</g>
<g transform="matrix(1 0 0 1 540 540)" id="7e3d935a-65cc-4100-a8f3-d35f783a1b21"  >
</g>
<g transform="matrix(43.35 0 0 43.35 540 540)"  >
<path style="stroke: rgb(255,255,255); stroke-width: 1; stroke-dasharray: none; stroke-linecap: butt; stroke-dashoffset: 0; stroke-linejoin: miter; stroke-miterlimit: 4; fill: rgb(255,255,255); fill-rule: evenodd; opacity: 1;" vector-effect="non-scaling-stroke"  transform=" translate(-10.95, -11.83)" d="M 16.4 12.3 C 16.099999999999998 12.700000000000001 15.799999999999999 13 15.499999999999998 13.3 C 14.999999999999998 13.9 14.299999999999999 14.200000000000001 13.599999999999998 14.5 C 12.899999999999999 14.8 12.099999999999998 14.7 11.499999999999998 14.2 C 10.599999999999998 13.6 9.799999999999999 12.899999999999999 8.899999999999999 12.399999999999999 C 7.599999999999999 11.599999999999998 6.699999999999998 11.599999999999998 5.499999999999998 12.499999999999998 C 4.899999999999999 12.999999999999998 4.299999999999998 13.499999999999998 4.099999999999998 14.299999999999999 C 3.999999999999998 14.499999999999998 3.8999999999999977 14.7 3.599999999999998 14.6 C 3.299999999999998 14.5 3.199999999999998 14.4 3.199999999999998 14.1 C 3.199999999999998 13.9 3.299999999999998 13.799999999999999 3.399999999999998 13.6 C 4.099999999999998 12.1 5.299999999999998 11.2 6.899999999999999 10.899999999999999 C 7.499999999999998 10.799999999999999 8.099999999999998 10.999999999999998 8.599999999999998 11.299999999999999 C 9.499999999999998 11.799999999999999 10.399999999999999 12.399999999999999 11.199999999999998 12.999999999999998 C 12.299999999999997 13.899999999999999 13.199999999999998 13.699999999999998 14.199999999999998 13.099999999999998 C 14.399999999999997 12.899999999999999 14.599999999999998 12.799999999999997 14.799999999999997 12.599999999999998 C 15.099999999999998 12.299999999999997 15.299999999999997 12.099999999999998 15.499999999999996 11.699999999999998 C 15.199999999999996 11.699999999999998 14.999999999999996 11.799999999999997 14.799999999999997 11.799999999999997 C 14.599999999999998 11.799999999999997 14.399999999999997 11.799999999999997 14.299999999999997 11.699999999999998 C 14.099999999999998 11.599999999999998 13.899999999999997 11.399999999999997 13.999999999999996 11.199999999999998 C 13.999999999999996 10.999999999999998 14.299999999999997 10.999999999999998 14.499999999999996 10.899999999999997 C 15.699999999999996 10.699999999999998 16.599999999999998 10.099999999999996 17.499999999999996 9.299999999999997 C 17.899999999999995 8.899999999999997 18.099999999999998 8.899999999999997 18.499999999999996 9.299999999999997 C 18.699999999999996 9.499999999999996 18.799999999999997 9.699999999999998 18.599999999999998 9.899999999999997 C 17.7 10.699999999999998 17.599999999999998 11.899999999999997 17.4 12.999999999999996 C 17.4 13.199999999999996 17.5 13.599999999999996 17.099999999999998 13.599999999999996 C 16.799999999999997 13.599999999999996 16.599999999999998 13.399999999999997 16.499999999999996 13.099999999999996 C 16.4 12.8 16.5 12.6 16.4 12.3 z" stroke-linecap="round" />
</g>
</svg>