<svg transform="scale(1)" version="1.1" id="Layer_1" xmlns="http://www.w3.org/2000/svg" xmlns:xlink="http://www.w3.org/1999/xlink" x="0px" y="0px" viewBox="0 0 500 500" xml:space="preserve" class="show_show__wrapper__graphic__5Waiy "><title>React</title><style type="text/css">
	.st0{fill:#2b7321;}
	.st1{fill:#ffffff;}
	.st2{opacity:0.49;}
	.st3{fill:#59BE4C;}
</style><g id="character"><path class="st0" d="M145.4,437.5c0,0,54.2-153.8,109.5-146.4c93.6,12.5,89,146.5,89,146.5L145.4,437.5z"></path><path class="st0" d="M344.3,438.1h-0.5L144.6,438l0.2-0.7c0.1-0.4,13.8-38.9,34.1-76c27.3-50,52.8-73.8,76-70.7
		c21.5,2.9,39.5,12.4,53.7,28.3c11.3,12.7,20.2,29.5,26.3,50c10.5,34.8,9.5,68.4,9.4,68.8L344.3,438.1z M146.1,437l197.3,0.1
		c0.1-4.2,0.3-35.6-9.4-68c-6.1-20.3-14.9-37-26.1-49.6c-14-15.7-31.9-25.2-53.1-28c-28.3-3.8-56.4,36.1-75,70.2
		C161.1,396.1,148,431.7,146.1,437z"></path><path class="st0" d="M298.9,268.8c0,0,23.4,9.9,29.5,0.8s-10.1-10-10.1-10s22.4-16.5-1.7-25.4c0,0,23.9-11,10.6-28.8
		s-47.7-15.2-47.7-15.2s5.5-21.9-20.5-24.4s-22.6,12.1-22.6,12.1s-16.6-1.8-18.6,5.8s9.5,13,9.5,13s0,22.7,22.8,24.1l15.6,31.7
		c0,0-9.6,8.4-3.6,20.3S297.1,283.1,298.9,268.8z"></path><path class="st0" d="M297.5,269c2.6,1.1,5.2,2,7.9,2.8c4.8,1.6,9.8,2.4,14.9,2.6c4.3,0,8.8-1,11-5c0.9-1.5,1-3.4,0.2-5
		c-1.1-1.5-2.6-2.6-4.4-3.2c-3.3-1.4-6.9-2.2-10.5-2.4l3.9,1.7c5.5-4.1,13-12.5,7.9-19.5c-2.6-3.6-7.1-5.6-11.1-7.1l1.5,1.2
		c3.5-1.7,6.6-3.9,9.3-6.7c2.2-2.1,3.9-4.8,4.8-7.7c1-3.4,0.7-7-0.8-10.2c-3.3-7.7-10.8-12.8-18.3-15.8c-7.4-2.9-15.2-4.6-23.1-5.2
		c-4.4-0.4-8.9-0.5-13.4-0.2l4.4,1.5c1.8-7.2-0.7-15.4-6.5-19.9c-6.9-5.3-16.8-6.6-25.2-6.3c-5.2,0.2-11.7,1.2-14.8,6
		c-1.3,2-1.7,4.4-1.2,6.8l1.3-0.4c-4.8-0.5-10-0.4-14.6,1.1c-2.7,0.9-5.2,2.7-5.6,5.8c-0.4,3.5,1.9,6.5,4.3,8.7
		c1.9,1.7,4.1,3.1,6.4,4.2l-1.1-0.9c0,8.6,4.6,17.3,12.1,21.6c4.4,2.4,9.2,3.7,14.2,4l-3.4-1.3l13.6,27.7l2,4l0.1-0.3
		c-6.9,6-7.9,18.1-0.8,24.3c3.9,3.4,9.5,4.9,14.5,5.5c5,0.6,10.2,0,14.9-1.8c4.5-1.8,8.5-5.2,9.2-10.2c0.1-1.1-4.7-2.1-4.8-1.3
		c-1.2,8.8-11.7,11.9-19.3,11.7c-1.9,0-3.7-0.3-5.5-0.8c-0.3-0.1,0,0,0.1,0l-0.5-0.1c-0.2-0.1-0.5-0.1-0.7-0.2
		c0.3,0.1-0.2-0.1-0.3-0.1s-0.6-0.3-0.6-0.2c-0.8-0.4-1.6-0.9-2.4-1.5c-4-3.2-5.5-9.1-4.6-14c0.7-3.6,2.5-6.9,5.2-9.4
		c0.1,0,0.2-0.2,0.1-0.3c0,0,0,0,0-0.1L255,226.4c-0.8-1.6-1.5-3.2-2.3-4.7c-0.6-0.9-1.6-1.5-2.7-1.6c-2-0.5-4.1-0.4-6-1
		c-2.9-1-5.5-2.6-7.6-4.8c-1.9-2-3.3-4.3-4.4-6.9c-1.4-3.2-2.2-6.6-2.2-10.1c0-0.5-0.7-0.7-1-0.9c-0.1,0-0.2-0.1,0.1,0.1
		s0,0-0.1-0.1c-0.4-0.2-0.7-0.4-1.1-0.6c-1-0.6-2.1-1.3-3-2.1c-2.3-1.9-4.6-4.5-4.7-7.6c-0.1-6.3,7.8-7.4,12.5-7.5
		c1.3,0,2.5,0,3.8,0h0.5h0.3h0.4c0.4,0,1.4,0.2,1.3-0.4c0.1,0.4,0-0.1,0-0.3c0-0.4-0.1-0.8-0.1-1.1c0-1.2,0.2-2.4,0.7-3.5
		c1.7-4.2,6.3-6,10.5-6.6c4.1-0.6,8.4-0.5,12.5,0.2c2.9,0.4,5.7,1.4,8.2,3.1c3.8,2.8,6.3,7,6.8,11.7c0.4,2.6,0.3,5.2-0.3,7.8
		c-0.1,0.5,1.4,1,1.6,1.1c0.9,0.3,1.8,0.5,2.8,0.4h0.4l2-0.1c2.3,0,4.7,0,7,0.1c6.5,0.3,12.9,1.4,19,3.5c6.9,2.4,13.4,6.9,17,13.5
		c1.7,3.1,2.3,6.6,1.6,10.1c-0.7,2.9-2.1,5.5-4.1,7.7c-2.8,3.2-6.3,5.7-10.1,7.5c-0.7,0.3,1.5,1.2,1.5,1.2
		c5.1,1.9,10.6,5.6,9.4,11.8c-0.8,4.1-3.8,7.6-6.8,10.3c-0.8,0.7-1.6,1.4-2.4,2c-0.5,0.4,0.7,0.9,0.9,1c0.9,0.4,1.9,0.6,3,0.7
		c-0.8,0-0.2,0,0.1,0c0.5,0,1,0.1,1.5,0.2c-0.7-0.1,0.2,0,0.3,0.1l1,0.2c0.6,0.1-0.5-0.1,0.1,0l0.5,0.1c0.1,0,0.7,0.2,0.1,0l0.7,0.2
		c0.6,0.2-0.4-0.2,0.1,0.1l0.4,0.2c0.3,0.1-0.4-0.2,0.1,0.1l0.5,0.3c0.5,0.4,1,0.8,1.3,1.3c0.7,1.3,0.7,2.9,0,4.2
		c-1.6,3.5-5.1,4.8-8.8,5c-1.9,0-3.8-0.1-5.6-0.4c-1.9-0.3-3.8-0.7-5.6-1.3l-0.7-0.2l-0.5-0.1l-1.4-0.5c-0.7-0.2-1.5-0.5-2.2-0.8
		l-0.9-0.3l-0.3-0.1c-0.4-0.1,0.6,0.2,0.1,0l-0.6-0.2c-0.8-0.4-2.4-1-3.4-0.7S297,268.7,297.5,269z"></path><path class="st1" d="M207.2,268c-9.3-22.1,21.1-67.2,21.1-67.2c16.5,7.7,48.6-2.9,48.6-2.9c-12.4,14.2-4.4,47.8-4.4,47.8
		c10.7-12.9,25.3-7.6,20.2,6.5c-5.1,14.1-18.3,11-18.3,11s-4.9,47.6-7.9,52.9s-37.7,3.5-39.2-26.9
		C227.3,289.2,215.4,287.3,207.2,268z"></path><path class="st0" d="M208.6,268.7c-1.8-4.4-1.9-9.5-1.2-14.4c0.9-5.9,2.4-11.6,4.6-17.1c3.8-10,8.6-19.6,14.2-28.7
		c1.1-1.9,2.3-3.8,3.6-5.7l-0.8,0.2c7.4,3.4,16,3.3,23.9,2.5c7.2-0.8,14.2-2.2,21.2-4.1c1.4-0.4,2.8-0.8,4.2-1.2l-2.6-4.2
		c-5.3,6.2-6.8,14.7-7.1,22.6c-0.2,7.3,0.3,14.6,1.6,21.7c0.3,1.5,0.5,3,0.9,4.4c0.2,0.9,0.7,1.7,1.3,2.4c0.2,0.2,1.2,1.3,1.6,0.8
		c3-3.6,7.1-6.9,12-7.2c1.7-0.2,3.4,0.2,4.9,1c0.2,0.2,0.5,0.3,0.7,0.5c0.1,0.1,0.2,0.2,0.3,0.4c0.2,0.3-0.2-0.5,0,0.1
		c-0.2-0.5,0.1,0.2,0.1,0.2c-0.1-0.2,0.2,0.6,0.2,0.8c0.9,4.3-1.4,9.6-4.3,12.8c-2.3,2.6-5.4,4.3-8.9,4.8c-1.8,0.3-3.7,0.2-5.5-0.1
		c-0.4-0.1-0.5,0.4-0.5,0.6c-0.5,5.1-1.1,10.3-1.7,15.4c-1.1,9-2.2,18-3.7,27c-0.4,3-1,5.9-1.9,8.8c-0.1,0.4-0.3,0.8-0.4,1.1
		c-0.2,0.4-0.1,0.3-0.4,0.6c-0.7,0.5-1.5,0.9-2.4,1.1c-2.7,0.6-5.4,0.7-8.2,0.3c-3.6-0.4-7.2-1.4-10.5-2.9c-1.8-0.8-3.4-1.8-5-2.9
		c-0.7-0.5-1.6-1.2-2.1-1.7s-0.7-0.7-1.1-1.1l-0.6-0.6c-0.2-0.2-0.3-0.3-0.3-0.4c-1.3-1.5-2.4-3.2-3.2-5c-1-2.1-1.6-4.4-2-6.7
		c-0.2-1.4-0.4-2.7-0.5-4.1c-0.1-1.3-1.2-3.5-2.6-3.8l-0.3-0.1l-0.3-0.1c-0.2-0.1,0.3,0.1,0,0l-0.3-0.1c-1.1-0.4-2.1-0.8-3.1-1.3
		c-3.4-2-6.4-4.6-8.7-7.9c-2.1-2.9-3.9-6.1-5.2-9.5c-0.3-0.7-1.3-2.3-2.2-2.2s-0.3,1.7-0.1,2.1c2.5,6.4,6.4,12.2,11.2,17
		c2.6,2.6,5.7,4.6,9.1,5.9c0.6,0.2,1.3,0.4,1.9,0.5l-2.6-3.8c0.6,10.7,5.5,20.9,14.5,26.9c6.3,4.3,13.8,6.4,21.5,6
		c1.9-0.2,4.5-0.5,5.9-2c0.5-0.7,0.9-1.5,1.1-2.4c0.4-1.4,0.7-2.8,1-4.2c1.8-9,2.9-18.1,4-27.2c0.5-4.3,1-8.6,1.5-12.9
		c0.2-1.5,0.3-2.9,0.5-4.4c0.1-0.8,0.2-1.6,0.3-2.4c0-0.1,0-0.2,0-0.3l-0.5,0.6c5.8,1.2,11.7-0.8,15.5-5.3c3.1-3.9,5.2-9.6,4-14.6
		c-1.1-4.4-4.4-8.4-9-9.1c-5.8-0.9-11.2,3.1-14.7,7.3l2.8,3.3c-0.9-4-1.5-8-1.9-12c-0.8-7.6-1-15.7,0.8-23.2
		c0.8-4.2,2.7-8.2,5.4-11.6c0.9-1.1-1.2-4.7-2.6-4.2c-3.8,1.2-7.7,2.3-11.7,3.1c-7.8,1.9-15.8,2.7-23.9,2.5c-4.3-0.1-8.6-1-12.5-2.7
		c-0.2-0.2-0.6-0.1-0.7,0.1c0,0,0,0,0,0c-3.6,5.4-6.9,11.1-9.9,16.9c-5.5,10.6-10.6,21.9-12.4,33.8c-0.9,5.9-1,12.2,1.4,17.8
		c0.4,0.9,1,2.4,2.1,2.7S208.9,269.3,208.6,268.7z"></path><path class="st1" d="M228,256.2c0,0-35.6,3.8-41.3-14.9s20.1-26.4,39.5-10.3"></path><path class="st0" d="M226.6,254.3c-3.2,0.3-6.5,0.4-9.7,0.3c-6.3-0.2-12.8-0.9-18.7-3.1c-1.6-0.6-3-1.3-4.5-2.1
		c-0.6-0.4-1.1-0.7-1.7-1.1l-0.6-0.4l-0.5-0.4c-0.1-0.1-0.5-0.5-0.2-0.2c-0.1-0.1-0.3-0.3-0.4-0.4c-0.3-0.3,0.4,0.5-0.1-0.1
		l-0.3-0.3c0.4,0.4-0.1-0.1-0.1-0.2c-0.3-0.5-0.6-0.9-0.8-1.4c-0.8-1.6-1.2-3.4-1.4-5.2c-0.6-7.1,4.3-12.4,10.9-14.3
		c9.6-2.7,20.5,1,28,7.2c0.5,0.4,1.2,1.1,1.2,0.1s-1.4-2.3-2-2.8c-7.5-6.2-17.4-10.6-27.3-9.1c-7.1,1-13.8,5.5-14.2,13.2
		c-0.4,8,5.1,15.2,11.7,19.1c6,3.6,13.4,4.8,20.3,5.3c4.4,0.3,8.8,0.3,13.2-0.1c0.8-0.1-0.4-1.6-0.5-1.8
		C228.6,255.9,227.4,254.2,226.6,254.3L226.6,254.3z"></path><path class="st1" d="M256.6,258.3c0,0-3.2,6.3-9.8,4.4"></path><path class="st0" d="M255.5,257.8c-0.1,0.2-0.2,0.4-0.4,0.6c-0.1,0.2-0.3,0.4-0.4,0.6s0.1-0.1,0,0l-0.1,0.2l-0.4,0.4
		c-0.2,0.3-0.5,0.5-0.8,0.8l-0.4,0.4c0.2-0.1,0,0-0.1,0l-0.3,0.2c-0.2,0.1-0.3,0.2-0.5,0.3l-0.3,0.2c-0.1,0-0.3,0.2-0.1,0.1
		c-0.4,0.2-0.9,0.3-1.3,0.4c0,0-0.2,0-0.1,0s-0.2,0-0.2,0h-0.4c-0.3,0-0.6,0-0.9,0h-0.2l-0.5-0.1c-0.4-0.1-0.7-0.1-1.1-0.2
		c-0.6-0.1-1.3,0.2-1.5,0.9c-0.2,0.7,0.4,1.1,1,1.3c2.3,0.7,4.9,0.4,7-0.7c1.5-0.8,2.7-2,3.6-3.4c0.2-0.3,0.4-0.5,0.5-0.8
		c0.7-1.4-1.6-2.2-2.2-1L255.5,257.8z"></path><path class="st0" d="M242.6,222.3c0,0-0.1,2.9-2.9,2.6s-2.4-3.8,0.1-4.2c1.1-0.4,2.3,0.2,2.7,1.3
		C242.6,222.1,242.6,222.2,242.6,222.3z"></path><path class="st0" d="M229.4,220.4c0,0-0.1,2.9-2.9,2.6s-2.4-3.8,0.1-4.2c1.1-0.4,2.3,0.2,2.7,1.3
		C229.4,220.1,229.4,220.2,229.4,220.4z"></path><path class="st1" d="M343,242.4c0,0-15.7-15.4-17.3-41.5s-3.7-38.3,7.2-38.8s12.5,27.7,12.5,27.7s7.7-31.7,19.4-42.7
		s25.6-15.7,26.1-5.9s-14.7,20.6-14.7,20.6s23.2-13.2,30.6-4.7s-13,17-13,17l-6.7,11.7c0,0,5.6-8.5,12-6.9s16.8,8.8,15.2,14.9
		s-14.4,0.3-14.4,0.3l-4.8,9.1c0,0,14.1,31.8-11.5,38.6c0,0,25.4,151.2-13.8,183.5s-61.4-24.9-51.4-68.8S343,242.4,343,242.4z"></path><path class="st0" d="M345.2,242.1c-3.8-4-7-8.5-9.4-13.5c-2.6-5.1-4.7-10.4-6-16c-1.7-6.9-1.9-14.1-2.3-21.2
		c-0.4-5.4-0.8-10.9-0.6-16.3c0.1-3.1,0.2-6.9,2.1-9.6c0.6-0.9,1.5-1.6,2.4-2c0.5-0.2,1.1-0.4,1.7-0.4h0.4c0.7-0.1-0.4,0,0.2,0
		s-0.5-0.1,0.1,0s-0.4-0.2,0.1,0s-0.4-0.2,0.1,0.1c0,0,0.5,0.3,0.3,0.1c0,0,0.6,0.4,0.8,0.5c0.5,0.5,1,1,1.5,1.6
		c1,1.4,1.9,3,2.5,4.7c2.3,6.1,3.6,12.6,3.9,19.1c0.1,1.6,4.5,2.4,5,0.7c0.9-3.8,2.1-7.6,3.3-11.4c2.3-7.5,5.3-14.8,9.1-21.6
		c1.7-3.2,3.8-6.1,6.3-8.7c3.7-3.7,7.9-6.8,12.6-9.1c1.7-0.9,3.6-1.6,5.6-2c0.4-0.1,0.8-0.1,1.2-0.1h0.2c0.8,0-0.2,0,0.2,0
		c0.1,0,0.6,0.1,0.3,0s0.3,0.1,0,0c0.1,0.1,0.3,0.1,0.4,0.2c2.4,2,1.4,6.4,0.3,8.9c-1.7,4-4.8,7.4-7.9,10.3c-1.6,1.6-3.4,3-5.2,4.4
		c-0.9,0.6,0,1.4,0.7,1.7c1.1,0.5,2.3,0.5,3.4,0.1c3.2-1.8,6.6-3.4,10.1-4.7c2.9-1.1,5.8-1.9,8.9-2.4c0.5-0.1,1.3-0.1,1.7-0.2
		s0.7,0,1.1,0c0.2,0,1,0,0.7,0c1,0,1.9,0.3,2.7,0.8c2,1.2,3,3.5,2.4,5.8c-0.6,2.3-2.7,4.2-4.5,5.7c-2.1,1.6-4.3,3-6.6,4.1
		c-0.9,0.5-2.5,0.8-3.2,1.6c-0.4,0.6-0.8,1.3-1.1,2l-2.2,4l-3.3,5.7c-0.9,1.6,3.9,2.6,4.7,1.3c1.4-2.1,3.1-3.9,5.2-5.3
		c1.2-0.8,2.7-1.6,4.2-1.1c1.8,0.5,3.5,1.3,5.1,2.3c3.2,2,7.2,4.9,8,8.9c0.2,1.3,0,3-1.2,3.8c-0.9,0.4-1.9,0.6-2.8,0.3
		c-2.3-0.3-4.5-1-6.6-2c-0.7-0.3-3.2-0.9-3.7,0.1l-2.2,4.1c-1,1.6-1.8,3.2-2.6,4.8c-0.2,0.6,0,1,0.2,1.6c0.4,1.1,0.8,2.1,1.1,3.2
		c2.4,7.4,3.7,16.2,0.5,23.5c-2.4,5.3-7.2,8.5-12.6,10c-0.5,0.1-0.9,0.4-0.8,1c0.8,4.5,1.4,9.1,2,13.6c1.5,11.5,2.8,23,3.8,34.5
		c1.3,14.9,2.1,29.9,2.2,44.9S389,365,386.7,380c-1.8,12.1-4.6,24.8-11.1,35.3c-3,5-7.1,9.2-12,12.4c-3.4,2.4-7.2,4.2-11.2,5.3
		c-1.5,0.4-3,0.6-4.5,0.6c-1.3,0-2.7-0.1-3.9-0.4c-2.9-0.7-5.5-2.1-7.8-4c-2.6-2.2-4.8-4.7-6.7-7.6c-4.5-6.9-7.2-14.9-8.9-22.9
		c-1.9-9.2-2.4-18.5-1.7-27.8c0.7-9.5,3.2-18.7,5.2-27.9c4.4-19.9,8.7-39.9,12.9-59.8c2.7-12.8,5.3-25.7,8-38.5l0.4-1.9
		c0.3-1.5-4.6-2.4-5-0.7c-2,9.6-3.9,19.1-5.9,28.6c-4.1,19.7-8.3,39.4-12.6,59.1c-2.1,9.7-4.6,19.4-6.5,29.1
		c-1.8,9.5-2.3,19.1-1.4,28.8c0.7,8.9,2.8,17.6,6.2,25.8c2.9,6.8,7.1,13.3,13.1,17.6c6,4.3,13.4,5.9,20.6,4.4
		c7.7-1.5,15.1-6.1,20.6-11.6c8.1-8.2,12-20,14.6-30.9c3.4-14.5,4.6-29.4,5-44.3c0.4-15.6-0.1-31.2-1.2-46.8
		c-0.9-13-2.2-25.9-3.8-38.8c-0.9-6.8-1.8-13.6-2.9-20.4l-0.1-0.9l-0.8,1c4.3-1,8.3-3.3,11.3-6.6c2.3-2.8,3.9-6.2,4.4-9.8
		c1.1-6.3-0.1-13-2-19c-0.4-1.4-0.9-2.8-1.5-4.2l-0.1,0.6l4.8-9.1l-3.7,0.1c2.8,1.3,5.7,2.2,8.8,2.7c3.4,0.5,8.9,0.5,9.6-3.9
		c0.7-4.9-4.4-9.1-7.9-11.5c-4.2-2.9-9.9-5.6-15.1-4.2c-3.7,1-7,4.1-9.1,7.3l4.7,1.3l3-5.2l2.2-3.9c0.6-0.8,1-1.6,1.4-2.4
		c0.1-0.4-0.2,0.1-0.1,0l0.6-0.2c0.8-0.4,1.6-0.7,2.4-1.1c2.5-1.3,4.9-2.8,7.1-4.5c2.1-1.7,4.2-3.8,4.9-6.5s-1-5.4-3.1-7
		c-5.5-4.1-13.6-2.6-19.6-0.7c-4.8,1.5-9.5,3.5-14,6l4.1,1.8c5-3.6,9.9-8.2,12.9-13.6c1.7-3.1,3.2-7.4,1.4-10.8s-6.6-4.1-10.1-3.5
		c-4.8,0.8-9.3,3.3-13.3,6.1c-4,2.7-7.6,6-10.5,9.9c-4.9,6.8-8.2,14.9-11,22.7c-1.9,5.2-3.5,10.5-4.8,15.8l5,0.7
		c-0.3-6.1-1.4-12.2-3.3-18c-1.2-3.5-2.9-7.3-6-9.5c-3.4-2.2-7.8-2.4-11.5-0.6c-2.8,1.4-4.1,4.2-4.7,7.1c-0.9,4.6-0.6,9.5-0.3,14.2
		c0.4,7.1,0.6,14.4,1.5,21.5c0.8,6.6,2.6,13.1,5.2,19.2c2.9,6.6,6.8,13.6,12,18.7c0.9,0.8,2.1,1.1,3.3,0.9
		C344.8,243.4,346.1,242.9,345.2,242.1z"></path><path class="st0" d="M362.8,216.1c-1.1-7-4.1-14.5-9-19.6c-2.2-2.3-4.9-4.2-7.9-5.4c-0.7-0.3-2.6-0.7-3.2,0.1s1,1.4,1.4,1.6
		c4.1,1.7,7.3,5.8,9.4,9.7c1.8,3.4,3.1,7.1,4,10.8c0.2,0.8,0.4,1.6,0.5,2.3C358.2,216.9,363,217.7,362.8,216.1L362.8,216.1z"></path><path class="st0" d="M369.3,188l7.9-21.7l1.1-3.1c0.6-1.6-3.4-4.6-4.1-2.6l-7.9,21.7l-1.1,3.1C364.6,187,368.6,189.9,369.3,188
		L369.3,188z"></path><path class="st0" d="M384.9,194.1l9.9-16.7l1.4-2.4c0.7-1.1-0.4-2.5-1.4-2.9c-1.2-0.5-2.6,0-3.2,1.1l-9.9,16.7l-1.4,2.4
		c-0.7,1.1,0.4,2.5,1.4,2.9C382.9,195.7,384.3,195.3,384.9,194.1L384.9,194.1z"></path><path class="st1" d="M155.3,324.6c0,0,6.8-19.8,1.6-40.4s-6.6-34.3-15.3-30.3s-5.2,29-5.2,29s-9.7-26.2-17.5-35.4
		s-24.3-11.8-28.8-8.5s-3.8,12.5,14.6,19.6l2.4,9.7c0,0-13.9-3.5-14.2,8.3c0,0-5.4,2.3-9.9,10.1s-5.7,15.2-1.9,18.5
		s10.6-2.1,10.6-2.1s0.2,5.5,7.9,4.5c0,0,0.5,21.9,15.8,23.7c0,0-0.6,86.8,22.9,101.5c20.4,12.7,42.9-3.4,41.2-23.4
		S155.3,324.6,155.3,324.6z"></path><path class="st0" d="M157.6,323.8c2.1-6.5,3.3-13.3,3.5-20.1c0.4-6.5-0.2-13-1.6-19.3c-1.4-5.8-2.7-11.5-4.2-17.2
		c-1-3.9-1.9-8-4-11.4c-1.3-2.2-3.2-3.6-5.8-3.2c-3.5,0.4-7.5,2-9.4,5.1c-1.5,2.8-2.4,6-2.6,9.2c-0.6,5.7-0.4,11.4,0.4,17.1l4.7-1.6
		c-2.1-5.8-4.5-11.5-7.1-17c-1.9-4.3-4.1-8.5-6.4-12.6c-2.3-3.8-4.8-7.3-8.5-9.9c-7.3-5.1-17.6-7.7-26.1-4.4c-2.5,1-4.7,2.5-5.1,5.4
		s1.3,5.7,3.2,7.7c1.9,1.9,4,3.5,6.4,4.8c1.4,0.8,2.9,1.6,4.4,2.2l1.2,0.5c0.3,0.1,1.4,0.4,1.6,0.6c0.1,0.1,0,0.3,0.1,0.4
		c0.5,1.7,1,3.4,1.3,5.2l1,4.1l4.6-1.7c-2.8-0.6-5.7-0.6-8.5,0c-2.8,0.5-5.4,1.6-7.6,3.4c-1.8,1.8-2.7,4.2-2.7,6.7l1.1-0.7
		c-6.1,2.6-10.3,8.7-12.9,14.5c-1.6,3.6-3.2,8.3-1.7,12.2c0.5,1.5,1.6,2.6,3,3.3c1.6,0.5,3.3,0.5,4.9-0.1c3.2-0.8,6.2-2.2,8.9-4.2
		l-4.5,1.3c0.2,4.2,5,5,8.3,4.6l-0.4-0.1c0.1,2.6,0.5,5.2,1.1,7.8c1.2,4.7,3.2,9.5,7,12.7c2,1.7,4.5,2.8,7.1,3.2
		c0.8,0.1,0.6,0.1,0.6,0.8c0,2.1,0,4.2,0.1,6.2c0.2,8.7,0.6,17.3,1.3,25.9c0.8,11.1,2.3,22.1,4.5,33c2,9.5,4.5,19.4,9.7,27.6
		c1.9,3.2,4.5,6,7.6,8c6.2,3.9,13.7,5.2,20.9,3.8c7-1.5,13.9-4.8,18.6-10.3c4.3-5.1,6.5-11.6,6.1-18.3c-0.4-4.1-1.1-8.2-2.1-12.2
		c-1.2-5.4-2.6-10.8-4.1-16.1c-3.2-11.5-6.8-22.9-10.5-34.3c-2.3-7.2-4.7-14.4-7.2-21.5L157.6,323.8c-0.2-0.5-4.9,1.1-4.7,1.6
		c1.4,3.9,2.6,7.8,4,11.6c3,8.9,5.9,17.8,8.6,26.7c3,9.8,5.9,19.6,8.4,29.5c1,4,1.9,8,2.6,12c0.7,4.3,1.1,8.6,0.1,12.9
		c-1.4,5.6-4.7,10.6-9.3,14.2c-1.9,1.5-4,2.6-6.2,3.4c-2.7,0.7-5.6,0.9-8.4,0.5c-5.4-0.6-10.4-2.7-14.5-6.3c-2.4-2.3-4.4-5-5.9-7.9
		c-4.1-7.5-6.4-15.9-8.2-24.1c-2-9.4-3.4-18.9-4.3-28.5c-0.8-8.3-1.4-16.6-1.7-24.9c-0.2-4.5-0.3-9-0.3-13.4v-0.6l-0.1-0.1
		c-10.2-1.3-14.3-11.9-15.4-20.9c-0.1-0.9-0.2-1.8-0.2-2.8c-0.1-0.1-0.3-0.1-0.4-0.1c-3.1,0.4-7.3-0.6-7.5-4.5
		c0-0.4-4.1,1.1-4.5,1.3c-0.5,0.4-0.9,0.7-1.4,1c-0.4,0.3-0.9,0.5-1.3,0.7s0.2,0-0.1,0c-1.3,0.2-2.6-0.3-3.6-1.1
		c-1-1-1.7-2.3-1.9-3.7c-0.7-3.7,0.7-7.6,2.2-11c1.6-3.7,4-7.1,6.8-10c1-0.9,2-1.8,3.1-2.5c0.5-0.3,0.4-0.2,0.7-0.4
		c0.5-0.3-0.1,0,0,0s1.1-0.4,1.1-0.7c-0.1-2.1,0.6-4.3,2-5.9c0.3-0.3,0.6-0.5,0.9-0.8c0.1-0.1,0.7-0.5,0.6-0.4
		c0.3-0.3-0.1,0-0.3,0.1s-0.7,0.1-0.3,0.1c0.2-0.1,0.5-0.1,0.7-0.1c2-0.2,3.9-0.1,5.9,0.4c0.5,0.1,4.8-1,4.6-1.7l-2-8.2
		c0-0.5-0.2-0.9-0.3-1.3c-0.4-0.7-2-1-2.7-1.3c-2.6-1.1-5.2-2.5-7.5-4.1c-3.8-2.6-9.9-9.1-5.1-13.7c0.2-0.2,0.3-0.3,0.5-0.4l0,0
		l0.1-0.1c-0.3,0.1-0.6,0.3-0.8,0.4c-0.1,0-0.8,0.1-0.3,0.1c-0.1,0-0.3,0.1,0.1,0c0.4-0.1,0.8-0.1,1.2-0.1c2-0.1,4,0,6,0.4
		c4.7,0.8,9.1,2.5,13.1,5.1c3.4,2.4,6.2,5.5,8.2,9.1c2.3,3.8,4.4,7.8,6.2,11.8c2.9,6.1,5.5,12.4,7.9,18.8c0.2,0.5,4.8-1,4.7-1.6
		c-0.6-4.4-0.8-8.8-0.7-13.3c0-3.3,0.5-6.6,1.4-9.8c0.4-1.4,1-2.6,1.9-3.8c0.3-0.5,0.7-0.9,1.2-1.2c0.1-0.1,0.5-0.3,0.4-0.3
		c-0.3,0.3,0.4-0.1-0.1,0c-0.3,0.1-0.7,0.2-1.1,0.3c0.4,0,0.8,0,1.2,0.1c0.5,0.1,1,0.3,1.5,0.6c1,0.7,1.8,1.7,2.3,2.8
		c1.9,3.3,2.8,7.1,3.7,10.7c1.4,5.4,2.6,10.8,3.9,16.2c1.5,6,2.2,12.2,2,18.5c0,7.6-1.2,15.2-3.6,22.4c0.8-0.1,1.7-0.2,2.5-0.5
		C156,324.8,157.4,324.5,157.6,323.8z"></path><path class="st0" d="M114.2,281.6l-3.4-11.4l-0.5-1.6c-0.3-1-1.4-1.7-2.2-2.2c-0.2-0.1-2.2-1-1.9-0.3l3.4,11.4l0.5,1.6
		c0.3,1,1.4,1.7,2.2,2.2C112.4,281.4,114.4,282.3,114.2,281.6z"></path><path class="st1" d="M92.9,276.8c0,0-3.6,18.4-1.2,26.4s10.8,11.1,15.5-5.2"></path><path class="st0" d="M90.6,276.1c-1.5,7-2.1,14.2-2,21.3c0.2,3.8,0.9,7.8,3.3,10.9c2,2.6,5.3,4.5,8.6,3.4c5.1-1.6,7.4-7.9,8.8-12.5
		c0.4-1.2-0.2-2.6-1.3-3.2c-0.9-0.5-2.7-0.5-3,0.7c-0.7,2.5-1.7,5-3,7.3c-0.4,0.7-0.9,1.3-1.4,1.9c-0.3,0.3-0.5,0.5-0.8,0.8
		c0.3-0.2,0,0-0.1,0.1s-0.4,0.2-0.6,0.4l-0.3,0.2c-0.5,0.2,0.4-0.1-0.1,0c-0.3,0.1-0.5,0.1-0.8,0.2c0.6-0.1-0.2,0-0.4,0
		s-0.4-0.1,0.1,0l-0.5-0.1c-0.2,0-0.5-0.2,0.1,0c-0.1-0.1-0.2-0.1-0.4-0.2l-0.4-0.2c-0.5-0.3,0.3,0.3,0.1,0l-0.6-0.5
		c-0.1-0.1-0.5-0.6-0.1,0l-0.3-0.5c-0.2-0.3-0.4-0.5-0.6-0.8c0-0.1-0.3-0.7-0.1-0.2c-0.1-0.1-0.1-0.3-0.2-0.4
		c-0.2-0.3-0.3-0.7-0.4-1S94,303,94,302.8s-0.2-0.7-0.1-0.3c-0.4-1.8-0.6-3.7-0.6-5.6c0-4.1,0.2-8.1,0.8-12.1c0.3-2.5,0.7-5,1.2-7.5
		C95.8,274.7,91.2,273,90.6,276.1L90.6,276.1z"></path><path class="st0" d="M129.6,302.9c1-2.9,1.6-5.9,2.6-8.8c1.4-4,3.1-8.2,6.1-11.3c0.9-0.9-0.2-2.5-0.9-3c-0.9-0.8-2.3-0.7-3.2,0.1
		c-3.2,3.2-5,7.8-6.5,12c-1,3-1.7,6-2.7,9C124.3,303.3,128.8,305.5,129.6,302.9L129.6,302.9z"></path><g class="st2"><circle class="st3" cx="94.1" cy="244.7" r="16.4"></circle></g><g class="st2"><circle class="st3" cx="381.8" cy="145.2" r="16.4"></circle></g></g><g id="screen"><path class="st3" d="M467.1,59.6H47.9c-5.7,0-11.3-0.2-17,0h-0.7c-0.5,0-1,0.4-1,0.9c0,0,0,0,0,0V423c0,4.9-0.3,9.8,0,14.7
		c0,0.2,0,0.4,0,0.6c0,1.5,2.7,2,3.7,2h419.2c5.6,0,11.3,0.2,17,0h0.7c0.5,0,1-0.4,1-0.9c0,0,0,0,0,0V77c0-4.9,0.3-9.8,0-14.7
		c0-0.2,0-0.4,0-0.6c0-1.6-4.7-3-4.7-1.1v372.1c-0.1,1.7-0.1,3.3,0,5c0,0.2,0,0.4,0,0.6l1-0.9H47.9c-5.7,0-11.3-0.2-17,0h-0.7l3.7,2
		V67.3c0.1-1.7,0.1-3.3,0-5c0-0.2,0-0.4,0-0.6l-1,0.9h419.2c5.6,0,11.3,0.2,17,0h0.7c1.1,0,1.2-0.9,0.6-1.6
		C469.6,60,468.4,59.6,467.1,59.6z"></path><path class="st3" d="M74.5,123.9L74.1,111l-0.2-6.5l-0.1-3c-0.2-1-0.2-2,0-2.9l-0.6,1c0.6-0.7,2.3-1,3.2-1.3
		c1.1-0.4,2.3-0.5,3.4-0.5c1.9,0,3.5,1.4,3.7,3.2c0.3,0.8,0.1,1.8-0.4,2.4c-0.7,0.8-1.5,1.6-2.4,2.2c-1.8,1.4-3.9,2.4-6.1,2.9
		c-3,0.7-1.6,5.4,1.2,4.7c4.1-0.9,7.8-3,10.6-6c1.6-1.6,2.3-3.9,1.9-6.2c-0.3-2.1-1.2-4-2.7-5.5c-3.5-3.4-8.3-2.9-12.5-1.4
		c-1,0.3-2,0.7-2.9,1.3c-0.9,0.9-1.3,2.2-1.1,3.4c0.1,2.5,0.2,5,0.2,7.5l0.5,16.9c0.1,1.3,1,2.4,2.3,2.6c1.2,0.1,2.2-0.7,2.3-1.8
		C74.5,124.1,74.5,124,74.5,123.9L74.5,123.9z"></path><path class="st3" d="M97.3,101.1c0.3-0.2,0.6-0.5,1-0.7s0.2,0,0-0.1c-0.4-0.3,0.3,0.3,0.3,0.4c0.9,1.2,1.1,3.1,1.3,4.4
		c0.7,3.3,0.8,6.6,0.3,9.9l4.8-0.8c-1.3-3.1-3.2-5.9-6.5-7.1c-3.3-1.3-7-0.1-9,2.7c-0.9,1.3-1,2.9-0.4,4.4c0.7,1.7,2.4,2.4,4,2.9
		c3.4,1,7.6,1.2,10.2-1.7c0.7-0.7,0.7-1.7,0-2.4c-0.1-0.1-0.3-0.2-0.4-0.3c-1.2-0.6-2.6-0.4-3.5,0.6c-0.1,0.1-0.2,0.2-0.3,0.3
		l-0.2,0.2c0.1-0.1,0.1-0.1,0,0c-0.2,0.1-0.5,0.2-0.7,0.2c-1,0-2-0.2-2.9-0.5c-0.7-0.2-1.1-0.2-1.3-0.8c-0.2-0.6,0-1.2,0.5-1.6
		c0.2-0.2,0-0.1,0.2-0.2s0.5-0.2,0.2-0.1c0,0,0.6-0.2,0.4-0.1s0.4,0,0,0c0.8,0,1.5,0.2,2.2,0.7c1.6,1.1,2.5,3,3.2,4.8
		c0.4,0.9,1.8,1.2,2.6,1c1-0.1,1.9-0.8,2.2-1.8c0.6-4.4,0.3-8.9-0.8-13.3c-0.5-2-1.3-4-3.3-5.1c-2.3-1.2-4.9-0.3-6.8,1.2
		c-0.9,0.7-1.4,1.9-0.5,2.8C94.9,101.8,96.3,101.8,97.3,101.1L97.3,101.1z"></path><path class="st3" d="M112.4,96.3c0,2.7-0.1,5.3,0,7.9c-0.1,2.5,0.1,5,0.6,7.4c0.6,2.3,2.5,4,4.9,4.3c2.8,0.4,5.1-1,7.2-2.8
		c0.9-0.8-0.1-1.7-0.9-2c-1.1-0.4-2.4-0.3-3.4,0.5c-0.3,0.3-0.6,0.5-0.9,0.8c-0.3,0.2-0.7,0.4-1,0.6c-0.3,0.4,0.1-0.1,0.1,0.1
		c0.1-0.2,0.2,0.3,0-0.1s-0.5-0.5-0.7-0.8c-0.2-0.4-0.3-0.7-0.4-1.1c-0.2-0.9-0.3-1.8-0.3-2.7c-0.3-4-0.2-8.1-0.2-12.1
		C117.4,94.3,112.4,94.3,112.4,96.3L112.4,96.3z"></path><path class="st3" d="M113.1,103.7h11.1c1.1,0,0.3-1.1-0.1-1.5c-0.8-0.9-1.8-1.4-3-1.6H110c-1.1,0-0.3,1.2,0.1,1.5
		C110.9,103,111.9,103.6,113.1,103.7L113.1,103.7z"></path><path class="st3" d="M131.2,91v22.6c0.1,1.2,0.9,2.2,1.9,2.7c0.8,0.3,2,0.2,2.1-0.8c0.3-2.4-0.4-4.9,0-7.3c0.3-1.7,1.4-3.5,3.3-3.2
		c1.7,0.3,2.5,2,3,3.4c1,2.5,1.7,5.1,2.5,7.7c0.3,1.2,1.4,2.1,2.6,2.3c1.2,0,1.6-1.2,1.3-2.2c-0.9-3.2-2-6.4-3.3-9.5
		c-1.3-2.7-3.5-5.3-6.6-6c-2.7-0.7-5.4,0.8-6.4,3.4c-1.2,3-0.1,6-0.5,9.1l4.1,1.8V92.2C135.3,90,131.2,87.9,131.2,91L131.2,91z"></path><path class="st3" d="M58,97l-11.3,5.2c-1.6,0.7-0.7,2.7,0.3,3.6l8.3,8.1c0.6,0.6,2,1.2,2.6,0.2s-0.2-2.4-1-3.1l-8.2-8.1l0.3,3.6
		l11.3-5.2c1-0.5,1-1.6,0.5-2.6c-0.3-0.6-0.7-1.1-1.3-1.4C59.1,97.2,58.5,96.9,58,97L58,97z"></path><path class="st3" d="M173.3,98.3c-1.9-0.2-3.9-0.2-5.2,1.4c-1,1.6-1.4,3.5-1,5.3c0.7,4.3,3.6,8.8,8.2,9.4c2.3,0.2,4.6,0,6.8-0.7
		c0.3-0.1,0.3-0.8,0.2-0.9c-0.1-0.6-0.2-1.2-0.5-1.7c-0.3-0.6-1-2.1-1.9-1.9c-2,0.7-4.1,0.9-6.2,0.7c-1-0.1-1.9-0.4-2.7-0.9
		c-0.2-0.1-0.4-0.3-0.6-0.4c-0.1-0.1-0.2-0.1-0.1,0l-0.2-0.2L170,108c0.1,0.2,0.2,0.2,0,0l-0.2-0.3c0.2,0.2,0.2,0.3,0.1,0.1
		c-0.3-0.6,0.2,0.4,0-0.1c-0.1-0.2-0.1-0.2,0,0.1l-0.1-0.3c0,0.6,0-0.1,0-0.3c0.1,0.4,0-0.2,0-0.2c0-0.1,0-0.2,0-0.3
		c0,0.1,0,0.1,0-0.1c0-0.2,0-0.5,0.1-0.7c0.1-0.4,0.2-0.8,0.3-1.2c0.9-2.1,2.9-2.2,4.9-2.1c0.9,0.1,0.4-1.6,0.2-2
		c-0.2-0.6-0.5-1.2-0.9-1.7C174.2,98.8,173.8,98.3,173.3,98.3L173.3,98.3z"></path><path class="st3" d="M189,93.3c-0.1,4.1,0,8.2,0.2,12.4c0.2,3.1,0.4,8.1,4.5,8.3c1.2,0,2.3-0.4,3.3-1.1c0.4-0.3,1.5-1.4,0.3-1.5
		c-3.6-0.2-3.4-5.6-3.6-8.1c-0.3-3.8-0.3-7.6-0.2-11.5C193.6,90.5,189,92,189,93.3L189,93.3z"></path><path class="st3" d="M204.9,101.1c3-0.9,6.3,0.4,7.7,3.2c1.7,3.3,2.5,6.9,2.4,10.6l4.2-2.8c-2.1-1.2-3.3-3.5-5.3-4.9
		c-0.9-0.6-2-1-3.1-1.1c-1.5,0.1-2.9,0.7-4,1.6c-1.2,0.8-2.6,1.8-2.9,3.3c-0.2,1.1,0,2.2,0.5,3.1c1.5,2,3.8,3.3,6.4,3.4
		c1.9,0.1,3.6-1,5.1-2.1c1.2-0.9,2.4-2,2.5-3.5c0-0.3-2.2,0.9-2.3,1c-0.5,0.3-1.8,1-1.8,1.8c0,0.3-0.1,0.6-0.2,0.8
		c-0.6,1.3-0.7-0.9,1.7-0.9c-0.5,0.1-1,0.1-1.4,0.1c-1.2-0.2-2.3-0.6-3.4-1.2c-1.7-1-3.4-2.8-2.8-5c0.1-0.2,0.1-0.4,0.2-0.6
		c0-0.1,0.1-0.1,0.1-0.2l-2.2,1.4c0.5,0,0.9,0,1.4,0c1,0.2,1.9,0.6,2.7,1.3c1.7,1.4,2.8,3.4,4.8,4.5c0.6,0.3,1.9-0.7,2.3-1
		s1.8-1.1,1.8-1.8c0-3.7-0.6-7.9-2.6-11.1c-1.8-2.7-5.2-3.9-8.3-2.8c-1.1,0.4-2.1,1-2.9,1.8C205.1,100.2,204,101.4,204.9,101.1
		L204.9,101.1z"></path><path class="st3" d="M233.6,97.7c-2.6-0.2-5.1,0.7-6.9,2.5c-1.8,1.8-2.2,4.5-0.5,6.5c1.5,1.7,3.6,2.3,5.7,3.2
		c0.9,0.3,1.8,0.8,2.6,1.5c0.4,0.4,0.7,0.8,0.9,1.3c0,0.1,0.1,0.3,0.1,0.4c0,0.1-0.1,0.1-0.1,0.2c0,0,0.2-0.2,0,0s-0.4,0.4-0.7,0.6
		l-0.3,0.3c-0.4,0.3,0.5-0.3-0.2,0.2l-0.3,0.2c-0.4,0.2,0.3-0.1-0.1,0.1c-0.2,0.1-0.1,0.1-0.1,0s-0.4,0.1-0.2,0.1
		c-0.9,0.1-1.7-0.4-2-1.2c-0.1-0.4-0.9-0.4-1.1-0.3c-0.6,0.1-1.2,0.3-1.7,0.7c-0.8,0.6-1.7,1.5-1.3,2.5c0.9,2.4,4.1,2.2,6.1,1.4
		c1.4-0.6,2.7-1.5,3.8-2.6c1.2-0.9,2-2,2.5-3.4c0.6-2.5-1.9-4.3-3.9-5.2s-4.3-1.3-5.7-3.1c-0.4-0.4-0.6-0.9-0.7-1.5
		c0-0.3,0-0.5,0.1-0.8c0,0.1,0-0.1,0,0c-0.1-0.2,0.1,0.1-0.1,0.1s-0.1,0,0.1-0.1c0,0-0.6,0.4-0.3,0.2s0,0-0.1,0l0.4-0.1
		c0,0-0.2,0,0,0s0.4-0.1,0.6-0.1c0.2,0,0.4,0,0.6,0c1.2,0,2.4-0.6,3.1-1.6C234.3,99.1,234.8,97.8,233.6,97.7L233.6,97.7z"></path><path class="st3" d="M248.4,97.8c-1.6-0.6-3.4,0.1-4.3,1.6c-1.1,1.7-0.8,3.9,0,5.7c0.9,2.1,2.4,3.9,4.3,5.2
		c0.9,0.6,1.8,1.1,2.7,1.6c0.5,0.3,1,0.5,1.4,0.8c0.2,0.1,0.4,0.2,0.5,0.3c0.7,0.5,0.1,0.6-0.4-0.8l-0.3-1.1
		c0.1,0.5-1.9,1.3-2.2,1.6l-3.4,1.9c-1.3,0.8,1.2,5.1,2.5,4.3l3.7-2.1c0.8-0.5,2-1,2.4-2c0.6-1.6-0.5-3.6-1.6-4.8
		c-0.9-0.9-2-1.6-3.2-2.2c-1.1-0.5-2.1-1.1-3.1-1.8l-0.4-0.3c0,0-0.5-0.6-0.3-0.3c0,0-0.4-0.7-0.2-0.3s0.1,0.2-0.1-0.1
		c0.1,0.1,0.1,0.1,0,0c-0.3-1.4,1.5-3.5,3.1-3c1,0.3,1-0.8,0.8-1.5C250.2,99.6,249.4,98,248.4,97.8L248.4,97.8z"></path><path class="st3" d="M265.4,105.1h7.3c0.5,0,0.9-0.2,1.2-0.5c0.2-0.4,0.2-0.9,0-1.4c-0.5-1.2-1.7-1.9-2.9-2h-7.3
		c-0.5,0-1,0.2-1.2,0.6c-0.2,0.4-0.2,0.9,0,1.4C263,104.2,264.1,105,265.4,105.1z"></path><path class="st3" d="M267.5,114.5h6.9c0.6,0,1.2-0.2,1.6-0.5c0.4-0.3,0.6-0.8,0.5-1.3c-0.4-1.1-1.6-1.9-2.8-1.8h-6.9
		c-0.6,0-1.2,0.2-1.6,0.5c-0.4,0.3-0.6,0.8-0.5,1.3C265.2,113.8,266.3,114.6,267.5,114.5z"></path><path class="st3" d="M280,86c0.4,2.9,1,5.8,1.9,8.6c0,0.2,0.8,0,0.8,0c0.6-0.1,1.2-0.2,1.7-0.4c0.6-0.2,1.1-0.4,1.7-0.6
		c0.1,0,0.7-0.3,0.6-0.4c-0.9-2.8-1.5-5.7-1.9-8.6c0-0.3-2.3,0.3-2.5,0.4c-0.6,0.2-1.1,0.4-1.7,0.6C280.5,85.6,280,85.8,280,86
		L280,86z"></path><path class="st3" d="M291.4,86.2v9.2c0,0.3,0.5,0.5,0.6,0.6c0.5,0.2,1.1,0.4,1.7,0.5c0.3,0,2.6,0.4,2.6-0.1v-9.2
		c0-0.3-0.5-0.5-0.6-0.6c-0.5-0.2-1.1-0.4-1.7-0.5C293.7,86,291.4,85.6,291.4,86.2L291.4,86.2z"></path><path class="st3" d="M313.7,97.7c-2.9-1.1-6.3-0.6-8.6,1.5c-2.1,1.9-2.6,4.9-1.3,7.4c1.2,2.1,3.6,3.3,5.7,4.2c1,0.4,2,0.9,2.9,1.5
		c0.6,0.5,1.5,1.3,1.4,2c0-0.2-0.1,0-0.1,0.1c-0.2,0.2,0,0,0,0c-0.1,0.1-0.3,0.2-0.4,0.2c0,0-0.4,0.2-0.2,0.1s-0.5,0.2-0.5,0.2
		c-0.4,0.1-0.7,0.2-1.1,0.3c-1.4,0.3-2.8,0.3-4.2,0.1c-1.3-0.2-2.5,0.4-3.1,1.5c-0.5,1.1,0.4,2,1.5,2.2c3.1,0.4,6.2,0.1,9.1-0.9
		c2.7-1,5.1-3.3,3.5-6.2c-1.2-2.2-3.7-3.3-5.9-4.3c-1.6-0.7-3.8-1.7-4.3-3.6c-0.1-0.5-0.1-1,0-1.5c0.1-0.4,0.4-0.8,0.7-1.2
		c0.1-0.1,0.3-0.3,0.5-0.3c0,0,0.3-0.1,0.2-0.1c0.5-0.1,1,0,1.5,0.2c1.2,0.4,2.6,0.1,3.4-0.9c0.6-0.6,0.5-1.6-0.1-2.1
		C314,97.8,313.8,97.7,313.7,97.7L313.7,97.7z"></path><path class="st3" d="M322.9,96.4v9.8c-0.1,2.9-0.1,5.8,0.2,8.7c0.3,2.3,1.5,4.5,3.8,5.2c2.9,0.8,6-0.1,8.2-2.2
		c0.7-0.7,0.4-1.5-0.6-1.6c-1.2-0.1-2.4,0.3-3.3,1.2c-0.6,0.6,0.2-0.1,0.2,0.1s-0.6,0-0.7,0c-0.8-0.2-1.5-0.8-2-1.5
		c-1-1.6-1-3.6-1-5.4c0-5.1,0-10.1,0-15.2C327.7,93.5,322.9,94.9,322.9,96.4L322.9,96.4z"></path><path class="st3" d="M321.5,105.3c4.2-0.1,8.4-0.5,12.5-1.1c0.7-0.1-0.6-1.5-0.8-1.7c-0.4-0.5-0.9-0.9-1.4-1.3
		c-0.2-0.2-0.7-0.7-1-0.6c-4.1,0.7-8.3,1-12.5,1.1c-0.7,0,0.6,1.6,0.8,1.7c0.4,0.5,0.9,0.9,1.4,1.3
		C320.8,104.9,321.2,105.3,321.5,105.3z"></path><path class="st3" d="M342.2,95.9c-3.1,2.7-3.5,7.4-3.4,11.2c0,2.1,0.5,4.1,1.6,5.9c1,1.4,2.4,2.4,4.1,3c3.6,1.4,8.8,1.8,12-0.9
		c2.9-2.5,3.9-6.7,3.2-10.4c-0.8-4.2-3.5-7.8-7.3-9.7c-1-0.5-2.2-0.7-3.4-0.7c-0.3,0-2,0.3-1,0.8c5.8,2.9,8.7,10.6,5.6,16.5
		c-0.7,1.5-1.9,2.7-3.4,3.5c-0.6,0.3-1.2,0.5-1.9,0.5c-0.1,0-0.3,0-0.2,0c0.4,0.1,0,0-0.2-0.1c-3.2-1.2-4.2-4.7-4.3-7.8
		c-0.1-3.7,0.2-8.3,3.2-10.9c0.6-0.5-1.4-1-1.6-1C344.6,95.7,342.9,95.4,342.2,95.9L342.2,95.9z"></path><path class="st3" d="M363.5,87.1c-0.2,2.8-0.1,5.5,0.1,8.3c0.2,1.3,1.2,2.3,2.5,2.4c1.1,0.2,2-0.5,2.2-1.6c0-0.1,0-0.2,0-0.4
		c-0.2-2.7-0.3-5.5-0.1-8.3c-0.1-0.6-0.3-1.2-0.8-1.6c-0.5-0.5-1.1-0.8-1.8-0.8c-0.6-0.1-1.2,0.1-1.6,0.4
		C363.7,86,363.4,86.5,363.5,87.1z"></path><path class="st3" d="M372.9,87.2v6.9c0,1.1,1.5,1.6,2.4,1.7c0.6,0.1,1.2-0.1,1.8-0.3c0.4-0.2,0.8-0.6,0.8-1v-7
		c0-1.1-1.5-1.6-2.4-1.7c-0.6-0.1-1.2,0.1-1.8,0.3C373.3,86.3,372.9,86.7,372.9,87.2L372.9,87.2z"></path><path class="st3" d="M91.5,149.3V169l4.7-1.5c-1-3.1-2.3-6.5-5-8.5c-2.6-1.9-6-2.3-8.9-1c-5.8,2.6-6.2,12.3-0.9,15.8
		c4.3,2.8,8.2-1.1,11.5-3.6c0.8-0.6,1.7-1.6,0.8-2.5s-2.5-0.4-3.3,0.1c-1.5,1.1-2.9,2.3-4.5,3.3c-0.4,0.2,0.1,0.1-0.1,0
		c-0.3-0.1-0.5-0.2-0.8-0.3c-0.5-0.3-0.9-0.7-1.2-1.1c-1.4-2.2-1.8-4.8-1-7.3c0.1-0.5,0.4-1,0.8-1.4c-0.2,0.2,0.2-0.1,0.3-0.1
		c1.1-0.1,2.2,0.2,3.1,0.8c2.5,1.7,3.6,5,4.5,7.8c0.7,2,4.7,0.2,4.7-1.5v-19.7C96.2,145.8,91.5,147.1,91.5,149.3L91.5,149.3z"></path><path class="st3" d="M106,159h6.9c0.5,0,1-0.3,1.3-0.7c0.2-0.5,0.2-1,0-1.4c-0.6-1.1-1.7-1.9-3-1.8h-6.9c-0.8,0-1.5,0.6-1.5,1.4
		c0,0.3,0.1,0.5,0.2,0.7C103.5,158.3,104.7,159,106,159L106,159z"></path><path class="st3" d="M107.2,169.7h7.9c0.4,0.1,0.8-0.1,1-0.5c0.2-0.5,0.2-1,0-1.4c-0.2-0.6-0.6-1.2-1.1-1.6
		c-0.4-0.4-0.9-0.7-1.5-0.8h-7.9c-0.4-0.1-0.8,0.2-1,0.5c-0.2,0.5-0.2,1,0,1.4c0.2,0.6,0.6,1.2,1.1,1.6
		C106.1,169.4,106.6,169.6,107.2,169.7L107.2,169.7z"></path><path class="st3" d="M122.9,146.3c-0.2,3.2-0.1,6.4,0.3,9.6c0,0.2,0.3,0.5,0.5,0.6c0.4,0.4,0.9,0.8,1.4,1.1c0.5,0.3,1,0.7,1.5,1
		c0.1,0,0.7,0.4,0.7,0.3c-0.3-3.2-0.4-6.4-0.2-9.6c0-0.2-0.4-0.5-0.5-0.6c-0.4-0.4-0.9-0.8-1.4-1.1c-0.5-0.4-1-0.7-1.5-1
		C123.5,146.6,122.9,146.2,122.9,146.3L122.9,146.3z"></path><path class="st3" d="M131.1,147.7v8.2c0,0.7,0.2,1.3,0.6,1.8c0.3,0.5,0.9,0.9,1.4,1c1,0.1,1.9-0.6,2-1.5c0-0.1,0-0.3,0-0.4v-8.2
		c0-0.7-0.2-1.3-0.6-1.8c-0.4-0.5-0.9-0.8-1.4-1c-1-0.1-1.9,0.6-2,1.5C131.1,147.4,131.1,147.5,131.1,147.7z"></path><path class="st3" d="M143.4,172.6v-17.1c0-1.7-0.2-3.4,0.6-5l-4.6-0.9l3.9,5.9c1.4,2.2,2.6,4.4,5.5,4.6c2.3,0.2,3.5-2.2,4.8-3.8
		l4.6-5.5l-4.6-1.4c0.6,7.1,1.1,14.2,1.3,21.3c0,1.5,4.8,2.7,4.8,0.9c-0.2-7.1-0.7-14.2-1.3-21.3c-0.1-1.3-3.8-2.4-4.6-1.4l-3.9,4.6
		l-1.8,2.3c-0.4,0.5-1.1,1.7-1.7,2l1-0.1H147l2.4,0.8c-0.4-0.6-0.8-1.2-1.1-1.8l-1.5-2.2l-2.9-4.4c-0.6-1-3.9-2.3-4.6-0.9
		s-0.6,3.4-0.6,5.1v17.5C138.6,173.2,143.4,174.5,143.4,172.6L143.4,172.6z"></path><path class="st3" d="M169.2,155.7l4.4-2.8l-4.2-2.3v21c0,1.8,4.6,3.6,4.6,1.6v-21c0-1.6-2.9-3.1-4.2-2.3l-4.4,2.8
		C163.6,153.8,167.6,156.7,169.2,155.7L169.2,155.7z"></path><path class="st3" d="M187.5,155c1.1-1,2.4-2.2,3.9-2.5c0.3-0.1,0.7-0.1,1,0c0.2,0,0.3,0.1,0.5,0.1c1,0.4,0.4,0-1.8-1.3
		c0.4,0.5,0.7,1.1,0.9,1.7c0.9,2.9-1.1,5.7-3.4,7.3c-0.2,0.1,1.7,1.6,1.9,1.7c0.4,0.3,1.6,1.4,2.2,1.2c0.8-0.2,1.7-0.3,2.5-0.2
		c0.3,0,0.7,0.1,1,0.2c0.1,0,0.3,0.1,0.4,0.1c-1.8-1.6-2.4-2-1.8-1.2c0.8,1.1,0.9,2.5,0.4,3.7c-0.7,1.4-2.3,1.9-3.6,2.4
		c-1.6,0.8-3.5,1.1-5.3,0.8c-0.3-0.1,0.1,0.3,0.1,0.3c0.3,0.4,0.7,0.7,1.1,1c0.8,0.7,1.7,1.3,2.6,1.6c2.4,0.5,4.7-0.4,6.8-1.4
		c1.9-0.8,3.1-2.2,2.6-4.4c-0.6-2.3-3-3.8-4.9-5c-1.8-1.2-4.1-1.6-6.2-1l4.1,2.9c3.2-2.2,5-6.4,2.1-9.6c-1-1-2-1.8-3.2-2.5
		c-0.9-0.6-1.8-1.1-2.9-1.4c-2.1-0.4-3.9,1.1-5.3,2.5c-0.2,0.2,1.7,1.6,1.9,1.7S187.2,155.3,187.5,155z"></path><path class="st3" d="M214,166.8c-0.1,0-0.3,0-0.4,0c-0.5,0.1-1,0.2-1.5,0.4c-0.6,0.2-1.2,0.4-1.8,0.7c-0.4,0.2-0.8,0.4-1.1,0.6
		c0,0-0.1,0.1-0.1,0.1c-0.2,0.2-0.2,0.6,0,0.8c0.1,0.1,0.3,0.2,0.5,0.2c0.2,0,0.3,0,0.5,0c0.8-0.1,1.5-0.4,2.2-0.6
		c0.6-0.2,1.2-0.5,1.8-0.8c0.3-0.1,0.5-0.3,0.7-0.5c0.1-0.1,0.2-0.3,0.3-0.5c0.1-0.4-0.1-0.9-0.4-1.2c-0.1-0.1-0.2-0.1-0.2-0.1
		c-0.2,0-0.4,0-0.5,0.1c-0.6,0.1-1.1,0.3-1.7,0.5c-0.6,0.2-1.1,0.4-1.6,0.7c-0.1,0-0.7,0.4-0.6,0.5c0.3,0.4,0.5,0.9,0.3,1.3v-0.1
		c-0.1,0.1-0.1,0.2-0.2,0.3l0.2-0.2l-0.1,0.1l0.3-0.2l0,0c0.5-0.3,1-0.5,1.5-0.7c0.5-0.2,1-0.4,1.6-0.5l0,0l0.4-0.1h-0.1h0.3
		c-0.1,0-0.2,0-0.3-0.1l0.1,0.1c-0.3-0.1-0.4-0.5-0.2-0.7c0,0,0,0,0,0l-0.1,0.1c0-0.1,0.1-0.2,0.2-0.2l-0.2,0.2c0,0,0,0,0.1,0
		l-0.3,0.2c1-0.6-0.1-0.2-3.2,1.2l-0.4,0.1h0.1h-0.3h0.1c0.2,0,0.3,0,0.5,0c0.2,0,0.5-0.1,0.7-0.2c0.6-0.2,1.2-0.4,1.8-0.6l0.6-0.2
		c0.3-0.1,0.5-0.3,0.8-0.4l0.2-0.2C214.2,166.9,214.2,166.9,214,166.8L214,166.8z"></path><path class="st3" d="M223.1,154.2h9.4l-3.1-3.4l-4.6,16.1c-0.2,1.2,0.4,2.4,1.5,2.9c0.7,0.5,2.4,0.8,2.7-0.3l4.6-16.1
		c0.5-1.8-1.4-3.4-3.1-3.4h-9.4c-1.2,0-1.3,1.5-0.9,2.3C220.7,153.4,221.9,154.1,223.1,154.2L223.1,154.2z"></path><path class="st3" d="M83.3,224.2c-4.4-0.9-8.6,1.7-10.7,5.6c-2.3,4.2-2.2,9.2,0.1,13.3c1.1,2.2,3,3.8,5.3,4.7
		c1.9,0.6,4,0.6,5.9-0.2c5.2-2.1,3.4-8.1,0.7-11.5c-1.6-1.9-3.9-3.1-6.3-3.3c-2.3-0.2-5.2,0.2-5.7,2.9c0,1.1,0.4,2.1,1.1,2.9
		c0.1,0.2,1.6,1.8,1.7,1c0.6-3.5,6.2-2.8,8.4-1.4c0.2,0.2,0.5,0.4,0.7,0.6c-0.2,0-0.3-0.7-0.3-0.4c0.1,0.6,0.1,1.2,0,1.8
		c-0.4,1.5-1.5,2.7-3,3.1c-1.5,0.6-3.2,0.7-4.7,0.3c-0.7-0.2-1.3-0.4-1.9-0.8c-0.2-0.1-0.4-0.3-0.6-0.5c0.1,0.1,0.1,0.2,0.1,0
		c-0.1-0.7-0.2-1.3-0.3-2c0-0.9,0-1.7,0.2-2.6c0.3-1.7,0.9-3.2,1.8-4.7c2-3.4,5.8-5.2,9.7-4.6c0.9,0.2,0-1.8-0.1-2
		C85,225.7,84.2,224.3,83.3,224.2L83.3,224.2z"></path><path class="st3" d="M93.8,239.8c-0.2,0.3-0.3,0.7-0.4,1c0,0.2-0.1,0.3-0.1,0.5c-0.1,0.3-0.1,0.7-0.1,1c0.1,1,0.6,1.9,1.5,2.5
		c0.7,0.4,1.6,0.6,2.4,0.6c0.5,0,1.1-0.2,1.5-0.4c0.1-0.1,0.3-0.1,0.4-0.2c0.1-0.1,0.3-0.2,0.4-0.3c0.4-0.4,0.8-0.9,1-1.4
		c0-0.1,0.1-0.2,0.1-0.4c0.1-0.3,0.1-0.6,0.1-0.9c0-0.3-0.1-0.7-0.2-1c-0.1-0.2-0.1-0.4-0.2-0.5c-0.2-0.5-0.5-1-0.8-1.4
		c-0.2-0.2-0.4-0.4-0.7-0.5c-0.3-0.2-0.6-0.3-0.9-0.3c-0.3-0.1-0.7-0.1-1,0c-0.3,0-0.6,0.1-0.9,0.2c-0.5,0.2-0.9,0.6-1.1,1.1
		l-0.1,0.5c0,0.3,0.2,0.7,0.4,0.9c0.1,0.1,0.1,0.2,0.2,0.3l-0.3-0.4c0.3,0.4,0.5,0.8,0.6,1.3l-0.1-0.5c0,0.2,0,0.5,0,0.7l0.1-0.5
		c0,0.2-0.1,0.4-0.2,0.5l0.2-0.4c-0.1,0.1-0.2,0.3-0.3,0.4l0.4-0.4c-0.1,0.1-0.2,0.1-0.3,0.2l0.5-0.3l-0.2,0.1l0.6-0.2h-0.2l0.7-0.1
		h-0.2h0.7h-0.2l0.6,0.1c-0.1,0-0.2,0-0.2-0.1l0.5,0.3c-0.1,0-0.2-0.1-0.2-0.1l0.4,0.4c-0.1-0.1-0.2-0.2-0.3-0.3l0.3,0.4
		c-0.1-0.2-0.2-0.4-0.2-0.6l0.1,0.5c0-0.2,0-0.4,0-0.7L98,242c0.1-0.5,0.3-1.1,0.6-1.6c0.2-0.5,0-1-0.3-1.4
		c-0.4-0.4-0.9-0.7-1.5-0.8c-0.7-0.1-1.3,0-1.9,0.3l-0.5,0.3C94.1,239,93.9,239.3,93.8,239.8L93.8,239.8z"></path><path class="st3" d="M120.1,224.4c-3.4-0.8-6.9,0.5-9.8,2.4c-2.3,1.6-5.4,4.3-4.9,7.4c0.4,2.8,3.4,4.6,6.1,5.1
		c3.3,0.5,6.8-1.3,9-3.6c2.4-2.6,3.3-6.3,2.3-9.7c-0.3-1.1-4.4,1.1-4.3,2.3c0.2,3.4,1.9,6.4,2.2,9.8c0.2,1.5,0.2,3.1-0.2,4.6
		c-0.1,0.2-0.2,0.4-0.3,0.6c0-0.1,0.2-0.1,0.3-0.2c-0.5,0.2-1,0.4-1.6,0.5c-1.2,0.3-2.2,0.9-3,1.8c-0.5,0.7-0.3,1.4,0.7,1.2
		c4.1-1,8.4-3,8.6-7.7c0.1-2.1-0.2-4.3-0.7-6.3c-0.6-2.1-1.4-4.1-1.6-6.3l-4.3,2.3c0.6,2.3,0.4,5.2-1.2,7.1c0.1-0.1-0.6,0.5-0.4,0.4
		c-0.4,0.4-0.2,0.1,0,0.1c-0.4,0.2-0.7,0.2-1.1,0.2c-1.3,0-2.6-0.4-3.7-1.2c-2.1-1.4-3.2-3.9-1.4-6c1.4-1.6,3.5-2.3,5.5-1.9
		c1.1,0.1,2.2-0.3,3-1c0.2-0.2,1.8-1.7,0.9-1.9L120.1,224.4z"></path><path class="st3" d="M134.5,239.7h8.1c1.2,0,1.4-1.4,1-2.2c-0.5-1.1-1.6-1.9-2.8-2h-8.1c-1.2,0-1.4,1.4-1,2.2
		C132.1,238.9,133.2,239.6,134.5,239.7L134.5,239.7z"></path><path class="st3" d="M149.5,227.1v8.4c0,0.6,0.9,0.9,1.4,1c0.8,0.2,1.7,0.1,2.5-0.3c0.8-0.5,1.7-0.8,2.6-1.1
		c0.6-0.2,1.3-0.3,1.9-0.1c0.6,0.3,0.9,1.2,1.2,1.8c0.4,1,0.8,2,1,3c0.3,0.9,0.2,1.8-0.3,2.6c-0.6,0.7-1.2,1.4-1.9,2
		c-0.4,0.3-0.7,0.6-1.1,0.9c-0.1,0-0.3,0.1-0.4,0.2c0.1-0.2,0.8,0.1,0.6,0c-0.3-0.2-0.7-0.4-1-0.5c-0.4-0.3-0.9-0.7-1.3-1
		c-1.1-0.6-2.4-0.6-3.5-0.1c-0.8,0.4-1.5,1.3-0.6,2c1.2,1.1,2.6,1.9,4.2,2.2c1.9,0.3,3.9-0.1,5.6-1.2c2.3-1.5,5.4-4.1,4.9-7.1
		c-0.3-1.5-0.7-3-1.4-4.4c-0.5-1.3-1.5-2.4-2.9-2.9c-3.2-1.2-7.4,0-10.3,1.6l3.9,0.7v-8.3c0-1.1-2-1.2-2.7-1.1
		C150.9,225.4,149.5,225.9,149.5,227.1L149.5,227.1z"></path><path class="st3" d="M154.1,227.2h9.1c0.1,0,0.7,0,0.8-0.2s-0.6-0.5-0.6-0.5c-1.1-0.5-2.3-0.7-3.5-0.7h-9.1c-0.1,0-0.7,0-0.8,0.2
		s0.6,0.4,0.6,0.5C151.8,226.9,152.9,227.2,154.1,227.2L154.1,227.2z"></path><path class="st3" d="M179.3,226.8c-2.8-0.4-6-0.5-8.4,1.2c-2,1.3-2.7,4-1.6,6.1c1.4,2.7,4.3,4.3,7.3,4.2c2.7-0.1,5.1-1.5,6.5-3.8
		c1.4-2.1,2-4.8,0.7-7.1l-4.9-0.2c2.5,3.1,4,6.9,4.6,10.8c0.1,1,0,1.9-0.4,2.8c-0.5,0.8-1.1,1.4-1.8,1.9c-0.7,0.6-1.5,1-2.4,1.4
		c-0.5,0.2-0.5,0-0.2,0.1c0.2,0.1,0.3,0.1,0.5,0.2c-0.1,0-0.4-0.3-0.4-0.4c-1-0.7-2.2-1-3.3-0.9c-0.6,0.1-1.9,0.4-1.1,1.2
		c2.1,2,5.8,2.3,8.4,1.4c2.1-0.8,4.5-2.3,5.4-4.4s0-5.1-0.7-7.3c-0.8-2.4-2-4.7-3.6-6.8c-0.8-0.8-1.9-1.2-2.9-1.1
		c-0.4,0-2.4,0.1-1.9,1c0.9,1.8,0.8,3.9-0.3,5.6c-0.5,1-1.2,1.8-2.1,2.5c-0.4,0.3-0.8,0.6-1.3,0.8c-0.3,0.1-0.7,0.1,0,0.1
		c0.5,0.1,0.4,0.1,0.4,0s-0.8-0.8-1-1c-0.3-0.5-0.6-1-0.8-1.5c-0.4-1-0.3-2.1,0.2-3.1c1.1-1.8,3.1-2.1,4.9-1.9
		c0.6,0.1,2.4,0.3,2.6-0.6S179.7,226.9,179.3,226.8L179.3,226.8z"></path><path class="st3" d="M191.8,242.8c0,0.1,0,0.3,0,0.4c0,0.3,0,0.6,0.1,0.9c0.1,0.6,0.4,1.2,0.8,1.7c0.4,0.6,0.9,1,1.5,1.4
		c0.5,0.3,1.1,0.5,1.8,0.6c0.3,0,0.6,0,0.8-0.1c0.3-0.1,0.6-0.2,0.8-0.3c0.2-0.1,0.4-0.3,0.6-0.5c0.2-0.2,0.3-0.4,0.5-0.7
		c0.1-0.1,0.1-0.2,0.1-0.3c0.1-0.3,0.1-0.5,0.1-0.8c0-0.5-0.1-0.9-0.3-1.3c-0.1-0.2-0.2-0.4-0.4-0.6c-0.2-0.2-0.4-0.4-0.6-0.6
		c-0.3-0.3-0.5-0.5-0.9-0.6c-0.3-0.2-0.6-0.3-0.9-0.4c-0.5-0.1-1-0.2-1.5-0.2c-0.3,0-0.5,0-0.8,0.1c-0.2,0-0.5,0.2-0.6,0.4
		c-0.2,0.2-0.3,0.4-0.3,0.7c-0.1,0.3-0.1,0.5,0,0.8c0.3,1.2,1.3,2.2,2.6,2.4c0.3,0,0.5,0,0.8,0.1l-0.6-0.1l0.4,0.1l-0.6-0.3
		c0.1,0,0.2,0.1,0.2,0.1l-0.5-0.4c0.1,0,0.1,0.1,0.1,0.1l-0.4-0.5c0,0,0.1,0.1,0.1,0.1l-0.3-0.5c0,0.1,0.1,0.1,0.1,0.2l-0.2-0.6
		c0,0.1,0,0.1,0.1,0.2l-0.1-0.5c0,0.1,0,0.2,0,0.3l0.1-0.5c0,0.1-0.1,0.3-0.2,0.4l0.3-0.4c-0.1,0.1-0.2,0.3-0.3,0.4l0.4-0.3
		c-0.1,0.1-0.3,0.2-0.4,0.2l0.5-0.2c-0.1,0-0.2,0-0.3,0.1h0.5h-0.2l0.6,0.1l-0.3-0.1l0.6,0.3c-0.1,0-0.1-0.1-0.2-0.1l0.5,0.4
		l-0.2-0.2l0.4,0.5c-0.1-0.1-0.1-0.2-0.2-0.3l0.3,0.5c-0.1-0.1-0.1-0.2-0.2-0.4l0.2,0.6c-0.1-0.2-0.1-0.3-0.1-0.5v0.5
		c0-0.2,0-0.3,0-0.5c0-0.3,0-0.6-0.1-0.8c-0.1-0.3-0.2-0.6-0.4-0.8c-0.2-0.3-0.4-0.5-0.7-0.7c-0.2-0.2-0.5-0.4-0.8-0.5
		c-0.5-0.2-1.1-0.2-1.6,0l-0.4,0.3C191.9,242.2,191.8,242.5,191.8,242.8L191.8,242.8z"></path><path class="st3" d="M210.3,230c0.4-1.4,1.5-2.5,2.9-2.9c0.2,0,0.3-0.1,0.5-0.1h0.2l-2.6-0.3c0.3,0.2,0.7,0.3,1.1,0.5
		c0.7,0.5,1.2,1.1,1.6,1.7c0.8,1.3,1.1,2.8,0.9,4.3c-0.4,1.7-1.8,2.9-3.6,3.1c-0.3,0.1,0.3,0.3,0.2,0.2c0.4,0.1,0.8,0.2,1.2,0.3
		c1,0.2,2.1,0.3,3.1,0.3c0.9-0.1,1.7-0.3,2.6-0.4c0.2,0,0.5,0,0.7-0.1l-2.1-0.3l0.2,0.1c0.3,0.2,0.6,0.4,0.8,0.6
		c1.1,1.1,1.5,2.8,0.9,4.2c-0.6,1.4-1.8,2.6-3.2,3.2c-0.8,0.4-1.6,0.6-2.4,0.8c-0.4,0.1-0.9,0.2-1.3,0.2c-0.3,0-0.9-0.1,0.1,0.1
		s0.4,0,0.1-0.1c-1.1-0.3-2.3-0.4-3.5-0.4c-0.2,0-0.7-0.1-0.8,0.1s0.7,0.3,0.7,0.3c3.1,0.9,6.4,1.1,9.5,0.5c2.3-0.5,4.8-1.9,5.7-4.2
		c0.7-2.2-0.4-4.5-2.5-5.3c-1.8-0.6-3.7-0.9-5.6-0.9c-1.5,0.1-2.9,0.2-4.4,0.5l4.5,0.8c2.2-0.2,3.8-2,3.8-4.2c0-2-1-4-2.6-5.2
		c-0.9-0.6-1.9-1-3-1.2c-1.6-0.4-3.2-0.5-4.9-0.4c-1.9,0.1-3.5,1.4-4.1,3.2C205.4,229.6,210.2,230.7,210.3,230L210.3,230z"></path><path class="st3" d="M233.6,225.8c-2.9-0.1-6.8,0.4-7.4,3.8s2.3,6,4.9,7.6c1.5,0.8,3.1,1.6,4.7,2.2c0.9,0.4,2.1,1.2,2,2.4
		c0,0.5-0.4,0.6-0.8,0.8c-0.7,0.3-1.5,0.6-2.3,0.9c-0.7,0.3-1.4,0.5-2.1,0.6c-0.3,0-0.3,0-0.1,0c-0.3,0-0.3,0-0.1,0
		c0.2,0.1,0.6,0.4,0.3,0c-1.4-1.7-5.8-0.8-3.9,1.6s5.5,1.8,8.1,0.9c2.4-0.8,6-1.8,5.8-4.9c-0.2-3-3.3-4.6-5.8-5.6
		c-2-0.8-4.5-1.9-5.6-3.9c-0.5-0.9-0.4-2,0.3-2.7c0.3-0.3,0.7-0.4,1.1-0.4c0.3-0.1,0.1,0,0,0h0.5c0.3,0,0.7,0,1,0
		c0.9,0,2.3-0.5,2.1-1.7S234.6,225.7,233.6,225.8L233.6,225.8z"></path><path class="st3" d="M293.3,153.6l2.3-1.4l1.1-0.7c0.2-0.1,0.7-0.5,0.8-0.6l-1.9-0.2l0.2,0.1l-1-0.9l0.1,0.2l-0.4-1.1
		c0.1,0.7,0.1,1.4,0,2.1c0,0.7,0,1.4,0,2c0,1.5,0,2.9,0.1,4.4c0.2,2.9,0.5,5.8,1.1,8.7c0.2,1.3,1.4,2.3,2.7,2.3
		c1.2,0,2.1-0.9,2.2-2.1c0-0.1,0-0.2,0-0.3c-0.8-4.4-1.2-8.8-1.2-13.2c0-2.3,0.8-5.6-2.3-6.4c-1.4-0.3-2.6,0.7-3.8,1.4l-2.8,1.8
		C287.9,151.3,290.9,155.1,293.3,153.6L293.3,153.6z"></path><path class="st3" d="M314.6,147.7c-3,1.3-5.2,3.9-6,7.1c-0.9,4.1,0.6,8.4,3.1,11.5c1.1,1.5,2.8,2.5,4.7,2.8c1.6,0.4,3.4,0.4,5,0
		c3.2-1.2,3.4-5.3,3-8.2c-0.8-4.4-3.1-8.3-6.5-11.2c-0.1-0.1-0.6-0.5-0.8-0.4s-0.1,0.7-0.1,0.9c0.3,1.2,0.9,2.2,1.8,3.1
		c0.4,0.3,0.8,0.7,1.2,1.1l0.4,0.5l0.3,0.4c0.2,0.4-0.2-0.3,0.1,0.1c0.2,0.3,0.4,0.6,0.5,1c0.2,0.5,0.4,1.1,0.5,1.7
		c0.4,2.1,0.1,4.9-1.9,6.2c-1.2,0.7-2.6,0.9-4,0.6c-1.2-0.1-2.8-0.2-3.7-1c0,0-0.3-0.4-0.2-0.2c-0.1-0.1-0.2-0.2-0.2-0.3
		c-0.2-0.4-0.3-0.9-0.4-1.3c-0.2-1.3-0.1-2.7,0.3-4c0.9-2.7,2.9-5,5.6-6.1C318,151.7,315.8,147.2,314.6,147.7L314.6,147.7z"></path><path class="st3" d="M327.3,150.2c0.9-0.1,1.8-0.2,2.8-0.1c0.8,0,1.6,0.5,1.9,1.3c0.8,1.6,1.2,3.4,1.1,5.1c0.1,1.8-0.1,3.6-0.7,5.4
		c-0.3,0.7-0.6,1.4-1,2c-0.2,0.3-0.4,0.5-0.6,0.8l-0.4,0.4c0,0-0.4,0.3-0.1,0.1c-0.7,0.5-2.1,1.9-0.3,1.8l8.7-0.7
		c1.2-0.2,2.3-0.8,3.1-1.7c0.7-0.7,0.4-1.1-0.6-1.1l-8.7,0.7l-0.3,1.8c1.8-1.2,3.2-2.9,4.1-4.8c0.9-2.1,1.3-4.3,1.2-6.5
		c-0.1-2-0.2-4.3-1.4-6c-0.5-0.9-1.5-1.4-2.5-1.4c-1.3,0-2.5,0.1-3.8,0.2c-1.2,0.2-2.3,0.8-3.1,1.6
		C326.1,149.8,326.4,150.3,327.3,150.2L327.3,150.2z"></path><path class="st3" d="M350,162.1l-0.7,3.8c-0.1,0.2-0.1,0.5-0.1,0.8c0,0.3,0.1,0.6,0.2,0.9c0.2,0.6,0.6,1.2,1,1.6
		c0.4,0.4,0.8,0.6,1.4,0.6c0.4,0,0.8-0.4,0.9-0.8l0.7-3.8c0.1-0.2,0.1-0.5,0.1-0.8c0-0.3-0.1-0.6-0.2-0.9c-0.2-0.6-0.6-1.2-1-1.6
		c-0.4-0.4-0.8-0.6-1.4-0.6C350.5,161.4,350.1,161.7,350,162.1z"></path><path class="st3" d="M362.9,150.1h10.9l-1.8-1.1c-3.7,6.1-4.5,13.4-7.5,19.7c-0.6,1.4,4.2,1.6,4.9,0.2c3-6.4,3.8-13.7,7.5-19.7
		c0.5-0.9-1.5-1.1-1.8-1.2h-10.9c-0.8,0-2.6,0-3,0.9S362.4,150.1,362.9,150.1L362.9,150.1z"></path><path class="st3" d="M384.8,162.8c-0.9,2.1-1.7,4.3-2.3,6.5c-0.1,0.6,0,1.2,0.2,1.8c0.3,0.6,0.8,1.1,1.4,1.3c0.6,0.2,1.2,0.2,1.7,0
		c0.5-0.3,0.9-0.7,1.1-1.3c0.5-2,1.2-3.9,2-5.8l-0.2,0.5l0.1-0.2c0.2-0.2,0.2-0.5,0.3-0.8c0.1-0.3,0-0.6,0-0.9
		c-0.2-0.6-0.6-1.2-1.1-1.6c-0.5-0.4-1.1-0.5-1.7-0.5C385.6,161.9,385.1,162.3,384.8,162.8L384.8,162.8z"></path><path class="st3" d="M403.7,151.8c0.2-0.4,0.5-0.8,1-0.9c-0.2,0.1,0.4,0,0.4-0.1c0.6-0.1-0.3-0.1,0.4,0c0.4,0.1,0.1,0.1,0.1,0
		c0.2,0.3,0.4,0.7,0.5,1c0.2,0.5,0.3,1.1,0.5,1.6c0.2,1,0.3,2.1,0.3,3.1c-0.2,3.7-2.2,7.6-5.6,9.1c-0.9,0.4-1.7,1.1-1.2,2.2
		c0.6,1,1.7,1.5,2.9,1.3c4.3-0.8,8.6-1.1,13-0.9c1,0.1,2.5-0.4,2.6-1.6s-1.3-2-2.3-2c-4.8-0.3-9.6,0-14.4,0.9l1.6,3.5
		c5.6-2.5,9-8.4,8.2-14.5c-0.3-3-1.4-6.4-4.7-7.2c-2.9-0.7-6.8,0.1-8.1,3C397.9,152.9,402.7,154,403.7,151.8L403.7,151.8z"></path><path class="st3" d="M425.4,152.1l4.4-2.3l-4-0.7l1.7,19.5c0.1,1.2,1.9,1.3,2.8,1.1c1-0.2,2.3-0.9,2.2-2.1l-1.7-19.5
		c-0.1-0.7-0.9-1.1-1.5-1.2c-0.9-0.1-1.7,0-2.5,0.5l-4.4,2.3c-0.7,0.3-1.1,1.1-0.8,1.8c0.1,0.2,0.2,0.4,0.4,0.5
		C423,152.8,424.3,152.8,425.4,152.1L425.4,152.1z"></path><path class="st3" d="M439.2,149.1v6.7c0,1.5,1.9,1.9,3,1.9c0.7-0.1,1.4-0.3,2.1-0.6c0.4-0.2,0.8-0.4,1.1-0.5c-0.4,0.1,0.5,0,0,0
		c0,0,0.8,0.1,0.4,0c0.3,0.1,0.6,0.2,0.8,0.3c0.8,0.5,1.5,1.2,2,2c0.3,0.4,0.6,0.9,1,1.3c0.2,0.2,0.5,0.6,0.5,0.9
		c0,0.7-1,1.5-1.5,1.9c-0.3,0.2-0.6,0.4-0.9,0.6c-0.3,0.2-0.6,0.4-1,0.5c-0.2,0.1-0.5,0.2-0.7,0.2s-0.7,0.2-0.3,0.1
		c-0.2,0-0.5,0.1-0.7,0.1s-0.8,0.1-0.3,0c-0.2,0-0.5,0-0.7,0h-0.4c0.3,0-0.4-0.1-0.5-0.1c-0.3-0.1-0.5-0.1-0.8-0.2
		c-1-0.3-2.7,0-3.1,1s0.7,1.9,1.6,2.2c4.1,1.3,8.7,0.4,11.9-2.4c1.1-0.8,1.9-2.1,2.2-3.5c0.2-1.5-1-2.9-1.9-4c-0.8-1.2-1.9-2.2-3-3
		c-1.4-0.9-3-1.4-4.7-1.4c-0.9,0-1.9,0.2-2.7,0.5c-0.4,0.2-0.8,0.4-1.2,0.6c-0.4,0.3,0.2,0.1-0.3,0.1l3.1,1.9v-6.7
		c0-1.2-1.4-1.8-2.4-1.9S439.2,147.8,439.2,149.1L439.2,149.1z"></path><path class="st3" d="M442.4,150.7H453c1,0,2.6-0.7,2.7-1.9s-1.1-1.8-2.2-1.8h-10.6c-1,0-2.6,0.7-2.7,1.9S441.3,150.7,442.4,150.7z"></path><path class="st3" d="M433.7,290.7l15.1,9.1l0.5-1.4c-3.9,3.2-8.5,5.6-13.4,7c-1.2,0.3-2.2,0.9-3,1.8c-0.5,0.7-0.4,1.3,0.6,1
		c6.9-2,13.2-5.3,18.8-9.9c0.3-0.3,1.1-1,0.5-1.4l-15.1-9.1C436.5,287.1,432.7,290,433.7,290.7L433.7,290.7z"></path><path class="st3" d="M426,284.6c-1.8,7.5-4,14.9-6.4,22.1c-0.2,0.7,1.7-0.1,1.9-0.1c0.7-0.3,2.3-0.9,2.5-1.8
		c2.4-7.3,4.6-14.7,6.4-22.1c0.2-0.7-1.7,0.1-1.9,0.1C427.9,283.2,426.2,283.8,426,284.6L426,284.6z"></path><path class="st3" d="M404.8,282.3v7.2c0,0.4,0.5,0.8,0.9,1c0.6,0.2,1.2,0.3,1.8,0.2c1-0.2,2.3-0.7,2.3-1.9v-7.2
		c0-0.4-0.5-0.8-0.9-1c-0.6-0.2-1.2-0.3-1.8-0.2C406.1,280.6,404.8,281.1,404.8,282.3z"></path><path class="st3" d="M396,280v6.8c0.1,0.4,0.3,0.7,0.5,1c0.3,0.5,0.7,1.1,1.1,1.6c0.3,0.4,0.6,0.8,1,1.1c0.1,0.1,0.3,0.3,0.3,0.1
		v-6.8c-0.1-0.4-0.3-0.7-0.5-1c-0.3-0.5-0.7-1.1-1.1-1.6c-0.3-0.4-0.6-0.8-1-1.1C396.3,280.1,396,279.8,396,280z"></path><path class="st3" d="M367.1,281.3l-11.8,16c-0.2,0.3,3.9,2.1,4.4,2.1c4.4,0.4,8.7,0.1,13-0.8h0.1c0.3-3.8,0.2-7.7-0.3-11.5
		c-0.1-0.5-1.7-1.1-2.1-1.3c-0.8-0.3-1.6-0.6-2.4-0.8v19.8c0,0.5,1.8,1.2,2.1,1.3c0.8,0.3,1.6,0.6,2.4,0.8v-19.8L368,285
		c0.3,2,0.4,4,0.5,6c0,1.1,0,2.2,0,3.2c0,0.5,0,0.9-0.1,1.4c-0.1,0.8-0.3,1-1,1.1c-3.9,0.8-7.9,1-11.9,0.6l4.4,2.1l11.8-16
		C371.8,283.4,367.6,280.8,367.1,281.3L367.1,281.3z"></path><path class="st3" d="M378.8,289.4l8.6,0.1l-2.5-0.7c-3.2,5.1-6.8,10-10.7,14.6c-0.6,0.7,2.8,0.9,3,0.9c4.2-0.1,8.5-0.6,12.6-1.5
		c0.1,0,0.7-0.1,0.8-0.4s-0.6-0.4-0.7-0.5c-1.2-0.3-2.4-0.4-3.5-0.2c-3.4,0.8-6.9,1.2-10.3,1.4l3,0.9c4.1-4.6,7.7-9.6,11-14.9
		c0.3-0.4-2.5-0.7-2.5-0.7l-8.6-0.1c-0.4,0-2.4-0.2-2.5,0.5S378.5,289.4,378.8,289.4L378.8,289.4z"></path><path class="st3" d="M339.4,299.3c-0.6,0.5-0.9,1.2-0.9,2c0,0.8,0.3,1.5,0.8,2l0.3,0.1c0.2,0,0.4,0,0.7,0c0.5,0,1,0,1.5-0.1
		c0.4-0.1,0.8-0.1,1.2-0.2c0.2,0,0.5-0.1,0.7-0.2c0.2,0,0.3-0.1,0.4-0.2l1.8-1.7c0.1-0.1,0.1-0.2,0-0.2c-0.9-0.8-2.1-1.3-3.3-1.3
		c-0.6,0-1.2,0-1.8,0.1c-0.6,0.1-1.2,0.2-1.7,0.4c-0.1,0-0.8,0.2-0.7,0.4s0.6,0.2,0.8,0.2h0.1c0.2,0,0.1,0-0.2,0h0.2l0.4,0.1
		l-0.3-0.1c0.6,0.2,1.2,0.5,1.7,1v-0.2l-1.9,1.8l4.8-0.6l-0.1-0.1l0.1,0.1c-0.7-0.8-0.8-2-0.3-2.9l-0.1,0.1c0.1-0.3,0.3-0.5,0.6-0.7
		c0.2-0.2-0.2-0.3-0.3-0.3c-0.5-0.1-1-0.1-1.5,0c-0.6,0.1-1.3,0.2-1.9,0.3C340.1,299,339.7,299.1,339.4,299.3L339.4,299.3z"></path><path class="st3" d="M286.6,285.8c0.2-0.4,0.5-0.8,0.7-1.2s0.2-0.1-0.1-0.1c-0.9,0.2-0.4,0-0.2,0.3c0.2,0.2,0.4,0.5,0.5,0.7
		c0.3,0.8,0.5,1.6,0.6,2.4c0.2,1.2,0.3,2.4,0.3,3.5c0,4.7-4.1,8.1-7.2,11.1c-1.1,1.1-0.3,2.7,1.3,2.3c3.6-0.9,7.3-1.1,10.9-0.6
		c1.3,0,2.4-0.6,3.1-1.7c0.6-1,0-1.8-1-1.9c-4-0.5-8.1-0.3-12,0.6l1.3,2.3c2.4-2.3,4.6-4.8,6.5-7.5c1.6-2.7,2.2-5.9,1.7-9
		c-0.2-2.2-0.6-5.3-3.1-6c-3.2-1-6,1.9-7.3,4.4c-0.4,0.5-0.3,1.3,0.3,1.7c0.2,0.1,0.5,0.2,0.7,0.2C284.8,287.6,286,287,286.6,285.8
		L286.6,285.8z"></path><path class="st3" d="M299.3,284.7h7.6c0.6,0,1.2,0,1.8,0s0.5,0,0.4,0.5c-0.1,0.3-0.2,0.5-0.4,0.8c-0.5,1.1-1,2.2-1.5,3.4
		c-1.9,4.4-3.6,9-5,13.6c0,0.2,0.9-0.1,0.8,0c0.6-0.2,1.1-0.3,1.7-0.6c0.6-0.2,1.9-0.6,2.2-1.3c2-6.2,4.3-12.3,7.1-18.1
		c0.1-0.1,0-0.2-0.1-0.2l-10.2-0.1c-1,0.1-2,0.4-2.9,1c-0.5,0.2-0.9,0.4-1.3,0.8C299.4,284.4,299,284.7,299.3,284.7L299.3,284.7z"></path><path class="st3" d="M323.1,287.8c0.9-0.3,1.8-0.4,2.8-0.4c0.4,0,0.8,0,1.1,0.1c0,0-0.2-0.1-0.3-0.1s-0.1-0.3-0.1-0.1
		s0.2,0.4,0.2,0.6c0,0.4,0,0.8-0.1,1.2c-0.2,0.9-0.6,1.8-1.1,2.7c-2,3.3-4.5,6.3-7.4,9c-1.3,1.3,0.9,3.8,2.3,3.8l7.5,0.1
		c3.1,0,1.4-4.2-1-4.2l-7.5-0.1l2.3,3.9c1.8-1.8,3.5-3.7,5-5.8c1.5-2,3.2-4.1,3.8-6.5c0.9-2.8-0.1-5.9-2.5-7.6
		c-2.4-1.6-5.7-1-8.2-0.2c-1.2,0.4-0.7,2.1-0.2,2.8C320.7,287.7,321.9,288.2,323.1,287.8L323.1,287.8z"></path><path class="st3" d="M269,299.7c0,0.7,0.1,1.5,0.1,2.2v-0.5c0,1.3-0.1,2.5-0.3,3.8c-0.1,1.3,0.8,2.4,2,2.7c1.1,0.3,2.5-0.1,2.7-1.4
		c0.3-2.2,0.4-4.4,0.3-6.5c-0.1-0.6-0.4-1.1-0.9-1.5c-0.5-0.4-1.1-0.7-1.8-0.7c-0.6-0.1-1.1,0.1-1.6,0.5
		C269.1,298.6,268.9,299.2,269,299.7L269,299.7z"></path><path class="st3" d="M245.4,286.3h9.4l-1.3-0.9c-1.9,6.3-4.1,12.4-6.7,18.4c-0.5,1.2,4.3,1,4.8-0.3c2.6-6,4.8-12.2,6.7-18.4
		c0.2-0.7-0.8-0.9-1.3-0.9h-9.4c-1,0-2.6,0.1-3.3,0.9S244.7,286.3,245.4,286.3L245.4,286.3z"></path><path class="st3" d="M228.9,300.9c-0.1,0.3-0.2,0.7-0.1,1.1c0,0.1,0.1,0.3,0.1,0.4c0.1,0.2,0.2,0.4,0.4,0.6c0.8,0.9,1.8,1.6,2.9,2
		c0.8,0.4,1.7,0.5,2.6,0.4c0.4-0.1,0.7-0.3,0.9-0.6c0.2-0.2,0.4-0.5,0.4-0.9c0-0.2,0-0.4,0-0.7c-0.1-0.2-0.2-0.5-0.3-0.7
		c-0.1-0.2-0.3-0.4-0.5-0.6c-0.4-0.3-0.8-0.6-1.2-0.9c-1-0.7-2.2-1.1-3.5-1.2c-0.3,0-0.5,0-0.8,0.1c-0.2,0-0.3,0.1-0.4,0.2
		c-0.1,0-0.2,0.1-0.2,0.2c0,0,0,0,0,0c0,0.1,0,0.3,0.1,0.4c0.1,0.2,0.3,0.3,0.5,0.5c0.2,0.2,0.4,0.4,0.7,0.5
		c0.5,0.3,1.1,0.6,1.8,0.8l0.5,0.1c0.2,0.1,0.5,0.1,0.7,0c0.2-0.1,0.4-0.2,0.6-0.2l-0.3,0c0.1,0,0.3,0,0.4,0h-0.4h0.2l-0.5-0.1
		l0.2,0l-0.6-0.2l0.1,0.1l-0.6-0.3l0.1,0.1l-0.6-0.3l0.1,0.1l-0.5-0.3l0.1,0.1l-0.4-0.3c0.1,0,0.1,0.1,0.1,0.1l-0.3-0.3
		c0.1,0.1,0.2,0.2,0.2,0.3l-0.1-0.3c0.1,0.2,0.1,0.4,0.1,0.6v-0.2c0,0.4-0.2,0.9-0.6,1.1l0.2-0.1c-0.2,0.2-0.4,0.3-0.7,0.3l0.3,0
		c-0.1,0-0.2,0-0.3,0h0.4h-0.2l0.5,0.1h-0.1l0.6,0.2l-0.1,0l0.6,0.3h-0.1l0.6,0.3l-0.1-0.1l0.5,0.3l-0.1-0.1l0.4,0.3l-0.2-0.2
		l0.3,0.3c-0.1-0.1-0.2-0.2-0.2-0.4l0.1,0.3c-0.1-0.2-0.2-0.5-0.2-0.8v0.2c0-0.2,0-0.3,0.1-0.5c0.1-0.1,0-0.3-0.1-0.4
		c-0.1-0.2-0.2-0.3-0.4-0.5c-0.2-0.2-0.4-0.4-0.6-0.5c-0.3-0.2-0.5-0.4-0.8-0.5c-0.5-0.3-1.1-0.5-1.7-0.6
		C229.5,300.8,229,300.6,228.9,300.9L228.9,300.9z"></path><path class="st3" d="M172.8,288l2-1.2l0.9-0.6l0.5-0.3c0.5-0.2,0.4-0.3-0.1,0l-1.2-0.2l0.2,0.1l-0.9-0.7c-0.1-0.6-0.1-0.7-0.1-0.3
		v0.4c0,0.5,0,0.9,0,1.4v16.9c0,2.9,4.9,2.4,4.9-0.4v-14.8c0-1.2,0-2.3,0-3.5c0-1.3-0.3-2.5-1.6-3s-2.8,0.1-4,0.8l-3.1,1.9
		c-1.1,0.6-1.5,1.9-0.9,2.9c0,0,0,0,0,0.1C170.2,288.5,171.7,288.7,172.8,288L172.8,288z"></path><path class="st3" d="M192.9,284.9c0.2-0.2,0.2-0.2-0.1-0.2c0.2,0,0.3,0.1,0.4,0.2c0.4,0.8,0.6,1.7,0.6,2.6c0.2,1.2,0.1,2.4-0.1,3.6
		c-0.1,0.6-0.5,1.7-1.2,1.9l2.9,3.3c0.3-0.4,0.4-0.3,0.8-0.4c-0.3,0.1,0.4,0.1,0.1,0c0,0,0.8,0.2,0.4,0.1c0.9,0.5,1.3,1.6,1,2.5
		c-0.4,3-3.5,4.5-6.1,5.4c-1,0.5-1.4,1.7-1,2.7c0,0.1,0.1,0.2,0.1,0.3c0.8,1.1,2.2,1.5,3.4,1c4.7-1.7,9.6-5.5,8.3-11.2
		c-1.1-4.9-8.2-7-11.3-2.8c-1.2,1.7,1.1,3.9,2.9,3.3c4.8-1.5,5.3-6.6,4.6-10.9c-0.2-2.1-1.3-4.1-3.2-5.2c-1.8-1-4.5-1.1-6.1,0.4
		C187.2,283.8,191,286.9,192.9,284.9L192.9,284.9z"></path><path class="st3" d="M205.3,286.9h12.4l-3-3.6c-3.5,6.3-6.5,12.9-9.2,19.6c-0.6,1.5,3.3,4.5,4,2.8c2.5-6.5,5.5-12.9,8.9-19
		c0.8-1.4-1.7-3.6-3-3.6H203c-1.1,0-0.8,1.2-0.4,1.8C203.1,286,204.2,286.7,205.3,286.9L205.3,286.9z"></path><path class="st3" d="M76.6,334.1c-2.2-0.5-4.5-0.3-6.7,0.5c-1.9,1-3.4,2.8-3.9,4.9c-1.2,4.3-1.1,8.8,0.2,13c0.5,2,1.4,3.9,2.6,5.5
		c1.5,1.7,3.8,2.3,5.9,1.5c2.2-0.7,3.8-2.7,5.2-4.5c1.3-1.7,2.3-3.6,3-5.6c1.3-4.2,0.8-9.1-2.4-12.4c-0.9-0.7-2.3-0.8-3.3-0.2
		c-0.7,0.4-1.9,1.6-1.1,2.5c4.6,4.6,2.4,11.5-1.3,15.8c-0.2,0.3-0.5,0.6-0.8,0.8c-0.1,0.1-0.6,0.4-0.6,0.5s0.6-0.1,0.6,0
		c-0.2-0.1-0.4-0.2-0.6-0.4c-1-1.1-1.6-2.4-2-3.8c-1.1-3.1-1.5-6.5-1.2-9.8c0.2-1.5,0.3-3.5,1.3-4.8c0.7-1,2.5-0.4,3.5-0.2
		c1.3,0.1,2.5-0.5,3.1-1.6C78.7,334.8,77.6,334.2,76.6,334.1L76.6,334.1z"></path><path class="st3" d="M89.1,350.9c-0.5,0.3-0.7,0.8-0.7,1.4c0,0.2,0,0.3,0.1,0.5c0.1,0.2,0.2,0.4,0.3,0.6c0.1,0.1,0.3,0.3,0.4,0.4
		c0.3,0.3,0.7,0.6,1,0.8c0.8,0.6,1.7,1.2,2.7,1.6c0.6,0.3,1.2,0.2,1.7-0.1c0.5-0.4,0.5-1,0.2-1.5c-0.3-0.4-0.7-0.8-1.1-1.1
		c-0.4-0.3-0.8-0.6-1.2-0.9c-0.5-0.4-1.1-0.7-1.7-1c-0.3-0.2-0.7-0.3-1-0.3c-0.2,0-0.4,0-0.6,0.1c-0.2,0.1,0.5,0.7,0.5,0.6
		c0.4,0.4,0.9,0.8,1.4,1.1c0.5,0.3,1,0.6,1.5,0.9c0.2,0.1,0.5,0.3,0.8,0.2h0.1h-0.1c0.2,0,0.3,0,0.5,0l-0.3-0.1l0.2,0l-0.4-0.1h0.1
		c-0.6-0.3-1.1-0.6-1.6-1c-0.3-0.2-0.6-0.4-0.8-0.6l-0.2-0.1l0,0l-0.3-0.3c0,0,0.1,0.1,0.1,0.1l-0.2-0.2c0.1,0.2,0.2,0.3,0.2,0.5
		v-0.1c0.1,0.6-0.3,1.1-0.8,1.2h0.1c-0.2,0.1-0.5,0.1-0.7,0l0.3,0.1c-0.1,0-0.1,0-0.2-0.1l0.4,0.2h-0.1c0.4,0.2,0.8,0.4,1.1,0.7
		c0.4,0.3,0.8,0.5,1.2,0.9c0,0,0.5,0.4,0.3,0.3l0.3,0.3c0,0-0.1-0.1-0.1-0.1l0.2,0.2c-0.1-0.2-0.2-0.4-0.2-0.6v0.1
		c-0.1-0.6,0.2-1.2,0.7-1.5c0.1-0.1-0.5-0.7-0.5-0.6c-0.4-0.4-0.9-0.8-1.4-1.1c-0.5-0.3-1-0.6-1.5-0.9l-0.4-0.2
		C89.4,351,89.2,351,89.1,350.9L89.1,350.9z"></path><path class="st3" d="M110,334.7c-3.1,4.1-5.6,8.6-7.2,13.5c-0.2,0.6,0.9,1.8,1.2,2.2c0.5,0.5,1.2,1.5,2,1.5
		c3.6,0.2,7.3,0.2,10.9,0.1c0.8,0-0.3-1.7-0.5-1.9c-0.4-0.5-0.9-1-1.4-1.4c-0.3-0.2-0.7-0.6-1.1-0.6c-3.6,0.1-7.3,0.1-10.9-0.1
		l3.2,3.6c1.7-4.7,4-9.1,7.1-13.1c0.5-0.6-0.8-1.9-1.1-2.3C112,336,110.4,334.2,110,334.7L110,334.7z"></path><path class="st3" d="M113.2,338.2c-0.1,6.9-0.1,13.8,0.1,20.8c0,1.6,5,1.7,5,0.2c-0.2-6.9-0.2-13.8-0.1-20.8
		C118.3,336.9,113.3,336.7,113.2,338.2L113.2,338.2z"></path><path class="st3" d="M126.8,352.1h9c0.9,0,1.6-0.7,1.6-1.6c0-0.2,0-0.4-0.1-0.6c-0.5-1.2-1.7-2-2.9-2h-9c-0.9,0-1.6,0.7-1.6,1.6
		c0,0.2,0,0.4,0.1,0.6C124.4,351.4,125.6,352.1,126.8,352.1z"></path><path class="st3" d="M146.8,337.5c-2.9,2.6-4.7,6.3-5,10.2c-0.2,3.9,1.4,7.7,4.4,10.3c3.1,2.6,7.6,3.7,11.2,1.8
		c3.3-1.9,5.2-5.4,4.9-9.2c-0.3-4.9-3.9-8.9-8-11.1c-0.6-0.4-1.8-0.5-1.6,0.5s1.5,2,2.3,2.5c0,0,0.5,0.3,0.6,0.4
		c-0.2-0.2,0.5,0.4,0.5,0.5c-0.2-0.2,0.4,0.5,0.5,0.5s0.3,0.5,0.4,0.6c0.7,1.1,1.1,2.3,1.2,3.6c0.2,3-1.2,5.9-3.6,7.7
		c-1.2,0.8-2.6,1.3-4,1.3c-0.6,0-1.3,0-1.9-0.2c-0.3-0.1-0.5-0.1-0.8-0.3c0,0-0.4-0.2-0.2-0.1c0,0-0.6-0.4-0.4-0.2s-0.3-0.3-0.1-0.1
		s-0.1-0.1-0.1-0.1c-0.1-0.2-0.3-0.3-0.4-0.5c-0.3-0.5-0.5-1-0.7-1.5c-0.4-1.3-0.6-2.7-0.4-4c0.3-3.6,2-6.9,4.7-9.3
		C151.5,339.9,147.9,336.5,146.8,337.5L146.8,337.5z"></path><path class="st3" d="M167.3,351.9c-0.4,0.7-0.6,1.6-0.6,2.4c0,0.8,0.2,1.6,0.6,2.3c0.4,0.7,1.1,1.3,1.8,1.7
		c0.8,0.4,1.6,0.6,2.4,0.6c0.9,0,1.8-0.2,2.6-0.7c0.8-0.4,1.4-1,1.8-1.8c0.5-0.9,0.6-1.9,0.3-2.9c-0.2-0.8-0.7-1.5-1.3-2
		c-0.9-0.7-1.9-0.9-3-0.8c-1.1,0.1-2.2,0.6-2.9,1.4c-0.4,0.4-0.7,1-0.7,1.6c0,0.6,0.3,1.2,0.8,1.5c0.5,0.4,1.1,0.6,1.7,0.5
		c0.7,0,1.3-0.3,1.8-0.8c0.1-0.1,0.2-0.2,0.2-0.2l-0.5,0.4c0.1-0.1,0.2-0.2,0.4-0.2l-0.6,0.3c0.1-0.1,0.2-0.1,0.4-0.1l-0.7,0.1
		c0.2,0,0.3,0,0.5,0h-0.6c0.2,0,0.3,0,0.4,0.1l-0.6-0.2c0.1,0,0.2,0.1,0.4,0.2l-0.5-0.3c0.1,0.1,0.2,0.2,0.4,0.3l-0.4-0.4
		c0.1,0.1,0.2,0.3,0.3,0.4l-0.3-0.5c0.1,0.2,0.1,0.4,0.2,0.5l-0.1-0.6c0,0.2,0,0.3,0,0.5l0.1-0.6c0,0.2-0.1,0.3-0.1,0.4l0.2-0.5
		c-0.1,0.1-0.1,0.3-0.2,0.4l0.4-0.5c-0.1,0.1-0.2,0.3-0.4,0.4l0.5-0.4c-0.1,0.1-0.3,0.2-0.5,0.3l0.6-0.3c-0.2,0.1-0.4,0.1-0.6,0.2
		l0.6-0.1c-0.2,0-0.4,0.1-0.6,0h0.6c-0.2,0-0.4-0.1-0.7-0.1l0.6,0.2c-0.2-0.1-0.4-0.1-0.6-0.2l0.5,0.3c-0.2-0.1-0.4-0.2-0.5-0.4
		l0.4,0.4c-0.1-0.2-0.3-0.3-0.4-0.5l0.3,0.5c-0.1-0.2-0.2-0.5-0.3-0.8l0.1,0.6c0-0.3,0-0.5,0-0.8l-0.1,0.6c0-0.2,0.1-0.4,0.2-0.6
		l-0.2,0.5c0-0.1,0.1-0.2,0.1-0.3c0.3-0.5,0.4-1.2,0.2-1.7c-0.2-0.6-0.6-1-1.2-1.3C169.4,350.3,168,350.8,167.3,351.9L167.3,351.9z"></path><path class="st3" d="M193.5,336.9c-3.6-0.9-8-0.8-11,1.6c-2.3,1.8-4.6,6-1.4,8.1c1.8,1.1,3.9,1.7,6,1.8c2.1,0.2,4.2-0.1,6.1-0.9
		c2.9-1.4,4.1-4.9,2.7-7.8c0,0,0-0.1,0-0.1c-0.4-0.8-5-0.6-4.9-0.1c0.9,3.9,2.1,8,2.5,12c0.3,1.8,0,3.7-0.8,5.3
		c-0.4,0.7-0.9,1.3-1.6,1.9c-0.2,0.2-0.5,0.4-0.8,0.5c-0.2,0.1-0.4,0.2-0.6,0.3c-0.7,0.2-0.4,0.2,1,0.1c-1.1-0.3-2.3-0.3-3.4,0
		c-0.9,0.5,0.4,0.8,0.9,0.9c2.3,0.6,4.8,0.3,7-0.7c1.7-1.1,2.9-2.8,3.2-4.8c0.3-2.4,0.1-4.9-0.6-7.3l-1.8-8l-4.9-0.1
		c1,2,0.6,4.4-0.9,6c-0.3,0.4-0.7,0.7-1.1,1c-0.3,0.2-0.6,0.4-1,0.5c-0.1,0-0.6,0.1-0.7,0.2s0.2,0,0.4,0c-0.2-0.1-0.4-0.1-0.7-0.2
		c-0.6-0.2-1.2-0.5-1.6-0.9c-1.8-1.5-0.5-4.5,0.7-6c0.7-0.8,1.5-1.5,2.5-2c0.5-0.2,0.9-0.4,1.4-0.6c0.2,0,0.4-0.1,0.6-0.1
		c0,0.1-1-0.1-0.6,0c1.2,0.3,2.4,0.4,3.5,0.2C194.3,337.5,194.5,337.1,193.5,336.9L193.5,336.9z"></path><path class="st3" d="M204.4,350.5h7.4c0.3,0,0.6-0.1,0.5-0.5s-0.5-0.8-0.8-1c-0.9-0.8-2-1.3-3.2-1.4h-7.4c-0.3,0-0.6,0.1-0.6,0.5
		s0.5,0.8,0.8,1C202.2,349.9,203.3,350.4,204.4,350.5L204.4,350.5z"></path><path class="st3" d="M222.1,338.7c-2.7,1.9-4.3,4.9-4.4,8.1c0,3.6,1.5,7.1,4.2,9.4c1.3,1.1,2.8,2,4.5,2.3c1.6,0.3,3.4-0.2,4.5-1.4
		c1-1.2,1.7-2.5,2.1-4c0.7-1.8,1-3.7,0.9-5.6c-0.2-4.1-3.1-8.4-7.5-8.4c-1.2,0-1.2,1.8-0.9,2.5c0.3,1.2,1.4,2,2.6,2.1
		c0.3,0,0.6,0.1,0.9,0.2c0.4,0.2,0.2,0.1,0.1,0l0.3,0.2c0,0,0.4,0.4,0.2,0.1s0.2,0.3,0.2,0.3s0.2,0.3,0.1,0.1s0.1,0.1,0.1,0.2
		c0.2,0.2,0-0.1,0-0.1c0.1,0.1,0.1,0.3,0.2,0.4s0.1,0.4,0.1,0.1s0.1,0.2,0.1,0.3c0,0.3,0.1,0.5,0.1,0.8c0,1.3-0.3,2.5-0.7,3.7
		c-0.3,1-0.7,1.9-1.3,2.8c-0.4,0.7-1.2,1.1-2.1,1.1c-0.5,0-1-0.2-1.4-0.4c-0.4-0.2-0.8-0.4-1.1-0.7c-0.1-0.1-0.7-0.6-0.4-0.3
		c-0.1-0.2-0.3-0.3-0.4-0.5l-0.3-0.4c0.1,0.1,0.3,0.4,0,0c-0.2-0.3-0.3-0.5-0.4-0.8c0.2,0.4-0.1-0.2-0.1-0.3s-0.2-0.8-0.1-0.4
		c-0.1-0.3-0.1-0.5-0.1-0.8c0-0.1,0-0.2,0-0.3c0,0.3,0-0.2,0-0.2c0-2.3,1.2-4.5,3.1-5.9c1-0.7,0.7-2.1,0.2-3S223.1,338,222.1,338.7
		L222.1,338.7z"></path><path class="st3" d="M243.2,356c0,0.3,0.1,0.6,0.3,0.7c0.7,0.5,1.4,0.7,2.2,0.7c0.7,0.1,1.4,0.1,2.2,0c0.5,0,0.9-0.2,1.3-0.4
		c0.1-0.1,0.3-0.2,0.4-0.3c0.1-0.2,0.2-0.4,0.2-0.6c0.1-0.3,0-0.6-0.1-0.9c-0.1-0.4-0.3-0.7-0.5-1c-0.3-0.3-0.6-0.5-0.9-0.7
		c-1.3-0.5-2.7-0.7-4.1-0.5c-0.5,0-0.9,0.2-1.3,0.4c-0.2,0.1-0.4,0.3-0.6,0.4c-0.3,0.3-0.4,0.7-0.4,1.1c0.1,0.3,0.4,0.5,0.7,0.5
		c0.6,0.2,1.2,0.3,1.8,0.3c0.6,0,1.2,0,1.8-0.2l0.4-0.1c0.2-0.1,0.3-0.2,0.4-0.4c0-0.2,0-0.4,0.1-0.6l-0.1,0.2
		c0.1-0.2,0.3-0.4,0.4-0.5l-0.3,0.2c0.1,0,0.2-0.1,0.3-0.1l-0.4,0.1h0.2l-0.5,0.1l0,0h-0.2c-0.2,0-0.4,0-0.6,0h-0.2
		c0.1,0-0.8-0.1-0.5,0c-0.5-0.1-0.7-0.1-0.5-0.1h0.1l-0.5-0.1l0.2,0.1l-0.4-0.2c0.1,0.1,0.2,0.1,0.4,0.2l-0.2-0.2
		c0.3,0.2,0.6,0.6,0.7,0.9l-0.1-0.2c0.2,0.4,0.2,0.9,0,1.4l0.1-0.2c-0.1,0.1-0.2,0.3-0.3,0.4l0.3-0.2c-0.1,0-0.1,0.1-0.2,0.1
		l0.4-0.1h-0.1l0.5-0.1l0,0h0.2h0.2h0.6c-0.1,0,0.8,0.1,0.6,0c0.5,0.1,0.7,0.1,0.5,0.1h-0.1l0.5,0.1h-0.1l0.4,0.2
		c-0.1,0-0.1-0.1-0.2-0.1l0.2,0.2c-0.1-0.1-0.2-0.2-0.2-0.3l0.1,0.2c0-0.1,0-0.2,0-0.3c0-0.1-0.1-0.2-0.2-0.3
		c-0.2-0.1-0.3-0.2-0.5-0.2c-0.6-0.2-1.2-0.3-1.8-0.3c-0.6,0-1.2,0-1.8,0.2C243.6,355.7,243.2,355.8,243.2,356L243.2,356z"></path><path class="st3" d="M256.4,342.1h10.8l-3.5-3.4c-1.9,6.3-2.8,12.8-2.9,19.3c0,0.9,1.4,1.9,2,2.4c0.2,0.2,1.8,1.3,1.8,0.6
		c0-6.4,1-12.8,2.8-18.9c0.2-0.7-0.8-1.5-1.2-1.9c-0.6-0.5-1.5-1.5-2.4-1.5H253c-0.8,0,0.7,1.6,0.8,1.7
		C254.3,341,255.4,342.1,256.4,342.1L256.4,342.1z"></path><path class="st3" d="M275.2,347.9c3.4,0.2,6.9,0.1,10.3-0.2c0.5-0.1,1-0.2,1.5-0.4c0.6-0.2,1.2-0.4,1.8-0.7c0.2-0.1,0.9-0.3,1-0.5
		s-0.1-0.1-0.3-0.1c-3.3,0.3-6.5,0.4-9.8,0.2c-0.4,0-0.8,0.1-1.1,0.2c-0.6,0.2-1.2,0.4-1.8,0.6c-0.5,0.2-0.9,0.4-1.4,0.6
		C275.3,347.6,274.9,347.9,275.2,347.9L275.2,347.9z"></path><path class="st3" d="M298,341l5.3-2.3l-4.7-0.4l-0.7,18.8c0,0.9,5,1,5,0l0.7-18.8c0-0.5-1.6-0.6-1.8-0.6c-1-0.1-1.9,0-2.8,0.3
		l-5.3,2.4c-1,0.4,0.5,0.8,0.9,0.9C295.7,341.5,296.9,341.4,298,341z"></path></g></svg>