<svg transform="scale(1)" version="1.1" id="Layer_1" xmlns="http://www.w3.org/2000/svg" xmlns:xlink="http://www.w3.org/1999/xlink" x="0px" y="0px" viewBox="0 0 500 500" xml:space="preserve" class="show_show__wrapper__graphic__5Waiy "><title>React</title><style type="text/css">
	.st0{fill:#FFFFFF;}
	.st1{fill:#000005;}
	.st2{fill:#59BE4C;}
</style><g id="character"><path class="st0" d="M75,202.2c0,0-19.4-28.3-3.6-63.4s70.9-27.6,87.6-12.4s17.3,31.1,8.8,36.9s-22-16.3-22-16.3s-0.8,8.5-4.4,8.6
		c0,0,12.6,12.2-8.3,25.5l0.3,20.1L75,202.2z"></path><path class="st1" d="M77.4,201.8c-2.1-3.3-3.8-6.7-5.1-10.4c-3.3-8.6-4.9-17.7-4.6-26.9c0.2-5.9,1.2-11.8,2.9-17.5
		c1.5-5.2,3.7-10.1,6.7-14.6c4.5-6.4,10.7-11.3,18-14.2c1.7-0.7,3.5-1.3,5.3-1.8c1.6-0.4,3.7-0.9,5.1-1.1c3.7-0.6,7.5-0.9,11.2-0.8
		c7.6,0.1,15.1,1.3,22.4,3.5c5.9,1.8,11.9,4.4,16.6,8.5c7.5,6.4,15,16.2,14.7,26.5c0,3.5-1.3,6.9-3.8,9.4c-0.5,0.5-1.2,1-1.8,1.4
		c-0.3,0.2-0.4,0.1,0.1,0l0.8-0.1c-0.5,0.1,0.3,0.1-0.2,0c-1.4-0.2-2.7-0.7-3.8-1.5c-5.4-3.4-9.5-9-13-14.2
		c-0.2-0.4-0.5-0.8-0.8-1.2c-0.5-0.8-4.9-0.2-4.9,0.8c-0.1,1.2-0.3,2.3-0.6,3.5c-0.2,0.9-0.6,1.9-1,2.7c-0.2,0.4-0.4,0.8-0.7,1.1
		c-0.8,1-1.3,0.5,1,0.3c-0.3,0-3.6,0.6-2.9,1.2c3.7,3.8,4.7,9.6,2.4,14.4c-1.3,2.5-3,4.7-5.1,6.5c-1.4,1.3-3,2.5-4.6,3.5
		c-0.6,0.4-1.1,0.5-1.1,1.2c-0.2,3.3,0.1,6.7,0.1,10.1l0.1,9.7l3.6-1.1l-19.8,0.3l-31.5,0.5l-7.2,0.1c-0.9,0-2.6,0.1-3.3,0.7
		s0.5,0.7,1,0.6l19.8-0.3L125,202l7.2-0.1c0.5,0,3.6-0.2,3.6-1.1l-0.3-20.1l-0.3,0.3c5.2-3.4,11-8,12.1-14.5
		c0.6-3.4-0.2-6.9-2.2-9.7c-0.4-0.6-0.9-1.2-1.4-1.8l-2.9,1.2c1.7,0,3.3-0.6,4.6-1.6c0.8-0.8,1.3-1.8,1.7-2.9c0.6-1.6,0.9-3.3,1.1-5
		l-4.9,0.8c2.8,4.8,6.3,9.1,10.4,12.9c2.5,2.3,5.6,4.4,9.1,4.6c4.1,0.3,8-1.5,10.4-4.8c5.4-7.8,1.2-18.3-3.7-25.2
		c-2.9-4.3-6.5-8-10.7-11.1c-2.7-1.9-5.6-3.5-8.6-4.7c-15.5-6.5-32.7-7.9-49.1-4.2c-8.3,1.9-16.3,5.3-22.7,11
		c-7.9,7-12,17.1-14.3,27.2c-3.5,16.2-1,34.4,7.7,48.7c0.2,0.3,0.3,0.5,0.5,0.8c0.4,0.6,2,0.3,2.6,0.2
		C75.2,202.7,77.7,202.2,77.4,201.8z"></path><path class="st1" d="M121.5,161.8c3.6,0.5,7.2,0.5,10.7,0c6-0.8,12.2-3.4,15-9.1c2.1-4.4,1.9-9.5,0.9-14.2c-0.2-1-1.4-1.8-2.2-2.2
		c-0.2-0.1-2.1-1.1-2-0.3c0.9,4.1,1.2,8.7-0.4,12.7c-1.1,2.9-3.2,5.3-5.8,6.9c-4.5,2.8-10.4,3.4-15.5,3.3c-1.3,0-2.5-0.1-3.8-0.3
		c-1.1-0.2-0.2,1.1,0.1,1.4C119.3,160.9,120.3,161.5,121.5,161.8L121.5,161.8z"></path><path class="st1" d="M94.6,147.2c-3.4,2.1-6.3,4.9-8.6,8.2c-1.2,1.9-2.3,4.2-1.4,6.4c1.1,2.6,4.4,3.9,6.9,4.6
		c5.7,1.4,11.6,1.3,17.2-0.4c6-1.6,12.2-4.9,15.9-10c4.6-6.3,3.9-14.3,1-21.2c-0.3-0.8-4.9,1.2-4.5,2.2c2.4,5.8,3.5,12.4,0.6,18.2
		c-1.1,2.1-2.6,3.9-4.4,5.3c-1.7,1.3-3.6,2.3-5.6,2.9c-4.8,1.5-9.9,1.8-14.8,0.8c-2.5-0.5-5.5-1.4-7.2-3.5c-1.4-1.7-1.1-3.8-0.2-5.6
		c1.2-2.1,2.8-4,4.7-5.5l0.7-0.6l0.3-0.2c-0.2,0.2-0.1,0.1,0.1,0l1-0.8c0.3-0.2,0.6-0.5,1-0.7s1.4-1.1,0.4-1.2
		S95.4,146.7,94.6,147.2L94.6,147.2z"></path><path class="st1" d="M131.8,179c-3.2,0.9-6.4,1.5-9.8,1.8c-2.7,0.3-5.5,0.2-8.2-0.3c-1.3-0.2-2.5-0.7-3.7-1.2
		c-0.5-0.2-0.9-0.5-1.3-0.8l-0.3-0.3c-0.4-0.4,0.3,0.3-0.1-0.1c-0.1-0.1-0.2-0.2-0.3-0.4c-0.3-0.3,0.3,0.4,0,0l-0.3-0.4
		c0.4,0.6,0,0-0.1-0.1s-0.2-0.5,0,0c0-0.1-0.4-0.8-0.2-0.3c-0.3-0.6-0.4-1.3-0.5-2c-0.2-2.1-0.1-4.3,0.4-6.4c0.2-1.3-2.7-5-3.1-3.2
		c-0.8,4-0.7,8.2,1.2,11.9c1.5,3.1,4.2,5.6,7.4,6.9c5.4,2,11.6,1.4,17.1,0.3c1.5-0.3,2.9-0.6,4.3-1C135.4,183,133.3,178.6,131.8,179
		L131.8,179z"></path><path class="st0" d="M291.8,408c0,0-12.2-178.9,52.8-201.9s129.8,77,132.5,199"></path><path class="st1" d="M294,407.9c-0.1-1.2-0.1-2.4-0.2-3.6c-0.1-1.4-0.1-2.8-0.2-4.3c0-0.9-0.1-1.8-0.1-2.7c0-0.5,0-0.9,0-1.4
		c0-0.2,0-0.5,0-0.8c0-0.5,0,0.6,0,0.1c0-0.2,0-0.4,0-0.5c-0.4-11.4-0.4-22.8-0.1-34.2c0.4-15.1,1.2-30.3,2.9-45.4
		c1.6-15.8,4.4-31.4,8.3-46.8c1.9-7.3,4.3-14.4,7.1-21.4c2.5-6.3,5.6-12.2,9.3-17.9c1.7-2.6,3.6-5,5.6-7.4c1-1.1,2-2.2,3.1-3.3
		c0.5-0.4-0.3,0.3,0.1-0.1l0.4-0.4c0.3-0.2,0.5-0.5,0.8-0.8c0.5-0.5,1.1-1,1.7-1.4c2.2-1.9,4.6-3.5,7.2-4.9l1-0.5l0.5-0.2
		c-0.1,0-0.4,0.2,0,0c0.7-0.3,1.4-0.7,2.1-1c1.6-0.7,3.2-1.2,4.8-1.7c14.5-4.4,29.6-2.3,42.9,4.6c15.7,8.1,28.2,21.4,38.4,35.8
		c12.8,18.2,22.2,38.8,29.2,59.9c8.1,24.9,13.2,50.7,15.2,76.8c0.5,6.6,0.9,13.2,1,19.9c-0.1,1.3,0.8,2.5,2,2.9
		c1.1,0.3,2.2-0.4,2.4-1.5c0-0.1,0-0.2,0-0.3c-0.5-27.3-4.3-54.4-11.2-80.9c-6.1-23.1-14.8-45.7-26.9-66.4
		c-9.8-16.6-22.1-32.5-37.8-43.8c-12.9-9.3-28.4-15.3-44.5-14c-7.3,0.5-14.5,2.5-21.1,5.9c-5.4,2.9-10.2,6.7-14.2,11.3
		c-9.3,10.3-15.2,23.4-19.6,36.4c-5.2,15.2-8.4,31.1-10.6,47c-2.2,15.7-3.5,31.5-4.2,47.4c-0.5,12.8-0.7,25.6-0.4,38.4
		c0.1,6.8,0.3,13.5,0.8,20.3c0,0.3,0,0.6,0,0.9C289.7,410.9,294.2,411.2,294,407.9L294,407.9z"></path><path class="st1" d="M382.6,177.5c0,0,28.5-2.1,29.9-14.3s-15.3-4.8-15.3-4.8s14-28-14.7-24.5c0,0,18.3-23.3-4.1-34.3
		s-55.6,9.2-55.6,9.2s-5.7-24.8-33-14s-16.4,23.7-16.4,23.7s-17.5,6.7-15.7,15.3c1.8,8.6,16.2,8.2,16.2,8.2s11.6,22.7,35.2,12.5
		l31.9,23.8c0,0-5.4,13.3,6.8,22.2S388.1,192.7,382.6,177.5z"></path><path class="st1" d="M382.6,177.9c2.9-0.2,5.8-0.6,8.6-1.1c5.1-0.8,10.2-2.2,14.9-4.3c3.9-1.8,8.2-4.7,8.8-9.3
		c0.3-2.1,0.1-4.6-1.7-6.1s-4.3-1.5-6.4-1.4c-4.1,0.1-8.1,1-11.8,2.6l4.7-0.1c3.4-6.8,6.5-19-2.1-23.4c-4.7-2.4-10.7-2-15.8-1.4
		l3.1,0.3c6.4-8.2,10.7-21.3,2.6-29.8c-6.6-6.9-17.1-8.6-26.3-8.2c-9.3,0.5-18.4,2.6-26.9,6.1c-4.8,1.9-9.5,4.1-13.9,6.8l4.9-0.2
		c-1.8-7.5-7.7-14.2-15.2-16.2c-9-2.4-18.9,0.4-27,4.3c-5.7,2.8-13.1,7.1-14.2,14.1c-0.5,2.8,0.3,5.6,2,7.9l0.3-0.2
		c-5,1.9-10.6,4.9-14,9.1c-2.2,2.7-2.9,6.1-0.9,9.1s5.5,4.3,8.8,5c2.7,0.6,5.4,0.9,8.1,0.8l-1.9-0.3c1.5,2.8,3.5,5.4,5.9,7.6
		c4.7,4.7,11,7.5,17.7,7.8c5.6,0.2,11.1-0.8,16.3-3l-4.6,0.2l13.7,10.3l17.3,12.9c0.2,0.1,0.5,0.3,0.7,0.5c0.2,0.3,0-0.1,0,0.1
		c-0.1,1-0.6,2-0.8,3.1c-0.9,4.5-0.1,9.2,2.2,13.2c2.6,4.6,7.2,7.7,12.5,8.4c10.7,1,21.2-3,28.6-10.8c2.9-3.2,5.1-7.4,4.8-11.9
		c-0.1-1.1-0.3-2.1-0.7-3.2c-0.3-0.9-5.1,0.1-5,0.4c3.5,10.1-6.8,19.1-15.1,22.7c-2.2,1-4.5,1.6-6.8,2c-0.3,0-0.6,0.1-0.9,0.1
		c-0.2,0-0.8,0-1.3-0.1c-1.1-0.1-2.1-0.4-3.1-0.8c-5.4-2.1-9.3-7.7-10.3-13.2c-0.6-3.5-0.3-7,0.9-10.3l-0.1-0.1l-25.4-19l-5.3-4
		c-0.3-0.3-0.7-0.6-1.1-0.8c-0.8-0.3-1.6-0.3-2.5-0.2c-1.6,0.2-3.1,0.7-4.6,1.4c-3.4,1.4-7.2,1.6-10.7,0.7c-3.3-0.9-6.4-2.4-9.1-4.5
		c-3.4-2.6-6.3-5.9-8.3-9.7c-0.2-0.4-1.5-0.3-1.9-0.3s-0.7,0,0.1,0c-0.4,0-0.9,0-1.3,0c-0.2,0-0.3,0-0.5,0c-0.3,0-0.6,0-0.9-0.1
		c-0.7-0.1-1.3-0.2-2-0.3c-3.1-0.6-6.6-1.8-8.5-4.5c-4.6-6.4,3.2-12.2,8.2-15.1c1.9-1.1,3.9-2.1,6-2.9c0.1,0,0.3-0.1,0.3-0.2
		c-1.3-1.7-2-3.7-2.1-5.8c-0.3-5.7,4.3-10,8.6-12.9c4.2-2.8,8.9-4.9,13.8-6.2c0.9-0.2,1.8-0.5,2.7-0.6l1.1-0.2h0.4h0.5
		c1.4-0.1,2.8,0.1,4.1,0.3c4.9,1.1,9.2,4.1,11.9,8.4c1.6,2.3,2.8,4.9,3.5,7.6c0.2,0.9,4.4,0.1,4.9-0.2c3.3-1.9,6.7-3.6,10.2-5.1
		c7.2-3.2,15-5.8,22.9-6.6c8.1-0.8,17.3,1,23.5,6.7c5.3,4.8,6.2,11.9,4.3,18.5c-1.2,4.2-3.3,8.2-6,11.7c-0.4,0.5,2.8,0.4,3.1,0.3
		c5.8-0.7,12.8,0.7,14.5,7.2c1.2,4.5,0,9.5-1.6,13.8c-0.4,1.1-0.9,2.2-1.4,3.3c-0.1,0.3,1.9,0.3,1.9,0.3c1,0,1.9-0.1,2.8-0.4
		c0.7-0.3,1.5-0.6,2.3-0.9s1.3-0.4,2.1-0.6c0.3-0.1,0.6-0.1,0.9-0.2c0.1,0,0.9-0.1,0.4-0.1h0.3c0.2,0,0.5-0.1,0.1,0h0.2
		c0.5,0,0,0,0.3,0l0.5,0.1c0.8,0.2,1.5,0.5,2.1,1c1.6,1.4,1.7,3.8,1.5,5.7c-0.5,4.1-4.1,6.8-7.6,8.5c-4,1.9-8.3,3.3-12.7,4
		c-1,0.2-2.1,0.4-3.2,0.5c0.5-0.1-0.1,0-0.3,0l-0.7,0.1l-1.2,0.1l-1,0.1h-0.5c-0.5,0.1,0.7-0.1,0.2,0h-0.6c-0.3,0-2.5,0.1-2.5,0.6
		S382.4,177.9,382.6,177.9z"></path><path class="st0" d="M290.4,223.7c-21.4-16.5-13.3-78.1-13.3-78.1c20.5-0.7,47.3-27.8,47.3-27.8c-5.1,20.6,20,50.1,20,50.1
		c4.1-18.4,22-21.8,24.1-5.1s-13.3,21.7-13.3,21.7s11.9,26.9,11.6,33.7s-28.5,46.1-45.5,16.4C310.1,234.3,299.3,230.5,290.4,223.7z"></path><path class="st1" d="M292.4,222.8c-4.4-3.4-7.2-8.6-9.1-13.8c-2.2-6.3-3.7-12.9-4.3-19.5c-1.2-12.1-1.3-24.3-0.2-36.4
		c0.1-1.9,0.3-3.8,0.5-5.7c0-0.3,0.1-0.6,0.1-0.9s0.1-0.7,0-0.3c0-0.2,0-0.4,0.1-0.6l-2.9,1.3c9.7-0.4,18.7-4.9,26.8-10
		c6.9-4.5,13.5-9.6,19.5-15.2c1.2-1.2,2.5-2.3,3.7-3.5l-4.7-0.4c-2.2,8.9,0.8,18.2,4.5,26.3c3.4,7.3,7.6,14.1,12.5,20.5
		c1,1.4,2,2.7,3.1,4c0.9,1,4.4,0.9,4.8-0.6c1.1-5,3.5-10.2,7.9-13.1c0.3-0.2,0.6-0.4,1-0.6l0.7-0.3l0.3-0.1c-0.2,0.1-0.1,0,0,0
		l0.6-0.2l0.4-0.1c0,0-0.4,0.1-0.1,0l0.6-0.1c0.4-0.1-0.4,0-0.1,0h0.4c0.1,0,0.6,0,0.4,0l0.5,0.1c0.1,0,0.6,0.1,0.2,0
		c0.2,0.1,0.5,0.2,0.7,0.2c0.7,0.3,1.4,0.7,2,1.3c3.6,3.3,4.3,9.6,3.6,14.1c-0.7,4.3-2.9,8.2-6.2,11c-0.7,0.6-1.5,1.2-2.3,1.7
		l-0.5,0.3l-0.2,0.1l-0.9,0.5c-0.5,0.2-1,0.4-1.4,0.6c-0.7,0.3,0.5-0.1,0,0c-0.8,0.3-2,0.8-1.5,1.8c2.1,4.7,4.1,9.5,5.9,14.3
		c1.5,3.8,2.9,7.6,4,11.4c0.7,2.4,1.7,5.2,1.5,7.8c0-0.4-0.1,0.5-0.2,0.7c-0.1,0.4-0.3,0.8-0.4,1.2c-0.5,1.1-1,2.1-1.6,3.2
		c-3.3,5.5-7.4,10.5-12.4,14.6c-1.4,1.1-2.8,2.2-4.3,3.1c-0.6,0.4-1,0.6-1.7,0.9c-0.4,0.2-0.8,0.4-1.2,0.6l-0.4,0.2
		c-0.1,0-0.9,0.3-0.5,0.2c-0.4,0.1-0.8,0.3-1.2,0.4c-0.2,0.1-1.4,0.3-0.8,0.2c-0.5,0.1-1,0.2-1.5,0.2h-0.4c0.6-0.1-0.3,0-0.4,0
		c-1.5,0.1-3-0.3-4.4-0.9c-4.1-1.7-7.1-5.6-9.3-9.4c-0.3-0.6-1.3-0.7-1.9-0.7c-0.9,0-1.8,0-2.6-0.1c0.6,0-0.2,0-0.3,0l-0.6-0.1
		c-0.6-0.1-1.2-0.1-1.8-0.2c-1.3-0.2-2.5-0.4-3.8-0.7C305.2,230.5,298.3,227.3,292.4,222.8c-1-0.7-2.6-0.5-3.5,0
		c-0.8,0.4-1.6,1.2-0.6,1.9c6.4,4.9,13.9,8.3,21.8,10c3.5,0.9,7.2,1.4,10.8,1.4l-1.9-0.7c2.2,3.8,5.1,7.5,9.1,9.6
		c3.4,1.8,7.3,2.4,11.1,1.8c7.7-1.1,14.2-6.1,19.4-11.6c2.4-2.5,4.5-5.2,6.5-8.1c1.6-2.2,2.8-4.5,3.8-7c0.8-2.1,0.4-4.2-0.1-6.4
		c-1-3.8-2.2-7.6-3.6-11.2c-2.3-6.3-4.9-12.5-7.6-18.6l-1.5,1.9c7.1-2.3,13.4-8.4,14.8-15.9c1-5.3,0.4-12.2-3.8-16.2
		c-3.7-3.5-9.4-3.5-13.8-1.4c-6.2,2.9-9.8,9.3-11.3,15.8l4.8-0.6c-2.9-3.5-5.6-7.2-8.1-11c-4.8-7.4-9.2-15.4-11.3-24.1
		c-1.3-4.7-1.5-9.6-0.5-14.3c0.2-1-0.9-1.3-1.6-1.3c-1.1-0.1-2.2,0.3-3,1c-3.1,3.1-6.3,6-9.7,8.8c-6.8,5.6-14.1,10.9-22.2,14.6
		c-2.1,1-4.3,1.8-6.5,2.5c-1,0.3-2,0.5-3,0.7c-1,0.2-2.1,0.3-3.1,0.4c-0.7,0-2.8,0.3-2.9,1.3c-0.9,7.4-1.4,14.8-1.5,22.2
		c-0.2,13.4,0.3,27.5,4.6,40.3c2.1,6.3,5.2,12.4,10.5,16.6c0.9,0.7,2.5,0.4,3.5,0S293.3,223.4,292.4,222.8z"></path><path class="st1" d="M330.2,193c2.8-1.7,5.4-4.7,5.4-8.1c-0.1-1.7-0.7-3.3-1.7-4.6c-0.8-1-2.1-1.4-3.4-1.1c-0.7,0.1-1.2,0.9-1,1.6
		c0,0.2,0.2,0.5,0.3,0.6c0.1,0.1,0.2,0.4,0.1,0.1c0.1,0.1,0.2,0.3,0.2,0.4c0.1,0.3,0.3,0.5,0.4,0.8c0,0.1,0.2,0.5,0.1,0.3
		s0,0.1,0,0.2c0.1,0.3,0.1,0.6,0.1,0.8c0,0.2,0,0.4,0,0.7s0-0.2,0-0.2c0,0.1,0,0.1,0,0.2c0,0.1,0,0.2-0.1,0.4
		c-0.1,0.5-0.3,0.9-0.5,1.3c0,0.1-0.1,0.2-0.1,0.3s0.2-0.3,0.1-0.1l-0.1,0.1c-0.1,0.2-0.2,0.4-0.4,0.6c-0.3,0.3-0.5,0.7-0.9,1
		c-0.3,0.3-0.5,0.6-0.8,0.8l-0.2,0.2c0.1-0.1,0.4-0.3,0.1-0.1c-0.1,0.1-0.2,0.2-0.4,0.3c-0.3,0.2-0.6,0.4-0.9,0.6
		c-1,0.6-0.6,1.8,0.2,2.4C327.7,193.3,329.1,193.5,330.2,193L330.2,193z"></path><path class="st1" d="M287.8,173c0,0,0.9,3.1-2.2,3.8s-3.9-3.2-1.4-4.6c1.1-0.8,2.6-0.6,3.4,0.5C287.7,172.8,287.7,172.9,287.8,173z
		"></path><path class="st1" d="M305.7,169.7c0.2-0.8,0.4-1.5,0.8-2.2l-0.1,0.2c0.6-1.2,1.6-2.1,2.7-2.9c0.2-0.1,0-0.7,0-0.9
		c-0.2-0.6-0.5-1.1-0.8-1.6c-0.3-0.5-0.7-1-1.1-1.4c-0.2-0.1-0.5-0.5-0.8-0.4c-1.8,1.2-3.1,3.1-3.6,5.2c0,0.4,0.1,0.8,0.3,1.2
		c0.3,0.6,0.6,1.1,1,1.7c0.3,0.4,0.6,0.8,1,1.1C305.4,169.9,305.7,170,305.7,169.7L305.7,169.7z"></path><path class="st2" d="M267.2,247.1c0,0,56.9,120.8,55.5,125.2s-19,11.5-22.1,2.8s-40.8-124.3-40.8-124.3L267.2,247.1z"></path><path class="st2" d="M264.8,247.1c2,4.2,4,8.4,5.9,12.6c4.7,10,9.3,20,14,30.1c5.6,12.1,11.1,24.2,16.6,36.4
		c4.6,10.4,9.3,20.7,13.7,31.2c1.4,3.4,2.8,6.7,4,10.2c0.4,1,0.7,2.1,1,3.1c0,0.2,0.1,0.6,0.1,0.4c0,0.1,0.1,0.3,0.1,0.4
		c0,0.2,0,0.4,0,0.6c-0.2,0.9-1.2,1.6-1.8,2.2c-1.2,0.9-2.4,1.6-3.8,2.2c-1.5,0.7-3.1,1.2-4.7,1.6c-0.7,0.2-1.5,0.3-2.2,0.3
		c-0.3,0-0.2,0-0.7,0c-0.1,0-0.6,0-0.2,0c-0.2,0-0.5,0-0.7-0.1c0.3,0.1-0.3-0.1-0.3-0.1c-0.2,0-0.5-0.1-0.7-0.3
		c-0.5-0.3-0.9-0.7-1.3-1.1c-0.4-0.6-0.8-1.3-1-2.1c-0.3-1-0.7-1.9-1-2.9c-2.9-8.6-5.7-17.2-8.5-25.8c-4.1-12.6-8.3-25.2-12.4-37.8
		c-3.9-12-7.9-24-11.8-36l-6.6-20.3l-0.3-1l-0.3,0.7l7.4-3.7c1-0.5-0.2-1.2-0.7-1.4c-1.1-0.4-2.3-0.5-3.4-0.1l-7.4,3.7
		c-0.3,0.2-0.4,0.4-0.3,0.7c1.6,4.9,3.2,9.8,4.8,14.7c3.7,11.4,7.4,22.8,11.2,34.3c4.3,13.1,8.6,26.2,12.9,39.3
		c3.2,9.8,6.5,19.7,9.7,29.5c0.7,2.2,1.4,4.4,2.2,6.5c1.3,3.4,4.9,4.7,8.2,5c3.8,0.3,7.6-0.3,11.2-1.8c2.5-1,5.6-2.4,7.1-4.7
		c0.5-0.6,0.6-1.4,0.4-2.1c-0.7-2.5-1.5-4.9-2.5-7.3c-3.7-9.4-7.8-18.7-12-27.9c-5.4-12.2-10.9-24.4-16.5-36.5
		c-5.1-11.2-10.3-22.3-15.5-33.4c-2.8-6.1-5.7-12.2-8.6-18.3l-0.4-0.9C269,245.9,264.2,246,264.8,247.1z"></path><ellipse class="st0" transform="matrix(0.8852 -0.4653 0.4653 0.8852 -57.8688 130.9347)" cx="236.3" cy="182.7" rx="50.3" ry="72.8"></ellipse><path class="st2" d="M199.6,222.7c8.8,11.2,20.1,21,33.5,26.4c11,4.4,23.6,5.6,34.8,1.1c11-4.4,18.8-13.8,22.9-24.6
		c4.5-12.1,4.7-25.5,2.4-38.1c-2.7-14.4-8.5-28.1-17-40.2c-8.4-12-19.4-22.5-32.6-29c-10.7-5.2-23.3-7.7-35-4.3
		c-11.2,3.3-20.5,11.3-25.3,22c-5.4,11.4-6.4,24.6-4.9,37c1.9,14.5,6.9,28.3,14.7,40.7C195.2,216.7,197.3,219.8,199.6,222.7
		c1.3,1.7,5.9,0.1,4.5-1.8c-8.8-11.2-15.1-24.1-18.6-37.9c-3-12.1-3.9-25.1-0.7-37.3c2.7-10.4,8.6-20.2,18-25.6
		c4.2-2.4,9-3.8,13.9-4.1c5.3-0.3,10.7,0.4,15.8,2c12.7,4,23.7,12.4,32.4,22.3c9.5,10.9,16.6,23.6,20.9,37.4
		c3.7,12.2,5.3,25.3,3,37.9c-1.9,10.6-6.8,21.2-15.7,27.7c-4,2.9-8.6,4.9-13.5,5.8c-5.2,0.8-10.4,0.6-15.5-0.6
		c-12.5-2.8-23.6-10.4-32.6-19.4c-2.6-2.6-5-5.4-7.2-8.2C202.9,219.2,198.1,220.8,199.6,222.7z"></path><path class="st1" d="M232,170.9c0,0-11.1,1.4-8.8,12s15.4,7.8,16.3-1.9S232,170.9,232,170.9z"></path><path class="st2" d="M198.2,136.6c-3.3,6.9-5.4,14.3-6.1,21.9c-0.1,1.1,1.2,1.7,2.1,2c0.6,0.2,2.7,0.4,2.8-0.7
		c0.7-7.6,2.8-15.1,6.1-22c0.5-1-1.4-1.8-2.1-2C200,135.7,198.7,135.6,198.2,136.6L198.2,136.6z"></path><path class="st2" d="M193.5,167.6l1.2,3.8c0.2,0.6,0.5,1.1,0.8,1.6c0.3,0.5,0.7,1,1.1,1.4c0.1,0.1,0.6,0.6,0.8,0.4s0-0.6,0-0.9
		l-1.2-3.8c-0.2-0.6-0.5-1.1-0.8-1.6c-0.3-0.5-0.7-1-1.1-1.4c-0.1-0.1-0.6-0.6-0.8-0.4S193.4,167.4,193.5,167.6L193.5,167.6z"></path><path class="st0" d="M310.4,203.7c0,0-28.8,28.2-46.8,15.7s2.9-38.9,31.2-38.2"></path><path class="st1" d="M309.1,202.9c-0.9,0.9-1.8,1.7-2.7,2.5s-2.1,1.8-3.1,2.6l-0.4,0.3c-0.6,0.4,0.4-0.3-0.1,0.1l-0.9,0.7
		c-0.8,0.6-1.5,1.1-2.3,1.7c-6.2,4.4-12.9,8.4-20.5,9.7c-7.3,1.2-15.5-1.6-18.8-8.7c-3-6.4,0.7-13.6,5.1-18
		c7.3-7.4,18.1-11,28.6-10.8c1.3-0.1,2.4-0.9,2.9-2c0.5-1-0.1-1.7-1.1-1.7c-11-0.2-21.8,3.4-30.4,10.4c-6.1,5-12,13-10.5,21.3
		s10.2,13.3,18.2,13.3c8.8,0.1,17.4-4.3,24.6-8.9c5-3.2,9.7-6.9,14-11c0.6-0.6,1.4-1.8,0.5-2.4S309.7,202.2,309.1,202.9L309.1,202.9
		z"></path><path class="st0" d="M286.4,290.9c0,0-19.1-8.1-24.9-2.3s0.6,16.8,0.6,16.8s-9.8,8.6-2.3,15.6c0,0-5.2,2.9,2.9,12.7
		c8.1,9.8,85.7,66,140.9,71.2c34.8,3.2,49.7-76.6,49.7-76.6l-65.4-26.9l-11.7,35l-46.3-32.9c0,0-12.3-31.8-47.6-28.3"></path><path class="st1" d="M285.9,289c-5-2.2-10.3-3.6-15.7-4.3c-3.1-0.4-6.7-0.4-9.4,1.4c-3.5,2.2-4,6.9-3.4,10.6c0.5,3,1.5,5.9,3,8.5
		v-1.7c-1.9,1.7-3.4,3.7-4.4,6c-2,4.4-0.6,9.1,2.8,12.4l-0.7-2.7c-2.3,1.3-2.1,5-1.4,7.1c1.4,4.2,4.3,7.9,7.5,10.9
		c5.2,4.7,10.7,9.1,16.5,13.1c9.1,6.5,18.4,12.7,27.9,18.5c11.2,6.8,22.7,13.1,34.5,18.8c11.8,5.8,24,10.6,36.5,14.4
		c5.9,1.7,11.8,3.1,17.9,4.1c4.5,0.7,9.2,1.5,13.8,0.5c7.8-1.6,14.1-7.2,18.8-13.3c5.7-7.3,9.9-15.7,13.4-24.2
		c3.2-8,6-16.1,8.2-24.4c1.3-4.6,2.4-9.3,3.4-14.1c0-0.2,0.1-0.5,0.1-0.7c0.3-1.5-1.1-2.9-2.4-3.5l-22.1-9.1l-35.2-14.5l-8-3.3
		c-0.5-0.2-1.2-0.2-1.4,0.4l-10.2,30.7l-1.5,4.4l2.4,0.2L361,324.1l-25-17.7l-5.7-4.1l1.2,1.5c-1.7-4.1-4-7.9-6.8-11.4
		c-6-7.6-13.8-13.9-23.1-17c-6.7-2.2-13.8-2.9-20.8-2.2c-1.1,0.1-0.3,1.9,0,2.4c0.6,1,1.6,1.6,2.7,1.6c6.5-0.7,13,0,19.2,2
		c2.5,0.8,4.9,1.9,7.1,3.3c2.1,1.2,4,2.6,5.9,4.2c0.5,0.4,0.9,0.8,1.3,1.2c0.1,0.1,0.6,0.5,0.4,0.4s0.4,0.4,0.6,0.6
		c0.8,0.8,1.5,1.6,2.2,2.4c0.3,0.4,0.7,0.8,1,1.2l0.5,0.5c0.1,0.1,0.3,0.4,0,0l0.2,0.3c0.6,0.8,1.2,1.5,1.7,2.3s0.9,1.4,1.4,2.1
		c0.2,0.3,0.4,0.6,0.6,1l0.3,0.4c-0.1-0.2-0.1-0.3,0.1,0.1c0.5,1,1,1.9,1.5,2.9c0.5,1.3,1.3,2.4,2.4,3.3l6.3,4.5l23.1,16.4
		c5.3,3.8,10.7,7.6,16.1,11.4l0.3,0.2c0.5,0.4,2,1.3,2.4,0.2l10.2-30.7l1.5-4.4l-1.4,0.4l22.1,9.1l35.3,14.5l8,3.3l-2.4-3.5
		c-0.6,3.2-1.4,6.4-2.2,9.6c-1.8,7.5-4.1,14.9-6.7,22.2c-3,8.6-6.8,16.9-11.5,24.7c-4.1,6.6-9.4,13.4-16.4,17
		c-3.1,1.7-6.6,2.6-10.1,2.6c-5.3,0-10.7-1.2-15.8-2.3c-12.1-2.8-24-6.8-35.4-11.9c-11.8-5.2-23.4-11-34.5-17.4
		c-10.1-5.8-20-12-29.6-18.5c-3.9-2.7-7.4-5.1-11.2-8c-3-2.2-5.9-4.5-8.7-6.8c-1-0.9-2.1-1.7-3.1-2.6c-0.2-0.2-0.4-0.4-0.6-0.6
		l-0.3-0.3c0,0,0.5,0.5,0.1,0.1s-0.6-0.6-0.9-1c-1.5-1.5-2.7-3.3-3.6-5.3c-0.7-1.3-0.8-2.9-0.3-4.4c0-0.1,0.1-0.2,0.2-0.4l0.1-0.1
		c0.1-0.1,0.2-0.3,0.4-0.4c0.1-0.1,0.3-0.2,0.4-0.3c0.9-0.5-0.4-2.4-0.7-2.7c-1.2-1-1.9-2.5-1.9-4c0.1-1.6,0.5-3.1,1.4-4.5
		c0.9-1.7,2.1-3.2,3.5-4.5c0.5-0.4,0.2-1.2,0-1.7c-2.4-4.2-4.8-11.8-0.1-15.5c2.2-1.8,5.6-1.6,8.2-1.4c3.3,0.4,6.5,1.1,9.6,2.2
		c1.8,0.6,3.7,1.2,5.5,2c1,0.4,1.6-0.3,1.4-1.2C287.9,290.4,287,289.4,285.9,289L285.9,289z"></path><path class="st1" d="M311.9,294.5c-8.1-1.4-16.3-3-24.3-5c-1-0.3-2.6-0.2-3.4,0.7s0.1,1.8,1,2c8.4,2.1,17,3.8,25.5,5.2
		c1,0.2,2.6-0.2,3-1.2S312.8,294.6,311.9,294.5L311.9,294.5z"></path><path class="st1" d="M259.9,305.3c2,2.3,4.3,4.3,6.8,6.1c5.9,4.3,12.5,7.4,19.6,9.1c0.5,0.1,2.4,0.5,2.7-0.3s-1.7-1.4-2.2-1.5
		c-6.1-1.5-11.7-4.2-16.7-8c-2.1-1.5-4-3.3-5.7-5.2c-0.9-0.8-2.1-1.2-3.2-1.2C260.5,304.2,259.2,304.4,259.9,305.3L259.9,305.3z"></path><path class="st1" d="M257.4,320.9c2.5,2.3,5.1,4.4,7.9,6.4c4.7,3.4,9.9,6.5,15.7,7.6c0.6,0.1,1.3,0.2,1.9,0.2c0.5,0.1,1,0,1.5-0.1
		c0.8-0.4-0.4-0.6-0.8-0.7c-5.2-0.9-10-4.3-14.1-7.3c-2.5-1.8-4.9-3.8-7.2-5.9c-0.6-0.6-2.2-0.6-3-0.6
		C259,320.5,257,320.5,257.4,320.9L257.4,320.9z"></path></g><g id="screen"><rect class="st0" x="61.4" y="183.7" width="139.9" height="46.6"></rect><path class="st2" d="M200.4,228.4H66.2c-1.8,0-3.7-0.1-5.5,0h-0.2l3.2,2.8v-46.6l-1.4,1h134.2c1.8,0,3.6,0.1,5.4,0
		c0.1,0,0.2,0,0.2,0l-3.2-2.7v46.6c0.1,1.2,0.9,2.2,2.1,2.5c0.7,0.3,2.5,0.4,2.5-0.8v-46.6c0-1.6-1.7-2.7-3.2-2.7H77.7
		c-5.6,0-11.3-0.2-17,0h-0.2c-0.5,0-1.4,0.4-1.4,1v46.6c0,1.6,1.7,2.8,3.2,2.8H185c5.6,0,11.3,0.2,17,0c0.1,0,0.2,0,0.2,0
		c0.7,0,1.3-0.5,1.4-1.2c0-0.3-0.1-0.5-0.2-0.8C202.8,229.1,201.6,228.4,200.4,228.4z"></path><path class="st1" d="M102.2,195.3c-5.9,2.1-8.8,7.9-10.5,13.6c-1,3.3-1.2,6.9,1.4,9.5c2.3,2.1,5.5,2.9,8.4,2.1c3.2-0.9,6-3,7.7-5.9
		c1.6-2.7,2.3-6.5-0.2-8.9c-2.2-2.2-5.8-2.3-8.1-0.3c-1.3,1.2-1.8,3.2-0.5,4.6c1.1,1,2.5,1.6,4,1.9c6.6,1.7,13.6-0.7,17.9-6
		c1.2-1.5-0.3-3.1-1.9-3.1c-3.6,0-6.2,3.5-6.2,6.9c0,3.4,2.2,6.4,5.4,7.4c8.1,2.9,14.8-3.9,18.5-10.3c1.6-2.8,4.1-8.2,0.9-10.9
		c-1.8-1.3-4.4-1-5.8,0.8c-1.2,1.4-1.6,3.5-1.9,5.2c-0.8,3.7-0.4,7.5,1.1,11c1.5,3.1,4.2,5.5,7.6,6.5c3.7,1.3,7.8,0.4,10.7-2.3
		c1.5-1.5,2.6-3.8,1.9-5.9c-0.7-2.2-2.8-3.7-5.1-3.6c-1.3,0-2.4,0.9-2.6,2.1c-0.5,2.8,1.5,5.4,3.9,6.5c3.1,1.4,6.7,0.5,9.8-0.5
		c1.1-0.4,2.3-1.3,1.9-2.6c-0.4-1.2-1.7-1.8-2.9-1.4c-1.8,0.6-4.1,1.6-6,0.9c-1.3-0.4-2.1-1.7-1.9-3l-2.6,2.1c1,0,0.6,1.8,0.4,2.3
		c-0.5,0.8-1.3,1.4-2.3,1.7c-2.2,0.4-4.4-0.2-6-1.7c-2-1.9-3.2-4.4-3.3-7.2c-0.1-2.3,0.2-4.6,0.9-6.7c0.1-0.3,0.2-0.6,0.3-0.9
		c0.1-0.5,0.3-0.1-0.2,0h-1.3c-0.1,0-0.1-0.3-0.2-0.1s0.1,0.5,0.2,0.7c0,0.9-0.1,1.8-0.4,2.6c-0.6,1.6-1.4,3.1-2.4,4.5
		c-1.7,2.5-3.8,5.4-6.8,6.4c-2.1,0.7-4.9,0.5-6.2-1.5c-0.5-0.9-0.8-2-0.6-3c0.1-0.4,0.2-0.9,0.4-1.3c0.1-0.1,0.2-0.3,0.4-0.4
		c0.2-0.2,0.6-0.1,0.1-0.1l-1.9-3.1c-2.1,2.7-5.3,4.2-8.7,4.4c-1.7,0-3.3-0.4-4.9-0.9c-0.5-0.1-0.6-0.6-0.3,0.7c0,0.2-0.6-0.2,0,0
		c0.4,0.2,0.7,0.4,1,0.8c1,1.6-0.3,3.9-1.3,5.2c-0.9,1.3-2.3,2.2-3.9,2.6c-1.5,0.2-3.1-0.5-3.8-1.9c-0.9-1.9-0.2-4.2,0.4-6
		c1.1-3.2,2.8-8.1,6.4-9.3c1.1-0.4,2.3-1.3,1.9-2.6C104.6,195.5,103.3,194.8,102.2,195.3L102.2,195.3z"></path><rect class="st2" x="22.9" y="260" width="73.2" height="99.1"></rect><path class="st2" d="M96,356.8H22.8l2.4,2.6v-95c0.1-1.3,0.1-2.6,0-3.9v-0.2l-2.1,2h73.2l-2.4-2.6v86.9c0,4-0.2,8,0,12v0.2
		c0,2.7,4.6,3.7,4.6,0.6v-86.9c0-4,0.2-8,0-12v-0.2c-0.1-1.3-1.1-2.4-2.4-2.6H22.8c-1-0.1-2,0.6-2.1,1.7c0,0.1,0,0.2,0,0.3v86.9
		c0,4-0.2,8,0,12c0,0.1,0,0.1,0,0.2c0.1,1.3,1.1,2.4,2.4,2.6h73.2C99.4,361.4,98.7,356.8,96,356.8z"></path><ellipse class="st0" transform="matrix(0.9998 -1.998800e-02 1.998800e-02 0.9998 -5.6353 0.9063)" cx="42.5" cy="282.4" rx="11.3" ry="11.3"></ellipse><path class="st0" d="M51.4,282c0,4-2.4,7.7-6.1,9.3c-3.4,1.3-7.3,0.2-9.6-2.7c-2.4-3.2-2.8-7.5-0.8-11c1.8-3.3,5.5-5.1,9.2-4.6
		C48.1,273.7,51.3,277.7,51.4,282c0.1,1.2,1,2.1,2.2,2.1c0.8,0.1,2.8-0.2,2.7-1.4c0-5.6-3.6-10.6-8.8-12.6
		c-5.4-2.1-11.6-0.7-15.6,3.6c-3.6,4.2-4.2,10.2-1.4,15c3.1,5,9,7.6,14.7,6.5c6.2-1,10.9-6.3,11.1-12.6c-0.1-1.2-1-2.1-2.2-2.2
		C53.2,280.4,51.4,280.8,51.4,282z"></path><rect class="st0" x="117.9" y="267.9" width="132.1" height="101.4"></rect><path class="st2" d="M249.2,367.4H122.4c-1.7,0-3.5-0.1-5.2,0c-0.1,0-0.2,0-0.2,0l3.2,2.8v-97.3c0.1-1.3,0.1-2.6,0-3.9
		c0-0.1,0-0.1,0-0.2l-1.4,1h126.8c1.7,0,3.5,0.1,5.2,0h0.2l-3.2-2.8v89c0,4.1,0,8.2,0,12.3v0.2c0.1,1.2,0.9,2.2,2,2.6
		c0.7,0.3,2.6,0.4,2.6-0.8v-89c0-4.1,0-8.2,0-12.3v-0.2c-0.1-1.6-1.5-2.9-3.2-2.8H133.3c-5.3,0-10.7-0.2-16.1,0H117
		c-0.6,0-1.4,0.4-1.4,1v89c0,4.1,0,8.2,0,12.3v0.2c0.1,1.6,1.5,2.9,3.2,2.8h115.9c5.3,0,10.7,0.2,16.1,0h0.2c0.7,0,1.4-0.5,1.4-1.3
		c0-0.3,0-0.5-0.2-0.7C251.6,368.2,250.5,367.4,249.2,367.4z"></path><path class="st1" d="M139.2,292.2c0.2,0.1,0.5,0.1,0.8,0.2c0.2,0,0.4,0,0.6,0c0.4-0.1,0.7-0.2,1-0.5c0-0.1-0.1-0.2-0.2-0.3
		c-0.1-0.1-0.3-0.3-0.5-0.4c-0.5-0.4-1.1-0.8-1.6-1.1c-0.6-0.3-1.1-0.7-1.7-1c-0.2-0.1-0.4-0.2-0.6-0.3c-0.2-0.1-0.5-0.1-0.8-0.2
		c-0.2,0-0.4,0-0.6,0.1c0,0.1,0.1,0.2,0.1,0.2c0.1,0.1,0.2,0.3,0.4,0.4c0.5,0.4,0.9,0.7,1.4,1c0.5,0.3,1,0.6,1.5,0.9l0.4,0.2
		c0.1,0.1,0.2,0.1,0.4,0.1h0.2h-0.1c0.3,0,0.5,0,0.8,0.1l-0.2-0.1l0.2,0.1c0,0-0.4-0.2-0.3-0.1s0,0-0.4-0.2
		c-0.2-0.1-0.5-0.3-0.7-0.4c-0.4-0.2-0.8-0.5-1.2-0.8l-0.3-0.3l0,0c0,0-0.4-0.3-0.2-0.2l0.1,0.1l-0.2-0.3c-0.3,0.3-0.7,0.4-1.1,0.5
		h0.1c-0.3,0-0.6,0-0.9-0.1l0.2,0.1l0,0c-0.1-0.1-0.2-0.1-0.3-0.1c-0.1,0-0.1,0,0,0.1c0.1,0.1,0.2,0.2,0.3,0.3
		c0.2,0.2,0.4,0.3,0.6,0.4c0.5,0.4,1.1,0.7,1.6,1l0.5,0.3C138.7,291.9,138.9,292.1,139.2,292.2L139.2,292.2z"></path><path class="st1" d="M152.5,295.9c1.6-0.4,3.2-1.1,4.6-1.9c1.4-0.8,2.7-1.9,3.6-3.3c1-1.8-1.8-2.4-3.1-2.5c-1.7-0.1-3.7,0-5,1.1
		c-2.5,2.2-0.8,5.3,1.8,6.3c3.5,1.2,7.4,0.7,10.4-1.4c2.8-2.2,5-5.1,6.4-8.3c0.6-1.4,1.1-3.3-0.4-4.3c-1.8-0.9-4-1-5.9-0.2
		c-2.3,1.1-3.1,4.6-3,6.9c0.2,2.6,1.5,5.1,3.6,6.6c2.6,1.8,6.2,2,9.3,1.5c2.8-0.4,5.4-1.8,7.1-4.1c0.6-0.9,1.6-2.6,1.2-3.7
		c-0.6-1.5-3.7-1.2-4.9-1c-1.3,0-2.5,0.9-2.9,2.2c-0.3,1.2,0.1,2.5,1,3.4c1.2,1.2,3.1,1.6,4.8,1.7c2,0.2,3.9,0.1,5.8-0.3
		c2.7-0.5,5.9-1.5,7-4.3c0.6-1.1,0.1-2.4-0.9-3c0,0,0,0-0.1,0c-1.4-0.6-4.4-0.8-5.6,0.4c-1,1-0.6,2.6-0.1,3.7
		c0.7,1.3,1.8,2.3,3.2,2.9c3.4,1.6,8,1.1,11.4-0.3c1.4-0.6,3.1-1.4,3.9-2.7c0.6-0.9,0.3-2.2-0.6-2.8c-0.2-0.1-0.3-0.2-0.5-0.2
		c-1.4-0.5-4.3-0.8-5.5,0.2s-0.6,2.8,0,3.9c1.8,3.4,6.2,3.8,9.6,3.3c1.7-0.2,3.4-0.9,4.7-2c0.6-0.5-1.6-0.8-1.8-0.8
		c-0.9-0.1-2.3-0.2-3.1,0.4c-0.8,0.5-1.6,0.9-2.4,1.2c0.8,0.1,0.9,0,0.4-0.1c-0.2-0.1-0.4-0.1-0.5-0.2c-0.4-0.2-0.7-0.5-1-0.8
		c-0.6-0.6-1.1-1.4-1.3-2.2c-0.1-0.3-0.3-2.2,0.1-2.2l-1.8,0.2h0.2l-1.8-0.2c0.5,0.1,0.7,0.9,0.7,1.2c-0.1,0.7-0.6,1.4-1.2,1.8
		c-1,0.8-3.1,2-4.3,1.9c-1,0-2.3-1.2-3-2.1c-0.4-0.6-0.7-1.3-0.8-2c0-0.3-0.1-1.8,0.4-1.9l-2.4,0.2h0.3l-1.5-0.3
		c1.5,0.5,0.1,3-0.4,3.7c-1.1,1.1-2.5,1.8-4,2c-1.3,0.4-2.7-0.2-3.4-1.4c-0.5-0.9-0.8-3.4,0.6-3.6l-1.8,0.2
		c-2.1,0.1-1.2-0.6-1.3,0.5c0,0.3-0.1,0.6-0.2,0.9c-0.2,0.6-0.4,1.1-0.8,1.6c-0.7,1-1.5,1.8-2.5,2.5c-0.8,0.5-1.7,0.8-2.6,1
		c0.2,0,0.6,0.2,0.1,0c-0.2-0.1-0.4-0.1-0.6-0.2c-0.5-0.2-1-0.5-1.5-0.8c-1.8-1.5-2.9-3.6-3.1-5.9c-0.1-1.1,0-2.2,0.3-3.3
		c0.2-0.6,0.4-1.2,0.7-1.7c0.2-0.3,0.3-0.5,0.5-0.7c0.7-0.9,0.9-0.3-1.3-0.5l-1.5-0.3c3.1,1.1-1.1,7-2.2,8.4c-0.9,1.2-2,2.3-3.1,3.3
		c-0.7,0.5-1.5,0.8-2.1,1.3c-0.3,0.2-0.7,0.1,0.1,0.2s0-0.1-0.3-0.3c-1.1-0.5-1.8-1.7-1.8-2.9c0-0.6,0.3-1.2,0.7-1.7
		c0.2-0.2,0.5-0.4,0.7-0.6c0.7-0.3,0.3-0.4-1-0.2c-1.3-0.3-1.6-0.2-0.9,0.3c0.6,1.2-1.6,2.8-2.5,3.5c-1.3,0.9-2.8,1.6-4.3,2
		c-0.9,0.2-0.8,0.6,0,0.9c1.2,0.3,2.4,0.3,3.5,0L152.5,295.9z"></path><path class="st1" d="M221.7,294.9c1.1-0.2,2.3-0.5,3.4-0.9c0.8-0.3,1.5-0.7,2.1-1.4c0.6-0.8,0.5-2-0.4-2.7
		c-0.1-0.1-0.2-0.1-0.3-0.2c-0.5-0.2-1.1-0.2-1.6-0.1c-0.9,0.1-1.8,0.3-2.7,0.5c-0.9,0.2-1.8,0.7-2.3,1.5c-0.7,1.2-0.6,2.8,0.4,3.9
		c1.2,1.2,2.8,1.8,4.4,1.6c2.6-0.1,5.1-0.7,7.4-1.7c1.3-0.6,3.1-1.5,3.4-3.1c0.4-2.4-2.7-1.9-4.1-1.6c-0.9,0.2-2.9,0.4-3.2,1.6
		c-0.1,0.8,0.2,1.7,0.9,2.2c1.6,1.5,4.2,1.1,6.2,0.8c0.6-0.1,1.3-0.2,1.9-0.4c0.1,0,1-0.3,1.1-0.5c0.2-0.5-1.7-0.2-1.8-0.2
		c-0.6,0.1,0.2,0.1-0.4,0c-0.3,0-0.5-0.1-0.8-0.1c-0.5-0.1-0.9-0.3-1.3-0.6c-0.4-0.3-0.7-0.7-0.8-1.1c-0.1-0.3-0.2-0.6-0.1-0.9
		c0.1-0.8,0.9-0.7-0.9-0.2l-1.9,0.3c-0.9,0.1-0.4-0.1,0,0.3c0.2,0.3,0.3,0.6,0.3,0.9c0,0.7-0.3,1.4-0.9,1.8
		c-0.6,0.5-1.2,0.8-1.9,1.1c-0.1,0-0.8,0.2-0.4,0.2c0.1,0,0.9-0.2,0.9-0.1s-0.5,0-0.4,0c-1.4-0.1-2.6-1-3.2-2.2
		c-0.3-0.6-0.3-1.3-0.2-1.9c0.1-0.5,0.3-0.9,0.6-1.3c0.2-0.2,0.6-0.3-0.2-0.1l-2.5,0.5c-0.8,0.1-0.6-0.1-0.3,0.2
		c0.1,0.1,0.3,0.3,0.3,0.5c0.2,0.4,0.2,0.8,0.2,1.2c-0.1,0.5-0.4,0.9-0.8,1.2c0,0-0.4,0.3-0.2,0.2s0.2,0-0.1,0c0.3-0.1,0.3-0.1,0,0
		s-2.5,0.4-2.4,0.9S221.6,294.9,221.7,294.9L221.7,294.9z"></path><path class="st1" d="M151.8,317c3.5,0,6.7-1.9,8.3-5c0.6-1.2,0.6-2.9-0.9-3.4s-3.4,0.4-4.5,1.4c-2.4,2.1-1.6,5.4,1.2,6.6
		c3.1,1.4,6.6-0.2,9.1-2.1c1.9-1.5,5.8-4.4,4.2-7.3s-6.7-0.2-7.6,2.1c-1.1,2.8,1.4,5.4,3.7,6.6c2.6,1.2,5.5,1.4,8.3,0.6
		c3.4-0.9,7-3.1,8.4-6.5c1.1-2.6,0.4-6.1-2.3-7.5c-1.4-0.8-3.6,0.5-4.2,1.9c-1.5,3.1-1.2,6.9,0.9,9.6c2.2,2.7,5.9,3.2,9.1,2.1
		c1.8-0.6,3.5-1.7,4.7-3.2c0.9-1.1,1.8-3.3,0.4-4.3c-1.8-1.3-4.5,0.5-5.4,2c-0.7,1.4-0.6,3.2,0.5,4.4c2.5,3.3,7.1,3.1,10.2,1
		c0.6-0.4,1.6-1.6,0.8-2.3s-2.4,0.2-3.1,0.6c0.4-0.2-0.2-0.1-0.4-0.1c-0.4,0-0.8-0.1-1.2-0.3c-0.9-0.4-1.7-1-2.2-1.9
		c-0.2-0.5-0.4-1-0.4-1.5l0.1-0.3c-2.3-0.1-3.2,0.3-2.7,1.2c0,0.1,0.1,0.3,0,0.5c-0.1,0.3-0.3,0.6-0.5,0.9c-0.2,0.2-0.4,0.3-0.7,0.3
		c-2.1,0.4-4.2-0.6-5.3-2.4c-1.3-2.2-1.5-5-0.3-7.3l-4.2,1.9c3,1.6,2.6,6-0.2,7.5c-3,1.5-6.7,0.8-8.9-1.9c-0.3-0.4-0.5-0.7-0.6-1.2
		c-0.1-0.2,0-1.1-0.1-1.2c-1.6,0.2-2,0.4-1.3,0.7c0.2,0.1,0.3,0.3,0.3,0.5c0.1,0.3,0,0.7-0.1,1c-0.5,0.7-1.1,1.3-1.8,1.8
		c-0.6,0.5-1.3,0.9-2,1.2c-0.7,0.1-1.4-0.1-2-0.6c-0.6-0.5-1-1.2-1.1-2c0-0.1,0-0.3,0-0.4c-1.7-0.1-2.3,0.2-1.9,1
		c-0.1,0.4-0.3,0.8-0.5,1.2c-0.3,0.4-0.8,0.6-1.4,0.5c-1.2,0-2.4,0.6-3.1,1.6C150.3,316.2,150.6,317,151.8,317L151.8,317z"></path><path class="st1" d="M138.1,310.1l-0.1,0.1c-0.1,0.1-0.3,0.2-0.4,0.4l-0.1,0.1v0.1c-0.1,0.2-0.2,0.3-0.3,0.5c0,0,0,0.1-0.1,0.1
		c-0.1,0.2-0.1,0.4-0.2,0.7c0,0.1,0,0.2,0,0.4c0,0.1,0,0.2,0,0.4s0.1,0.3,0.1,0.5c0,0.2,0.1,0.3,0.1,0.5c0.1,0.2,0.2,0.5,0.3,0.7
		c0,0,0,0,0,0.1c0.1,0.1,0.1,0.2,0.2,0.3c0.1,0.1,0.1,0.2,0.2,0.3c0,0,0,0,0.1,0c0.2,0.2,0.3,0.3,0.5,0.5l0.1,0
		c0.2,0.1,0.4,0.2,0.6,0.3h0.1l0.6,0.2h0.2c0.2,0,0.5,0,0.7,0h0.2c0.3-0.1,0.6-0.2,0.9-0.3c0.2-0.1,0.4-0.3,0.6-0.4l0.1-0.1
		c0.1-0.1,0.2-0.2,0.3-0.4c0.1-0.1,0.2-0.3,0.2-0.4l0.1-0.2c0.1-0.2,0.2-0.5,0.2-0.7c0-0.2,0.1-0.3,0.1-0.5c0-0.3,0-0.5,0-0.8
		c0-0.1,0-0.3-0.1-0.4l-0.1-0.3l-0.2-0.6l-0.4-0.5L142,310c-0.3-0.2-0.6-0.4-0.9-0.6c-0.1-0.1-0.3-0.2-0.4-0.2
		c-0.2-0.1-0.5-0.2-0.8-0.2c-0.2,0-0.4,0-0.6,0h-0.1H139c-0.2,0-0.4,0.1-0.6,0.2c-0.1,0-0.1,0.1-0.2,0.1c-0.4,0.3-0.7,0.6-0.9,1l0,0
		c0,0-0.1,0.4-0.2,0.6s0,0.1,0,0.1c0,0.2,0,0.4,0,0.7c0,0.1,0,0.2,0.1,0.3c0,0.1,0,0.2,0.1,0.4c0.1,0.3,0.2,0.6,0.4,0.9
		c0.2,0.3,0.4,0.5,0.6,0.7c0.2,0.2,0.5,0.3,0.8,0.4c0.3,0.1,0.5,0.1,0.8,0.1l0.5-0.2c0.3-0.2,0.6-0.4,0.7-0.8l0.2-0.5
		c0.1-0.4,0-0.8-0.1-1.2c0,0,0,0,0-0.1l0.1,0.6c0,0,0-0.1,0-0.1v0.6c0,0,0-0.1,0-0.1l-0.2,0.5c0-0.1,0-0.1,0.1-0.2l-0.3,0.4
		c0-0.1,0.1-0.1,0.2-0.2l-0.4,0.3c0.1-0.1,0.2-0.1,0.3-0.1l-0.5,0.2h0.2h-0.5c0.1,0,0.2,0,0.3,0l-0.5-0.2c0.2,0,0.3,0.1,0.4,0.2
		l-0.5-0.3l0.4,0.3l-1.3-2.2v0.2v-0.6c0,0.2,0,0.4-0.1,0.6l0.2-0.5c0,0.2-0.1,0.3-0.2,0.5l0.3-0.4c-0.1,0.1-0.2,0.2-0.3,0.3l0.4-0.3
		c-0.1,0.1-0.3,0.2-0.4,0.2l0.5-0.2c-0.1,0-0.3,0.1-0.4,0.1h0.5c-0.1,0-0.2,0-0.3,0l0.5,0.2l-0.2-0.1l0.5,0.3l-0.1-0.1l0.4,0.4
		c0,0-0.1-0.1-0.1-0.1l0.4,0.6c0,0-0.1-0.1-0.1-0.2l0.2,0.6c0-0.1,0-0.1,0-0.2l0.1,0.6c0-0.1,0-0.1,0-0.2v0.6v-0.2l-0.2,0.5
		c0-0.1,0-0.1,0.1-0.2l-0.3,0.4c0-0.1,0.1-0.1,0.1-0.1l-0.4,0.3l0.1-0.1c0.3-0.1,0.5-0.3,0.6-0.6c0.2-0.2,0.3-0.5,0.3-0.8
		c0.1-0.3,0.1-0.6,0-0.9c0-0.3-0.1-0.6-0.3-0.9l-0.4-0.6c-0.3-0.3-0.6-0.6-1-0.7l-0.5-0.2C138.7,309.9,138.4,310,138.1,310.1
		L138.1,310.1z"></path><rect class="st0" x="185.7" y="342.9" transform="matrix(0.9994 -3.559719e-02 3.559719e-02 0.9994 -12.3819 7.0515)" width="12.2" height="16.8"></rect><path class="st2" d="M196.2,358.8l-12.2,0.4l4.5,1.2l-0.5-14.7l-0.1-2.1l-0.4,0.1l12.2-0.4l-4.5-1.2l0.5,14.7l0.1,2.1
		c0,0.6,2,0.9,2.4,1c0.2,0,2.6,0.5,2.5,0.1l-0.5-14.7l-0.1-2.1c0-0.4-1.5-0.7-1.7-0.8c-0.9-0.3-1.9-0.4-2.8-0.4l-12.2,0.4
		c-0.1,0-0.3,0-0.4,0.1l0.5,14.7l0.1,2.1c0,0.4,1.5,0.7,1.7,0.8c0.9,0.3,1.9,0.4,2.8,0.4l12.2-0.4c1.1,0-0.6-0.7-0.8-0.8
		C198.5,359,197.3,358.8,196.2,358.8z"></path><rect class="st0" x="204.6" y="333.7" transform="matrix(0.9994 -3.559719e-02 3.559719e-02 0.9994 -12.1932 7.7201)" width="12.2" height="25.3"></rect><path class="st2" d="M216.2,357.4l-12.2,0.4l3.5,1.8l-0.8-22.1l-0.1-3.1l-1.4,0.9l12.2-0.4l-3.5-1.7l0.8,22.1l0.1,3.1
		c0.1,1.9,5,2.5,4.9,0.9L219,337l-0.1-3.1c-0.1-1.5-2.4-1.8-3.5-1.8l-12.2,0.4c-0.4,0-1.4,0.3-1.4,0.9l0.8,22.1l0.1,3.1
		c0.1,1.5,2.4,1.8,3.5,1.8l12.2-0.4c0.9,0,1.8-0.7,1.2-1.5S217.2,357.4,216.2,357.4z"></path><rect class="st2" x="224.4" y="323.3" transform="matrix(0.9994 -3.559719e-02 3.559719e-02 0.9994 -11.9831 8.4207)" width="12.2" height="35"></rect><path class="st2" d="M237.9,356.1l-12.2,0.4l1.8,1.6l-1.1-30.6l-0.1-4.3l-3.1,2.2l12.2-0.4l-1.8-1.6l1.1,30.6l0.2,4.3
		c0.1,2.6,5,1.6,4.9-0.7l-1.1-30.6l-0.2-4.3c-0.1-0.9-0.9-1.6-1.8-1.5l-12.2,0.4c-1.2,0-3.2,0.7-3.1,2.2l1.1,30.6l0.1,4.3
		c0.1,0.9,0.9,1.6,1.8,1.5l12.2-0.4c1.2,0,2.6-0.5,3-1.8c0.2-0.9-0.3-1.7-1.1-2C238.2,356.1,238.1,356.1,237.9,356.1z"></path><path class="st2" d="M205,338.6l6.7-4.1c0.3-0.2,0.5-0.5,0.3-0.9c0-0.1-0.1-0.1-0.1-0.1c-0.3-0.4-0.8-0.5-1.2-0.4l-6.7,4.2
		c-0.3,0.2-0.5,0.5-0.3,0.9c0,0.1,0.1,0.1,0.1,0.1C204.1,338.7,204.6,338.8,205,338.6L205,338.6z"></path><path class="st2" d="M205.6,341.2c1.8-1.3,3.6-2.4,5.6-3.4c2-1.2,4-2.4,5.8-3.8c0.3-0.2,0.1-0.3-0.2-0.2c-0.4,0.1-0.8,0.3-1.2,0.6
		c-1.8,1.4-3.7,2.6-5.7,3.7c-2,1-3.9,2.1-5.7,3.5c-0.2,0.2-0.2,0.3,0.2,0.3C204.9,341.7,205.3,341.5,205.6,341.2L205.6,341.2z"></path><path class="st2" d="M205.8,347.1c3.4-2.8,7.6-4.6,11.1-7.2c0.4-0.3-0.8-1.5-1.1-1.3c-3.5,2.6-7.8,4.4-11.1,7.2
		C204.3,346.1,205.5,347.4,205.8,347.1z"></path><path class="st2" d="M205.4,351.7c4.1-2.4,8.1-5,12-7.5c0.6-0.4-0.6-1.6-1.2-1.2c-3.9,2.6-7.9,5.1-12,7.5
		C203.5,350.8,204.7,352.1,205.4,351.7L205.4,351.7z"></path><path class="st2" d="M206,356.4c3.9-2,7.6-4.2,11.1-6.7c0.3-0.2,0.3-0.5,0.2-0.7c0-0.1-0.1-0.1-0.2-0.2c-0.4-0.2-0.9-0.2-1.3,0.1
		c-3.4,2.4-7,4.6-10.8,6.5c-0.4,0.2-0.6,0.6-0.4,0.9C205.1,356.6,205.6,356.6,206,356.4L206,356.4z"></path><path class="st2" d="M209.2,359.1c2.8-1,5.6-2.3,8.1-3.8c0.3-0.2,0.2-0.4-0.1-0.4c-0.5,0-0.9,0.1-1.3,0.4c-2.3,1.4-4.8,2.5-7.4,3.5
		c-0.2,0.1-0.8,0.3-0.5,0.5S209,359.2,209.2,359.1L209.2,359.1z"></path><path class="st1" d="M65.1,285.8c1.6-0.3,3.1-1,4.3-1.9c1.2-0.9,2.2-2.1,2.7-3.6c0.6-2.4-3.8-2.7-5.2-1.8s-1.2,2.7-0.6,3.9
		c1.7,3.4,7.1,3.8,10,1.9c1.3-0.9,2.2-2.2,2.6-3.6c0.3-0.7,0.2-1.5-0.3-2c-1.1-0.8-2.5-1.1-3.8-0.8c-0.3,0.1-1.4,0.4-1.3,1
		c0.3,2.2,1.6,4.1,3.4,5.3c2.3,1.5,5.6,2,8,0.5c1-0.6-0.1-1.5-0.7-1.8c-1.1-0.5-2.4-0.4-3.4,0.1c-0.2,0.2,0.4,0,0.4,0
		c0.2-0.1,0.1,0-0.1-0.1c-0.4-0.2-0.7-0.5-1-0.8c-0.8-0.8-1.2-1.8-1.4-2.8l-1.3,0.9l0.2,0l-2.5-0.2L75,280l-0.9-0.5
		c0,0-0.2,0.9-0.3,1c-0.2,0.4-0.4,0.8-0.6,1.2c-0.2,0.3-0.5,0.6-0.7,0.8c-0.3,0.2-0.7,0.3-0.9,0.5s0.3-0.2,0.3,0.1
		c0,0-0.6-0.6-0.7-0.7c-0.2-0.3-0.3-0.7-0.4-1.1c0-0.3,0.2-1,0-0.9l-1.8,0.2h0.2l-1.3-0.3l0.2,0.1l-0.8-0.5l0.1,0.1l-0.3-0.6
		c0.1,1-1.1,2.2-1.7,2.8c-0.8,0.7-1.7,1.2-2.7,1.4c-0.8,0.1-1.8,0.8-1,1.6C62.7,285.8,63.9,286.1,65.1,285.8L65.1,285.8z"></path><path class="st1" d="M67.6,301.8c2.5-0.7,4.4-2.8,4.8-5.3c0-0.3-0.5-0.9-0.6-1c-0.4-0.4-0.8-0.7-1.2-1c-0.5-0.3-1.6-1.2-2.2-0.7
		c-1,0.8-1,2.2-1,3.4c0,0.8,0.3,1.6,0.8,2.2c0.9,1.2,2.2,2.1,3.6,2.6c1.5,0.6,3,0.7,4.6,0.4c1.3-0.3,2.3-1.5,2.3-2.8
		c-0.1-0.4-0.3-0.8-0.7-1c-0.4-0.5-0.9-0.9-1.5-1.2c-0.2-0.1-2-1.1-2-0.3c0,0.9-0.5,1.7-1.3,2c-1,0.4-2.1,0.4-3.2,0.1l-0.3-0.1
		c-0.2,0,0.1,0.1,0,0s-0.1,0,0.1,0.1l1.7,1.4c0,0,0,0.1,0,0c0-0.3,0-0.5-0.1-0.8c0-0.2,0-0.5,0-0.7c-0.1-0.9,0.2-1.7,0.9-2.3
		l-4.1-2.8c-0.4,2.2-2,4-4.2,4.7c-0.8,0.2,0.6,1.6,0.8,1.8c0.5,0.4,1,0.8,1.6,1.1C66.8,301.7,67.2,301.8,67.6,301.8L67.6,301.8z"></path><path class="st1" d="M38,320.8c0.2-0.9,0.8-2,2-1.8c0.3,0.1,0.6,0.3,0.8,0.5c0.1,0.1,0.3,0.3,0.1,0.3 M40.9,319.7
		c0.2-0.2,0.4-0.4,0.7-0.5l2.6,3.8c0.8-1.4,2.2-2.5,3.8-2.9c0.7-0.2,1.5-0.2,2.3-0.1c0.3,0,0.6,0.1,0.9,0.2c0,0,0.3,0.2,0.3,0.2
		s-0.2-0.6-0.2-0.5l4.7,0.6c-0.5-1.7,4.4-2.2,4.4-0.6l4.6-0.5l-0.2-0.2l0.3,1.2c0,0.7-0.4,0.7,0.4,0.3c0.3-0.1,0.7-0.3,1-0.4
		c0.7-0.3,1.4-0.5,2.2-0.6c1.6-0.3,3.2-0.5,4.8-0.5c1.1-0.1,2-1.1,1.9-2.3c0-0.1,0-0.2,0-0.3c-0.4-1.3-1.6-2.1-2.9-2
		c-2.6,0-5.2,0.4-7.7,1.2c-2.1,0.7-5.8,2.4-4,5.3c0.5,1,1.6,1.5,2.7,1.5c1-0.1,1.8-1,1.9-2c-0.1-4.1-3.9-6.4-7.7-6.2
		c-3.4,0.2-7.5,2.7-6.3,6.7c0.7,2.1,3.6,2.9,4.7,0.6c0.9-2-0.5-4.1-2.1-5.2c-1.6-1-3.4-1.4-5.2-1.3c-3.4,0.1-6.5,1.9-8.4,4.8
		c-0.7,1.3-0.2,2.8,1.1,3.5c0.5,0.2,1,0.3,1.5,0.3c1.8-0.3,3.2-1.9,3-3.8c-0.2-2-1.3-3.8-3.1-4.8c-3.5-2-8.4-0.5-9.2,3.7
		c-0.3,1.3,0.4,2.6,1.7,3c1,0.4,2.7,0.1,3-1.2L40.9,319.7z"></path><path class="st1" d="M38.5,335.9c1-0.8,2.2-1.2,3.4-1c0.6,0,1.2,0.2,1.7,0.5c0.2,0.1,0.4,0.2,0.5,0.3l-1.6-2.3l-0.1,0.2
		c-0.2,0.1-0.3,0.3-0.5,0.2l0.6,0.4l-0.1-0.1l2.1,2.8c0.2,0.3,0,0.1,0.2,0s0.2-0.3,0.4-0.4c0.3-0.2,0.6-0.3,0.9-0.4
		c0.8-0.2,1.6-0.4,2.4-0.5c1.6-0.2,3.2-0.1,4.8,0.2c0.6,0.1-0.5-1.6-0.6-1.7c-0.4-0.5-0.8-1-1.2-1.5c-0.2-0.2-0.6-0.7-0.9-0.8
		c-2.4-0.5-5-0.4-7.4,0.2c-0.5,0.1-1.2,0.3-1.4,0.8c-0.2,0.5-0.2,1,0.1,1.4c0.6,1.1,1.3,2.1,2.2,3c0.3,0.3,0.9,0.8,1.4,0.4
		s0.2-1,0-1.5c-0.4-1-1-1.8-1.7-2.6c-0.8-1-1.8-1.8-2.9-2.4c-1.7-0.8-3.8-0.5-5.3,0.7C34.9,332.4,38,336.3,38.5,335.9L38.5,335.9z"></path><path class="st1" d="M56.4,335.4c0.1,0.1,0.2,0.2,0.3,0.2c0.1,0.1,0.2,0.2,0.4,0.2c0.2,0.1,0.5,0.2,0.7,0.2c0.3,0,0.5,0.1,0.8,0.1
		h0.1l0.3,0l0.3-0.1h0.1c0.5-0.1,1-0.4,1.3-0.8l0.4-0.5c0.2-0.2,0.3-0.5,0.3-0.8c0.1-0.2,0.1-0.4,0-0.6c0-0.3-0.1-0.6-0.3-0.8v-0.1
		c-0.1-0.2-0.3-0.3-0.4-0.5c-0.4-0.3-0.8-0.5-1.2-0.6h-0.1c-0.2,0-0.5-0.1-0.7,0c-0.5,0-1,0.2-1.4,0.4c-0.3,0.1-0.5,0.3-0.7,0.6
		c-0.2,0.2-0.4,0.5-0.5,0.8c-0.1,0.3-0.1,0.6-0.1,0.9c0,0.3,0.1,0.6,0.3,0.8l0.4,0.4c0.3,0.3,0.7,0.4,1.1,0.5h0.6
		c0.4,0,0.9-0.2,1.3-0.4l0,0l-0.6,0.3h0.1l-0.7,0.1h0.1l-0.6,0h0.1l-0.6-0.2h0.1l-0.5-0.3l0.1,0.1l-0.4-0.4v0.1l0.4-2.6l0,0l0.5-0.4
		l-0.1,0.1l0.6-0.3l-0.2,0l0.7-0.1h-0.2h0.6h-0.2l0.6,0.2l-0.2-0.1l0.5,0.3l-0.1-0.1c-0.2-0.2-0.5-0.3-0.8-0.4
		c-0.3-0.1-0.6-0.2-0.9-0.1c-0.3,0-0.7,0.1-1,0.2c-0.3,0.1-0.6,0.3-0.8,0.5l-0.4,0.5c-0.2,0.3-0.3,0.7-0.4,1.1l0.1,0.6
		C55.8,334.8,56,335.1,56.4,335.4L56.4,335.4z"></path></g></svg>