<svg transform="scale(1)" version="1.1" id="Layer_1" xmlns="http://www.w3.org/2000/svg" xmlns:xlink="http://www.w3.org/1999/xlink" x="0px" y="0px" viewBox="0 0 500 500" xml:space="preserve" class="show_show__wrapper__graphic__5Waiy "><title>React</title><style type="text/css">
	.st0{fill:#59BE4C;}
	.st1{fill:#FFFFFF;}
	.st2{fill:#000005;}
</style><g id="gear"><path class="st0" d="M154.5,244.9c2.5-1.8,5.2-3.2,8.1-4.2l0.7-5c0.3-2,1.9-3.5,3.9-3.7l7.2-0.6c2-0.2,3.9,1.1,4.4,3l1.6,4.8
		c3,0.5,6,1.4,8.7,2.7l4-3c1.6-1.2,3.9-1.2,5.5,0.1l5.4,4.5c1.6,1.3,2,3.5,1.1,5.4l-2.3,4.4c1.8,2.5,3.2,5.2,4.2,8.1l5.3,0.7
		c1.8,0.3,3.2,1.7,3.4,3.6l0.7,7.7c0.1,1.8-1,3.5-2.7,4.1l-5.1,1.6c-0.5,3-1.4,6-2.7,8.7l2.9,3.8c1.3,1.7,1.3,4.1-0.1,5.8l-4.3,5.1
		c-1.4,1.7-3.7,2.1-5.7,1.1l-4.3-2.2c-2.5,1.8-5.2,3.2-8.1,4.2l-0.6,4.8c-0.3,2.1-2,3.8-4.2,4l-6.6,0.6c-2.2,0.2-4.2-1.1-4.8-3.2
		l-1.5-4.6c-3-0.5-6-1.4-8.7-2.7l-3.8,2.8c-1.7,1.3-4,1.2-5.7-0.1l-5.2-4.3c-1.6-1.4-2.1-3.7-1.1-5.6l2.2-4.3
		c-1.8-2.5-3.2-5.2-4.2-8.1l-4-0.5c-2.6-0.4-4.6-2.5-4.9-5.1l-0.4-5c-0.2-2.6,1.4-5.1,3.9-5.9l3.8-1.2c0.5-3,1.4-6,2.7-8.7l-3-3.9
		c-1.3-1.6-1.2-3.9,0.1-5.5l4.5-5.3c1.3-1.6,3.6-2,5.4-1.1L154.5,244.9L154.5,244.9z M159.9,261c-6.7,8-5.7,20,2.4,26.8
		c8,6.7,20,5.7,26.8-2.4c6.7-8,5.7-20-2.4-26.8c-1.5-1.2-3.1-2.2-4.9-3C174.1,252.4,165.2,254.6,159.9,261L159.9,261z"></path><path class="st0" d="M155.4,246.2c2.3-1.6,4.9-2.9,7.5-3.9c1-0.3,1.7-1.2,2-2.2c0.2-1.5,0.4-3,0.6-4.6c0-0.6,0.2-1.2,0.6-1.7
		c0,0,0.3-0.1,0.2-0.1c0.4-0.2-0.1,0,0,0l0.7-0.1l5.6-0.5c1.7-0.1,3.2,0.2,3.9,2c0.6,1.5,1,3.2,1.5,4.7c0.1,0.4,0.4,0.8,0.9,0.9
		c2.9,0.5,5.7,1.4,8.3,2.6c0.9,0.4,1.9,0.2,2.7-0.3l2.2-1.7c0.6-0.6,1.4-1.2,2.2-1.6c1.7-0.7,4.2,2.2,5.3,3.1
		c1.5,1.3,4.2,2.9,3.5,5.3c-0.7,1.7-1.5,3.4-2.5,4.9c-0.2,0.4-0.2,0.9,0,1.4c1.7,2.4,3.1,5,4.1,7.7c0.1,0.4,0.4,0.8,0.9,0.9l4.8,0.6
		c1.7,0.1,3.1,1.5,3.1,3.2c0.2,1.8,0.3,3.6,0.5,5.5c0.1,0.6,0.1,1.1,0.2,1.7c0,0.4-0.1,0.8-0.2,1.1c-0.1,0.3-0.3,0.4-0.1,0.2
		c-0.9,0.4-1.8,0.6-2.7,0.9l-2.3,0.7c-1.2,0.3-2.2,1.2-2.5,2.4c-0.5,2.8-1.4,5.6-2.6,8.2c-0.2,0.4-0.2,0.9,0,1.4
		c1.2,1.4,2.3,2.9,3.3,4.4c1.2,2.3-0.9,4-2.2,5.7l-2,2.4l-0.2,0.3c0.2-0.3,0.2,0-0.1,0.1c-0.4,0.2-0.9,0.2-1.4,0.1
		c-1.7-0.4-3.3-1.6-4.8-2.4c-0.9-0.4-1.9-0.2-2.7,0.3c-2.3,1.6-4.9,2.9-7.5,3.9c-1,0.3-1.7,1.2-2,2.2c-0.1,1.8-0.3,3.5-0.7,5.2
		c-0.1,0.4-0.4,0.8-0.8,1c-0.3,0.2-0.5,0.1-0.2,0h-0.4l-3.1,0.3c-2.2,0.2-4.9,0.9-6.2-1.4c-0.8-1.6-1.4-3.4-1.8-5.1
		c-0.1-0.4-0.4-0.8-0.9-0.9c-2.9-0.5-5.7-1.4-8.3-2.6c-0.9-0.4-1.9-0.2-2.7,0.3l-2.1,1.6c-0.6,0.6-1.3,1.1-2.1,1.6
		c-1.8,0.8-4.2-2-5.4-3c-1.6-1.4-4.2-2.9-3.4-5.4c0.7-1.7,1.5-3.3,2.4-4.8c0.2-0.4,0.2-0.9,0-1.4c-1.7-2.4-3-5-4.1-7.7
		c-0.2-0.4-0.4-0.8-0.9-0.9c-1.7-0.2-3.9-0.2-5.4-1c-2.3-1.1-2.5-3.4-2.7-5.7c-0.1-1.7-0.8-4.2,0.4-5.6c0.2-0.2,0.4-0.3,0.6-0.5
		c0.5-0.4,0.1-0.1,0.1-0.1c0.4-0.1,0.8-0.2,1.1-0.4l2.6-0.8c1.2-0.3,2.2-1.2,2.5-2.4c0.5-2.8,1.4-5.6,2.6-8.2c0.2-0.4,0.2-0.9,0-1.4
		c-1.1-1.4-2.3-2.8-3.2-4.2c-1.5-2.4,0.8-4.2,2.1-5.9l2.1-2.5c0.1-0.1,0.2-0.2,0.3-0.3l0.1-0.1c-0.2,0.3-0.2,0.2,0.1-0.1
		c0.5-0.1,1-0.1,1.5,0.1c1.6,0.7,3.2,1.5,4.6,2.4c1.6,0.6,3.3-0.3,3.8-1.8c0.1-0.3,0.2-0.5,0.2-0.8l0,0c-0.1-1.2-1.8-1-2.6-0.7
		c-1.1,0.4-1.9,1.4-1.9,2.6l0,0l4-2.6c-1.5-0.8-2.9-1.5-4.4-2.2c-3.3-1.6-6.8-0.3-9.1,2.4c-1.2,1.4-2.4,2.9-3.6,4.4
		c-1.8,2.1-3,4.7-1.6,7.5c1,1.7,2.2,3.3,3.5,4.8v-1.4c-1.3,2.9-2.3,6-2.9,9.2l2.5-2.4c-1.6,0.5-3.2,0.9-4.7,1.5
		c-3.3,1.3-5.5,4.4-5.5,8c0.1,4,0.2,8.9,4.4,10.8c1.8,0.8,3.9,0.8,5.8,1.1l-0.9-0.9c1.1,3,2.6,5.9,4.4,8.5V293
		c-0.7,1.4-1.5,2.8-2.2,4.3c-1.3,2.5-0.6,5.7,1.6,7.4c1.5,1.2,3,2.5,4.4,3.7c2.3,2,5.7,2.3,8.3,0.7c1.6-1,3.1-2.1,4.5-3.3L158,306
		c2.9,1.4,6,2.3,9.2,2.9l-0.9-0.9c0.5,1.5,1,3,1.5,4.5c0.9,2.8,3.7,4.5,6.6,4.1c1.9-0.2,3.9-0.3,5.8-0.5c3.2-0.3,6.2-2,7.4-5.2
		c0.5-2,0.9-4,1-6l-2,2.2c3.1-1.1,6-2.7,8.7-4.6l-2.7,0.3c1.4,0.7,2.8,1.5,4.2,2.2c3.4,1.6,7,0.3,9.3-2.4c2.7-3.1,7.3-7.1,5.2-11.7
		c-0.8-1.7-2.3-3.3-3.5-4.8v1.4c1.3-2.9,2.3-6,2.9-9.2l-2.5,2.4l5-1.6c3.2-1,5.6-3.7,5.3-7.2c-0.1-2-0.4-4.1-0.6-6.1
		c-0.2-2.5-1.1-4.8-3.8-5.7c-2-0.4-3.9-0.7-5.9-0.9l0.9,0.9c-1.1-3-2.6-5.9-4.4-8.5v1.4c0.7-1.5,1.5-2.9,2.2-4.4
		c1.3-2.5,0.6-5.5-1.6-7.3c-1.5-1.3-3-2.5-4.5-3.8c-2.2-2-5.6-2.3-8.1-0.8c-1.6,1-3.1,2.2-4.6,3.4l2.7-0.3c-2.9-1.4-6-2.3-9.2-2.9
		l0.9,0.9c-0.5-1.6-1-3.2-1.5-4.8c-0.9-2.7-3.6-4.3-6.3-3.9c-2,0.2-4.1,0.4-6.1,0.5c-3.2,0.3-6.4,1.9-7.4,5.2c-0.5,2-0.8,4-0.9,6
		l2-2.2c-3.1,1.1-6,2.7-8.7,4.6c-0.8,0.5-1.8,1.7-1.2,2.7S154.6,246.7,155.4,246.2z"></path><path class="st0" d="M158.1,260.6c-7.3,8.5-6.4,21.3,2.1,28.6c5.2,4.5,12.2,6,18.8,4.2c8.5-2.2,15.4-9.4,16.5-18.2
		c1-7.7-2.5-15.3-9-19.6C177.2,249.5,165.1,252.2,158.1,260.6c-0.5,0.5-0.6,1.4,0,2c0.2,0.2,0.3,0.3,0.5,0.4
		c1.2,0.4,2.5-0.5,3.2-1.4c4.8-5.8,13.3-6.9,19.8-3.4c5.9,3.1,9.5,9.2,9.6,15.9c0.1,6.6-3.9,12.6-10.1,15.2
		c-6.9,2.7-15,0.1-19.5-5.6c-5.1-6.5-5.1-15.6,0.1-22c0.6-0.8,0.6-2-0.5-2.3S158.8,259.7,158.1,260.6z"></path><path class="st0" d="M143.9,88.7c3-0.4,6.1-0.3,9.2,0.2l3-4.1c1.2-1.6,3.3-2.2,5.1-1.4l6.6,2.9c1.8,0.8,2.9,2.7,2.5,4.7l-0.9,5
		c2.4,1.9,4.5,4.1,6.4,6.6l4.9-0.8c2-0.3,4,0.8,4.7,2.7l2.6,6.5c0.8,1.9,0.1,4.1-1.6,5.2l-4.1,2.8c0.4,3,0.3,6.1-0.2,9.2l4.3,3.1
		c1.5,1.1,2,3.1,1.3,4.8l-3.1,7.1c-0.7,1.7-2.6,2.6-4.4,2.3l-5.2-1c-1.9,2.4-4.1,4.5-6.6,6.4l0.7,4.7c0.3,2.1-0.9,4.2-2.9,5
		l-6.2,2.4c-2,0.8-4.3,0.1-5.5-1.7l-2.7-3.9c-3,0.4-6.1,0.3-9.2-0.2l-2.8,3.9c-1.3,1.8-3.6,2.4-5.6,1.5l-6.1-2.7
		c-2-0.9-3.1-3-2.7-5.1l0.9-4.7c-2.4-1.9-4.5-4.1-6.4-6.6l-4.8,0.7c-2.1,0.3-4.2-0.8-4.9-2.8l-2.5-6.3c-0.8-2-0.1-4.2,1.7-5.4l4-2.7
		c-0.4-3-0.3-6.1,0.2-9.2l-3.2-2.4c-2.1-1.6-2.9-4.4-1.8-6.8l2-4.6c1.1-2.4,3.6-3.8,6.2-3.3l3.9,0.7c1.9-2.4,4.1-4.6,6.6-6.4
		l-0.8-4.9c-0.3-2,0.8-4,2.8-4.8l6.5-2.5c1.9-0.8,4.1-0.1,5.3,1.6L143.9,88.7L143.9,88.7z M140.9,105.4
		c-9.7,3.9-14.5,14.9-10.6,24.6c3.9,9.7,14.9,14.5,24.6,10.6c9.7-3.9,14.5-14.9,10.6-24.6c-0.7-1.8-1.7-3.4-2.9-4.9
		c-5.2-6.4-14-8.7-21.7-5.7H140.9z"></path><path class="st0" d="M143.1,90.6c2.9-0.3,5.8-0.3,8.6,0.1c1.2,0.1,2.4-0.4,3.2-1.4c0.9-1.2,1.8-2.5,2.8-3.8c0.8-1,1.6-0.6,2.6-0.2
		l5.1,2.2c1.7,0.7,3.1,1.8,2.7,3.9c-0.3,1.7-0.6,3.3-0.9,4.9c-0.1,0.4,0.1,0.9,0.5,1.2c2.3,1.8,4.3,3.9,6.1,6.3
		c0.5,0.5,1.2,0.7,1.8,0.5l2.7-0.4l1.7-0.3l0.4-0.1c-0.3,0,0.1,0,0.4,0c2.4,0.2,3.1,3.4,3.8,5.3c0.6,1.6,2.4,4.4,1.1,5.9
		c-0.6,0.5-1.2,1-1.9,1.3l-2.3,1.6c-0.8,0.5-1.4,1.3-1.4,2.3c0.3,2.9,0.3,5.8-0.2,8.7c-0.1,0.4,0.1,0.9,0.5,1.2l3.8,2.8
		c1.4,0.8,1.9,2.5,1.2,3.9l-2.2,5.1c-0.2,0.5-0.4,1-0.6,1.5c-0.3,0.5-0.5,0.5-1,0.4c-1.7-0.2-3.4-0.6-5.1-1
		c-1.2-0.1-2.4,0.4-3.2,1.4c-1.6,2.1-3.5,3.9-5.6,5.5c-0.7,0.5-1.5,1.3-1.4,2.3c0.4,1.7,0.7,3.5,0.8,5.3c0.1,0.8-0.4,1.6-1.2,1.9
		l-2.9,1.2c-1.9,0.8-3.9,2.1-5.7,0.3c-1.2-1.4-2.2-2.9-3.1-4.4c-0.3-0.4-0.8-0.6-1.2-0.6c-2.9,0.3-5.8,0.3-8.6-0.1
		c-1.2-0.2-2.5,0.4-3.2,1.4l-1.7,2.2c-0.4,0.6-0.9,1.6-1.5,2c-1.2,0.7-3.9-1-5.2-1.5c-2.1-0.9-4.9-1.7-4.9-4.5
		c0.2-1.8,0.5-3.6,1-5.3c0.1-0.4-0.1-0.9-0.5-1.2c-2.3-1.8-4.3-3.9-6.1-6.3c-0.5-0.5-1.2-0.7-1.8-0.5l-2.6,0.4l-1.7,0.2l-0.4,0.1
		c0.4,0-0.3,0-0.5,0c-2.4-0.4-3.1-3.3-3.8-5.2c-0.7-1.6-2.4-4.5-1-6c0.6-0.5,1.2-0.9,1.9-1.3l2.2-1.5c0.8-0.5,1.4-1.3,1.4-2.3
		c-0.3-2.9-0.3-5.8,0.2-8.7c0.1-0.5-0.1-0.9-0.5-1.2c-1.3-1-3.2-1.9-4.2-3.3c-1.5-2.1-0.7-4.1,0.3-6.2c0.6-1.4,1.1-3.8,2.9-4.1
		c1.5-0.3,3.4,0.5,4.9,0.8c1.2,0.1,2.4-0.4,3.2-1.4c1.6-2.1,3.5-3.9,5.7-5.5c0.8-0.5,1.4-1.4,1.4-2.3c-0.4-1.7-0.6-3.5-0.8-5.2
		c-0.1-0.9,0.4-1.7,1.2-2c1-0.4,2-0.8,3-1.2c1.9-0.7,4-2.2,5.7-0.3c1.1,1.4,2.2,2.9,3.1,4.5c1.1,1.6,3.6-0.2,4.2-1.4l0,0
		c0.3-0.6,0.1-1.4-0.5-1.7c-0.2-0.1-0.5-0.2-0.8-0.2c-1.3,0.1-2.4,0.8-2.9,1.9l0,0l4.2-1.4c-0.9-1.3-1.8-2.7-2.8-4
		c-1.9-2.6-5.1-3-8-1.8c-4.3,1.6-10.9,3.3-11,9c0.1,2,0.4,3.9,0.8,5.8l1.4-2.3c-2.8,2.1-5.3,4.5-7.5,7.2l3.2-1.4
		c-1.6-0.3-3.2-0.7-4.8-0.8c-3.6-0.2-7,1.7-8.7,5c-0.7,1.4-1.3,3-2,4.5c-1.1,2.5-1.2,5.3,0.5,7.5c1.2,1.6,3.1,2.6,4.7,3.8l-0.5-1.2
		c-0.5,3.2-0.5,6.4-0.2,9.6l1.4-2.3c-1.3,0.9-2.7,1.8-4,2.7c-2.7,1.9-4.1,5.1-2.9,8.3c0.7,1.8,1.4,3.6,2.1,5.4
		c0.8,2.6,3.3,4.3,6,4.2c2-0.2,3.9-0.5,5.9-0.9L118,145c1.9,2.6,4.2,4.9,6.7,6.9l-0.5-1.2c-0.3,1.6-0.6,3.1-0.9,4.7
		c-0.5,2.7,1,5.4,3.6,6.5l5.4,2.3c2.9,1.4,6.4,0.7,8.7-1.6c1.4-1.5,2.6-3.1,3.7-4.9l-3.2,1.4c3.2,0.5,6.4,0.5,9.7,0.2l-1.2-0.6
		c0.9,1.3,1.8,2.7,2.7,3.9c2,2.7,5.2,3,8.1,1.9c4.3-1.6,10.7-3.2,10.9-8.8c-0.1-2-0.4-4-0.8-5.9l-1.4,2.3c2.8-2.1,5.3-4.5,7.5-7.2
		l-3.2,1.4c1.7,0.3,3.4,0.7,5.1,1c3.4,0.5,6.7-1.3,8-4.4c0.9-1.9,1.6-3.8,2.5-5.7c1.1-2.5,1.5-5.2-0.7-7.2c-1.5-1.2-3.1-2.4-4.7-3.5
		l0.5,1.2c0.5-3.2,0.5-6.4,0.2-9.6l-1.4,2.3c1.4-0.9,2.8-1.8,4.1-2.8c2.7-1.9,4-4.9,2.8-8.1l-2.2-5.5c-1-2.5-2.9-4.3-5.8-4.2
		c-2,0.2-4,0.5-6,0.9l1.8,0.5c-1.9-2.6-4.2-4.9-6.7-6.9l0.5,1.2c0.3-1.7,0.7-3.3,0.9-4.9c0.5-2.6-1-5.2-3.5-6.2l-5.6-2.4
		c-2.9-1.4-6.4-0.7-8.6,1.7c-1.3,1.5-2.5,3.1-3.6,4.8l3.2-1.4c-3.2-0.5-6.4-0.6-9.7-0.2c-1.3,0.1-2.4,0.8-2.9,1.9
		c-0.3,0.6-0.1,1.4,0.5,1.7C142.5,90.6,142.8,90.6,143.1,90.6z"></path><path class="st0" d="M140.6,103.8c-8.1,3.3-14,11.2-13.9,20.1c0.1,8.8,5.9,16.6,14.3,19.1c8.5,2.6,17.8-0.7,23.4-7.5
		c5.2-6.4,6.2-15.2,2.5-22.5C162,103.4,150.4,99.9,140.6,103.8c-0.9,0.3-2.2,1.5-2,2.6s1.7,1,2.5,0.7c7.2-2.7,15.3-0.2,19.8,6
		c4.1,5.6,4.7,13.1,1.3,19.2c-3.3,5.7-9.8,8.8-16.3,7.6c-7.3-1.3-13.1-7-14.5-14.4c-1.5-7.6,2.6-15.3,9.7-18.4
		c0.9-0.4,2.2-1.5,2-2.6S141.5,103.4,140.6,103.8z"></path><path class="st0" d="M186.4,197c-4.4-7.8-12.8-11.7-21.3-13.2c-10.1-1.9-20.4-0.2-30.5-1.8c-5-0.8-9.8-2.7-14-5.6
		c-4-2.9-7.7-6.2-10.9-9.9c-6.3-7-11.1-15.3-14.2-24.2c-3.3-9.8-3.9-20.4-0.9-30.4c0.8-2.7-4.1-3.3-4.9-0.8
		c-5.8,18.7,0.9,38.7,12.5,53.7c6,7.8,13.7,15.3,22.9,18.9c10.4,4.1,21.6,2.6,32.4,3.2c8.8,0.5,19.4,3.1,24,11.4
		c0.6,1.1,1.9,1.6,3.1,1.3C185.7,199.3,187,198.1,186.4,197L186.4,197z"></path><path class="st0" d="M98.8,97.1c0.1-0.4,0.2-0.9,0.3-1.3c0.1-0.2,0.1-0.4,0.2-0.6s0.1-0.3,0.1-0.4s0.1-0.3,0-0.1s0.2-0.4,0.2-0.4
		l0.3-0.6c0.2-0.4,0.4-0.8,0.6-1.2s0.5-0.8,0.7-1.2c0.1-0.2,0.2-0.4,0.4-0.6c0.2-0.4-0.1,0.2,0.2-0.2c1.1-1.4,2.3-2.7,3.7-3.8
		c0.6-0.4-0.3,0.2,0.2-0.2l0.5-0.4c0.4-0.2,0.7-0.5,1.1-0.7c0.8-0.4,1.5-0.8,2.3-1.2l0.7-0.3c0.2,0,0.1,0,0,0l0.3-0.1
		c0.5-0.2,0.9-0.3,1.4-0.4c1.2-0.3,1.9-1.5,1.6-2.7c0,0,0-0.1,0-0.1c-0.3-1.1-1.5-2.3-2.8-2c-8.2,2-14.5,8.5-16.4,16.8
		c-0.3,1.3,0.4,2.6,1.7,3.1c1,0.4,2.2-0.1,2.6-1.1C98.7,97.3,98.8,97.2,98.8,97.1z"></path></g><g id="character"><path class="st1" d="M195.2,413.8c-19.7-31.4-35.5-63-16.8-70.1s49.4-17.3,41.6-33.4s-30.9-2.9-42.5,2.6s-43.8,7.6-46.4-26.4
		s19.3-44.8,30.8-54.1s-0.7-26.3-24.8-15.4s-31.3,33.7-31.3,33.7s0-19.4-7.7-43.9s-20.4-15.3-23.1-9.1s1.4,56.3,1.4,56.3
		s-6.9-35.1-15.2-35.1c-14.8,0.1-17.4,23.9-12.5,57.4C61.8,366.7,96.2,419,96.2,419"></path><path class="st2" d="M197.6,413.4c-6.3-9.8-12.1-20-17.2-30.5c-3.7-7.8-7.4-16.3-7.8-25c-0.3-3,0.3-6.1,1.7-8.8
		c1.5-2.5,3.8-4.3,6.5-5.2c7.4-2.9,14.9-5.6,22.2-8.9c6.3-3,13.2-6.5,17.7-12c1.7-2.1,2.8-4.6,3-7.4c0-3.1-1.1-6.1-3.1-8.5
		c-4.6-5.9-12.8-5.9-19.5-4.6c-7.4,1.5-14.4,4.7-21.2,8c-1.4,0.7-2.7,1.3-4.1,2c-0.4,0.2-0.8,0.4-1.2,0.6l-0.6,0.2l-0.4,0.1
		c-0.4,0.1,0.4-0.1-0.1,0c-0.9,0.3-1.9,0.6-2.9,0.9l-0.5,0.1l-0.7,0.1c-0.6,0.1-1.2,0.2-1.9,0.3c0.6-0.1-0.1,0-0.3,0l-0.9,0.1
		l-0.9,0.1c-0.2,0-1.1,0.1-0.5,0c-0.6,0-1.2,0.1-1.9,0.1h-1.5c-0.1,0-0.2,0-0.2,0c-2.5-0.1-5-0.4-7.5-1.1
		c-5.4-1.4-10.2-4.4-13.7-8.7c-4.7-5.8-6.5-13.4-6.9-20.7c-0.5-8.4,0.5-17,4-24.8c2.7-5.9,6.6-11.2,11.4-15.5
		c4.1-3.6,8.3-6.9,12.8-10.1c2.1-1.6,4.3-3.2,5.6-5.5c1.3-2,1.7-4.5,1.2-6.8c-1.2-5.7-7.1-8.5-12.4-9.2c-9.4-1.3-19,2.2-27,6.9
		c-11.2,6.7-20,16.9-25,28.9c-0.3,0.7-0.5,1.3-0.8,2l4.9-0.3c0-10.1-1.8-20.4-4-30.3c-1.1-4.7-2.3-9.4-3.8-14.1
		c-1.1-3.6-2.6-6.9-4.6-10.1c-2.8-4.2-6.8-6.5-12-6c-3.8,0.4-7.4,2.3-9.8,5.3c-1.7,2.2-2.1,4.4-2.3,7.1c-0.7,9.7,0.1,19.6,0.6,29.2
		c0.3,4.8,0.6,9.6,0.9,14.5c0.2,2.6,0.3,5.2,0.6,7.8c0,0.1,0,0.3,0,0.4l5-0.5c-1-5.3-2.4-10.5-3.9-15.6c-1.1-4-2.6-7.9-4.3-11.7
		c-1.2-2.6-2.7-5.8-5.3-7.4c-1.5-0.8-3.1-1.1-4.8-0.9c-2.1,0.1-4.1,0.6-6,1.4c-3,1.5-5.4,3.9-6.8,6.9c-1.8,4-3,8.2-3.3,12.6
		c-0.6,5.9-0.7,11.8-0.3,17.7c0.8,14.8,3.3,29.5,6.2,44c2.7,13.4,6,26.6,9.9,39.8c3.2,10.8,6.9,21.5,11,32
		c3.2,8.2,6.6,16.2,10.4,24.2c2.5,5.3,5.2,10.5,8,15.6c1.2,2.4,2.6,4.8,4.1,7c0.1,0.1,0.1,0.2,0.2,0.3c0.7,1,5.4,0,4.8-0.9
		c-3.6-5.6-6.8-11.5-9.7-17.5c-8-16.1-14.8-32.9-20.3-50c-8.5-25.7-14.5-52.2-18.1-79c-1.6-11.9-2.8-24.4-0.7-36.4
		c0.5-4,1.9-7.8,3.9-11.2c0.8-1.2,1.8-2.3,3-3.2c0.5-0.4,1.1-0.7,1.7-1l0.5-0.2c-0.4,0.1,0.2,0,0.2-0.1s0.7-0.2,0.1,0
		c0.1,0,1-0.2,0.3-0.1l0.6-0.1c0.7-0.1-0.5,0.1,0.1,0c0.1,0,0.3,0,0.4,0c0.1-0.1-1,0.1-0.5,0c0.1,0,0.5,0.1,0,0
		c0.1,0,0.2,0.1,0.3,0.1c0.2,0.1,0.4,0.2,0.6,0.4c1.1,0.9,2,1.9,2.7,3.1c1.9,3.2,3.5,6.6,4.6,10.2c2.2,6.4,4,13,5.3,19.6
		c0.1,0.4,0.2,0.8,0.2,1.2c0.2,1.1,5.1,0.6,5-0.5c-0.5-5.9-0.9-11.7-1.3-17.6c-0.6-9.9-1.2-19.8-1.1-29.8c0-2.7-0.1-6.2,0.7-8.5
		c0.5-1.2,1.2-2.3,2.1-3.3c0.5-0.5,1-1,1.5-1.4c0.5-0.4,1.1-0.8,1.8-1.2l0.6-0.3l0.2-0.1c0.3-0.1-0.3,0.1-0.1,0l0.5-0.2
		c-0.5,0.1,0,0,0.2,0c-0.7,0.1,0.1-0.1-0.2,0s0.5,0-0.1,0c0.1,0,0.8,0.1,0.3,0l0.7,0.1c1.8,0.6,3.4,1.7,4.6,3.1
		c2.1,2.5,3.7,5.3,4.8,8.4c1.6,4.3,2.9,8.7,4,13.1c3,11.1,4.7,22.6,5.1,34.1c0,0.2,0,0.4,0,0.5c0,1,4.6,0.6,4.9-0.3
		c0.9-2.6,2-5.1,3.4-7.4c3.1-5.8,7.2-11,12-15.6c6.3-6,14.5-11.1,23.1-12.9c5.5-1.1,12.2-0.2,15.6,4.9c3,4.4,1.1,9.6-2.7,12.7
		c-4,3.2-8.3,6.1-12.3,9.4c-4.8,3.9-9,8.5-12.2,13.8c-3.8,6.5-6.1,13.9-6.5,21.5c-0.6,8.1,0.1,16.8,3.8,24.2
		c2.6,5.3,6.8,9.6,12.1,12.2c9.4,4.7,21.4,4.5,31.3,1.3c5.5-1.8,10.6-5,15.9-7.3c3.2-1.4,6.5-2.6,9.9-3.4c0.6-0.1,1.9-0.4,2.2-0.4
		l1.1-0.1c0.4-0.1,0.8-0.1,1.1-0.1c1.3-0.1,2.7,0.1,4,0.5c5.7,1.6,9.9,8.2,8.5,14.1s-7.6,10-12.6,12.9c-6.9,4-14.3,6.8-21.7,9.7
		c-5.8,2.2-13,3.8-15.4,10.3c-2.6,6.6-0.4,14.4,1.8,20.8c3.4,9.8,8.3,19,13.4,28c2.9,5,5.9,9.9,8.9,14.8
		C193.5,415.4,198.2,414.4,197.6,413.4L197.6,413.4z"></path><path class="st2" d="M102.7,265c2.2-8.2,5.5-16,9.7-23.4c1.6-2.8,3.5-5.4,5.7-7.8c0.8-0.8-0.3-1.6-1.1-1.7c-1.2-0.3-2.4,0-3.3,0.8
		c-4.1,4.3-7.1,9.7-9.5,15c-2.1,4.5-3.9,9.2-5.4,13.9c-0.3,1-0.6,1.9-0.9,2.9C97.3,266.7,102.2,266.6,102.7,265L102.7,265z"></path><path class="st2" d="M78.2,269.9L77,235.8l-0.2-4.8c0-1.3-1-2.4-2.3-2.7c-1.1-0.3-2.2,0.4-2.5,1.6c0,0.1,0,0.2,0,0.3l1.2,34.1
		l0.2,4.8c0,1.3,1,2.4,2.3,2.7c1.1,0.2,2.2-0.5,2.5-1.6C78.1,270.1,78.1,270,78.2,269.9L78.2,269.9z"></path><path class="st1" d="M205.9,411.5c6.6-13.1,73.2-152.1,123.9-139.9s124,140.8,124,140.8"></path><path class="st2" d="M208.3,411.4c3.2-6.4,6.4-12.9,9.8-19.3c6.2-11.9,12.8-23.6,19.7-35.1c8.1-13.7,16.9-26.9,26.4-39.6
		c8.9-11.7,18.6-23.2,30-32.5c4.6-3.9,9.7-7.2,15.2-9.9c2.3-1.1,4.8-2,7.3-2.7c-0.6,0.1,0.5-0.1,0.6-0.1l0.9-0.2l0.9-0.2
		c-0.8,0.1,0.3,0,0.5-0.1l1-0.1h-0.1h0.5h0.8h0.5c0.5,0-0.4,0,0.1,0s1.2,0,1.9,0.1c0.2,0,0.3,0,0.5,0l1,0.1c1.2,0.2,2.3,0.4,3.5,0.7
		c2.7,0.8,5.2,1.7,7.7,2.9c5.7,2.8,11.1,6.2,16.1,10.2c12.3,9.5,23,21,33,32.7c10.8,12.6,20.8,26,30.3,39.6
		c8,11.5,15.7,23.1,23.1,35c3.9,6.2,7.7,12.5,11.4,18.9l0.5,0.9c0.7,1.2,5.2-0.2,5-0.6c-2.6-4.6-5.3-9.1-8.1-13.6
		c-6.8-11.1-13.8-22-21.2-32.8c-9.3-13.7-19-27.1-29.4-40c-10.2-12.6-21-24.8-33.2-35.5c-9.4-8.1-20.2-16.3-32.5-19.3
		c-11.6-2.8-23.6,1.2-33.4,7.4c-11.9,7.5-21.9,18-30.9,28.8c-10.2,12.5-19.6,25.6-28.1,39.3c-7.8,12.4-15.1,25.1-22,37.9
		c-4.4,8.1-8.6,16.3-12.7,24.6c-0.4,0.9-0.9,1.7-1.3,2.6s1.5,0.6,1.8,0.6C206,412.3,207.9,412.2,208.3,411.4L208.3,411.4z"></path><path class="st2" d="M364.2,235.8c0,0,33.4,3.8,37.8-10s-16.6-8.9-16.6-8.9s22.3-29.4-11.7-31.6c0,0,26.3-23,2.7-40.6
		s-66.3-1.5-66.3-1.5s-1.2-29.9-35.1-23.3s-24.1,23.8-24.1,23.8s-21.7,3.9-21.5,14.3s17,13,17,13s8.5,28.8,38,22.1l31.8,34.5
		c0,0-9.1,14.2,3,27.1S367.2,254.6,364.2,235.8z"></path><path class="st2" d="M363.2,237c3.1,0.3,6.2,0.5,9.3,0.5c6.4,0.2,12.7-0.5,18.9-2.1c5.1-1.4,11.1-4.2,12.9-9.6
		c0.8-2.5,1.1-5.4-0.5-7.6c-1.4-1.9-3.8-2.7-6-3.1c-4.2-0.6-8.6-0.4-12.8,0.6l2.5,1.3c2.4-3.2,4.4-6.8,5.8-10.6
		c2.2-5.8,2.7-12.9-2.5-17.3c-4.4-3.7-10.6-4.7-16.1-5.1l0.9,1.7c3.9-3.5,7.2-7.7,9.7-12.3c2-3.6,3.1-7.5,3.3-11.6
		c0.1-4.8-1.6-9.4-4.7-13c-7-8.4-18-12.1-28.6-13.2c-9.9-1-20.1,0.1-29.8,2.1c-5.6,1.1-11,2.6-16.4,4.6l3.3,0.5
		c-0.2-3.1-0.9-6.1-2.1-8.9c-2.2-6-6.7-10.9-12.5-13.6c-10.1-4.5-22.3-2.4-32.4,0.8c-6.9,2.2-15.6,6.2-17.9,13.8
		c-0.9,3-0.7,6.3,0.7,9.2l0.2,0.4l2.1-1.9c-2.4,0.5-4.7,1.1-7,1.8c-4.3,1.2-8.4,3.2-12,5.8c-3.2,2.6-5.6,6.2-4.5,10.4s5,7.1,8.9,8.8
		c2.8,1.3,5.7,2.2,8.7,2.7l-0.9-0.7c1.1,3.5,2.8,6.8,4.9,9.8c4.2,6.3,10.5,11,17.8,13c5.9,1.4,12.1,1.4,18-0.1l-2.5-0.4l10.7,11.6
		l17.1,18.6l4,4.3l0.1-0.9c-2.5,4.1-3.7,8.8-3.5,13.6c0.3,7.4,4.9,15.1,11.8,18.1c5.9,2.6,12.8,2.4,19,1.1c6.6-1.3,12.7-4.1,18-8.2
		c5-4.1,8.7-10,7.7-16.7c-0.2-1.6-5.1-0.7-4.9,1c1.7,11.4-10.4,18.9-19.6,21.3l-0.6,0.2l-1,0.2c-0.8,0.2-1.6,0.3-2.3,0.4
		c-0.2,0-0.4,0-0.6,0.1l-1,0.1c-0.8,0.1-1.5,0.1-2.3,0.1c-2.5,0-4.9-0.4-7.3-1.1c-6.4-2.2-10.6-8.9-11.6-15.4c-0.5-3.5-0.1-7,1-10.3
		c0.4-1.1,0.8-2.2,1.3-3.2c0.1-0.3,0.3-0.6,0.5-0.9s-0.1,0.2,0-0.1s0.4-0.6,0.1-0.9l-10.7-11.6l-17-18.5l-4-4.3
		c-0.6-0.6-1.8-0.5-2.5-0.4c-8.3,1.9-16.9,0.8-23.7-4.6c-4.5-3.6-8-8.3-10.3-13.5c-0.5-1.1-0.9-2.2-1.3-3.3
		c-0.1-0.4-0.5-0.6-0.9-0.7c-2.1-0.4-4.2-0.9-6.2-1.7c-3.5-1.4-7.3-3.4-9-6.9c-1.6-3.2-0.8-7.2,2-9.5c2.8-2.6,6.2-3.9,9.7-5.1
		c0.9-0.3,1.9-0.6,2.8-0.9l0.6-0.2c-0.7,0.2,0.1,0,0.2,0l1.1-0.3c0.7-0.2,1.4-0.3,2.1-0.5s2.7-0.8,2.1-1.9c-0.1-0.2,0.2,0.4,0.1,0.1
		l-0.2-0.4c-0.2-0.5-0.4-1-0.5-1.5c-0.5-1.6-0.6-3.2-0.4-4.9c0.9-6.2,6.5-9.9,12-12.1c5.3-2.1,10.8-3.4,16.5-3.9
		c4.1-0.4,8.3,0.1,12.2,1.5c5.6,2.2,10.1,6.6,12.4,12.1c1.4,3.1,2.3,6.4,2.5,9.8c0,1.2,2.8,0.7,3.3,0.5c1.1-0.4,2.2-0.8,3.4-1.1
		s2.5-0.8,3.8-1.1l1.2-0.3c0.7-0.2-0.5,0.1,0.2,0l0.5-0.1c0.9-0.2,1.9-0.5,2.8-0.7c8.6-2.2,17.5-3.2,26.4-2.9c9.9,0.4,20,3,27.4,9.8
		c3.6,3.3,6.4,7.4,7,12.4c0.4,3.9-0.3,7.9-1.9,11.4c-1.6,3.5-3.7,6.8-6.3,9.7c-0.9,1-1.8,2-2.7,2.9c-0.3,0.3-0.6,0.5-0.8,0.8
		s0.4-0.3,0,0c-1,0.9-0.3,1.6,0.9,1.7c7.2,0.5,16.4,2.7,17.4,11.2c0.2,2.9-0.2,5.8-1.2,8.5c-0.5,1.3-1,2.6-1.6,3.9
		c-0.3,0.6-0.6,1.2-0.9,1.8c-0.1,0.2-0.3,0.5-0.4,0.8l-0.4,0.6c-0.7,1.2-1.5,2.4-2.3,3.5c-1.1,1.4,1.8,1.5,2.5,1.3l0.8-0.2l0.9-0.2
		c0.3,0,1.5-0.2,0.7-0.1c0.9-0.1,1.9-0.2,2.8-0.3h0.7h0.6c0.2,0,0.4,0,0.5,0h0.9c1.8,0,3.5,0.5,4.9,1.6c1.7,1.4,1.9,3.6,1.5,5.6
		c-0.4,2.2-1.6,4.2-3.3,5.7c-0.9,0.7-1.8,1.3-2.8,1.8c-0.5,0.2-0.9,0.4-1.4,0.6c-0.7,0.2-1.3,0.5-2,0.7c-0.1,0-0.9,0.3-0.5,0.1
		l-0.9,0.2c-0.7,0.2-1.4,0.3-2.1,0.4c-1.3,0.2-2.6,0.4-3.9,0.6c-1.4,0.1-2.8,0.2-4.2,0.3l-1.9,0.1h-1.6c-3.3,0-6.7-0.1-10-0.5
		c-1.2-0.2-2.4,0.2-3.3,1.1C361.4,236.6,362.4,236.9,363.2,237z"></path><path class="st1" d="M340.9,282.5c1.8-7.9-9.9-44.6-9.9-44.6s17.9-1,19.1-20.8s-19.3-21.1-28.1-0.8c0,0-22.7-39.7-12.2-62.4
		c0,0-36.9,25.6-60.7,21.9c0,0-21.7,68.7-1.6,93.3c17.5,21.5,33.4,19.4,33.4,19.4l2.1,4.4l5.9,18.9L340.9,282.5z"></path><path class="st2" d="M342.6,284.1c0.4-2.7,0.3-5.5-0.2-8.2c-0.6-3.8-1.4-7.5-2.3-11.2c-1.8-7.4-3.8-14.7-6-22
		c-0.5-1.6-1-3.2-1.5-4.8l-0.8,2.4c8-0.6,15-5.6,18.1-13c2.7-6.3,3.1-14.8-0.3-20.9c-2.7-4.8-7.7-7.8-13.3-6.8
		c-7.7,1.5-12.9,8.4-15.9,15.2l3,0.9c-0.8-1.3-1.4-2.7-2.1-4c-0.8-1.5-1.5-3-2.2-4.6c-0.4-0.9-0.8-1.8-1.2-2.7
		c-0.5-1.1-0.6-1.4-1.1-2.6c-3.9-9.4-7.2-19.5-7.8-29.8c-0.5-5.6,0.4-11.2,2.6-16.4c0.5-1.2-1.3-4.8-2.8-3.8c-4.4,3-9,5.8-13.7,8.3
		c-9.3,5.1-19.1,9.7-29.4,12.2c-5.4,1.3-11.3,2.2-16.9,1.4c-0.6-0.1-1.1,0-1.3,0.7c-1.4,4.4-2.5,8.8-3.6,13.2
		c-2.5,10-4.4,20.2-5.6,30.5c-1.3,11.1-1.8,22.5,0.3,33.5c0.9,5,2.5,9.9,5,14.4c1.6,2.7,3.5,5.2,5.6,7.5c2.8,3.1,5.8,6,9.1,8.5
		c4.5,3.6,9.6,6.3,15.1,7.9c2.6,0.8,5.3,1.2,8,1c0.1,0,0.2,0,0.4,0l-2.1-1.6l1,2.1l0.7,1.4c0.1,0.2,0.2,0.7,0.4,0.8
		c-0.1-0.1-0.3-0.9-0.2-0.4c0,0.2,0.1,0.4,0.2,0.5l0.6,2l3.9,12.6l1.1,3.5c0.3,0.8,1.5,2.8,2.7,2.1l17.6-9.9l28-15.8l6.5-3.6
		c1.8-1-0.6-5.4-2.3-4.4l-17.6,9.9l-28,15.8l-6.5,3.6l2.7,2.1l-2.9-9.2c-1-3.2-1.9-6.5-3-9.6c-0.7-1.7-1.5-3.4-2.4-5
		c-0.3-0.7-1.2-1.8-2.1-1.6c-0.5,0-0.9,0.1-1.4,0.1c-1.2,0-2.4-0.1-3.5-0.3c-4.6-0.9-9-2.7-12.9-5.3c-2.9-1.9-5.6-4-8.1-6.5
		c-2.6-2.4-5-5.1-7.1-8.1c-0.1-0.2-0.3-0.4-0.4-0.6s0,0,0.1,0.1c-0.1-0.1-0.1-0.3-0.2-0.4c-0.3-0.5-0.6-1-0.8-1.5s-0.5-1-0.7-1.5
		c-0.1-0.2-0.2-0.5-0.3-0.8c0.2,0.4-0.1-0.3-0.2-0.5c-0.8-2.1-1.5-4.2-2-6.4c-2.4-10.4-2-21.3-0.9-31.9c1.1-10.1,2.8-20.1,5.2-29.9
		c0.8-3.4,1.7-6.8,2.6-10.2c0.6-1.6,1.1-3.3,1.4-5c0-0.1,0.1-0.1,0.1-0.2l-1.3,0.7c10.6,1.6,21.5-1.7,31.3-5.7
		c8.8-3.6,17.3-8,25.3-13.1c1.7-1,3.3-2.1,4.9-3.2l-2.8-3.8c-4.5,10-3,21.9-0.4,32.2c2.4,9.4,5.8,18.5,10.2,27.1
		c0.9,1.8,1.8,3.6,2.8,5.3c0.5,1,2.2,2.6,3,0.9c2.4-5.6,6.5-11,12.4-13.2c2-0.8,4.2-0.9,6.3-0.4c0.9,0.2,1.7,0.6,2.5,1.1
		c0.4,0.2,0.7,0.5,1,0.8l0.2,0.2c0.3,0.3-0.2-0.3,0,0s0.4,0.5,0.6,0.8c0,0.1,0.3,0.4,0,0c0.1,0.1,0.1,0.2,0.2,0.3
		c0.1,0.3,0.3,0.6,0.4,0.8c0.2,0.5,0,0,0.2,0.4s0.2,0.7,0.4,1.1c0.3,1.2,0.5,2.5,0.6,3.8c0.1,3.3-0.4,6.6-1.6,9.7
		c-1.7,4.4-5.1,8-9.4,10.1c-2.2,1.2-4.7,1.9-7.2,2.1c-1.1,0.1-1,1.6-0.8,2.4c3.7,11.6,7.2,23.2,9.2,35.1c0.3,1.7,0.5,3.3,0.6,5v0.4
		c0-0.5,0,0.2,0,0.3c0,0.3,0,0.6,0,0.9s0,0.5,0,0.8s0,0.2,0,0.4c0,0.4,0.1-0.4,0,0.1c-0.2,1.2,0.2,2.5,1.1,3.3
		C341,284.8,342.3,285.3,342.6,284.1z"></path><path class="st1" d="M269.5,246.4c0,0-43.9,18.1-58-3.4s15.7-41.1,46.3-27.9"></path><path class="st2" d="M267.8,244.6c-3.9,1.6-8,2.9-12.1,3.9c-8,2.1-16.5,3.6-24.8,3.1c-4.2-0.2-8.3-1.2-12.1-2.9
		c-0.7-0.4-1.4-0.8-2.1-1.2c0.3,0.2-0.3-0.2-0.3-0.2l-0.6-0.4c0.4,0.3-1-0.9-0.7-0.6c-1.5-1.5-2.7-3.3-3.6-5.3
		c-2-4.1-2.3-8.8-0.8-13.1c1.7-4.2,4.7-7.7,8.6-10c11.6-7.5,27.2-6.5,39.4-1.2c0.8,0.4,1.1,0,0.7-0.8c-0.6-1-1.6-1.8-2.6-2.4
		c-11.8-5.1-25.8-6.6-37.7-0.9c-4.6,2-8.4,5.3-10.9,9.6c-2.3,4.1-2.8,8.9-1.4,13.3c2.8,9.7,11.7,16.7,21.3,18.8
		c8.9,1.9,18.2,0.8,26.9-1.2c3.6-0.8,7.1-1.8,10.6-2.9c1.8-0.5,3.6-1.2,5.4-1.9l0.2-0.1C272.1,247.8,268.9,244.2,267.8,244.6
		L267.8,244.6z"></path><path class="st1" d="M306.6,238.3c0,0-1.7,9.3-10.8,9.2"></path><path class="st2" d="M304.2,238.3c-0.1,0.3-0.1,0.6-0.2,0.9c-0.2,0.5,0.2-0.6,0,0l-0.2,0.5c-0.1,0.4-0.3,0.8-0.5,1.1
		c-0.1,0.2-0.2,0.4-0.3,0.6l-0.2,0.3l-0.1,0.1c-0.2,0.3,0.1-0.2,0.1-0.2c-0.3,0.4-0.6,0.9-1,1.3l-0.3,0.3c-0.1,0.1-0.4,0.4-0.1,0.1
		s0,0-0.1,0.1l-0.4,0.3c-0.2,0.2-0.5,0.4-0.7,0.5l-0.2,0.1c-0.2,0.2,0.5-0.3,0.3-0.2l-0.5,0.3c-0.3,0.2-0.7,0.3-1,0.5
		c-0.2,0.1-0.4,0.1,0.3-0.1l-0.3,0.1c-0.2,0.1-0.4,0.1-0.5,0.1l-0.6,0.1h-0.3c-0.2,0-0.5,0,0.1,0c-0.5,0-1,0.1-1.4,0.1
		c-1.3,0-2.4,0.9-2.8,2.1c-0.1,1,0.6,2,1.6,2.1c0.1,0,0.2,0,0.4,0c3.7,0,7.2-1.5,9.7-4.1c1.5-1.6,2.6-3.5,3.3-5.6
		c0.2-0.6,0.4-1.1,0.5-1.7c0.1-1-0.6-1.9-1.6-2.1c-0.1,0-0.3,0-0.4,0C305.7,236.2,304.6,237.1,304.2,238.3L304.2,238.3z"></path><path class="st2" d="M275.5,203.2c0,0,1,3.7-2.7,4.4s-4.5-3.9-1.5-5.4S275.5,203.2,275.5,203.2z"></path><path class="st2" d="M258.1,205.6c0,0,1,3.7-2.7,4.4s-4.5-3.9-1.5-5.4S258.1,205.6,258.1,205.6z"></path><path class="st2" d="M244.9,346.6c7.1,7.8,17.8,11.4,28.2,9.5c9.5-1.9,16.8-8.8,24.3-14.4c3.7-2.7,7.6-5.4,12-6.8
		c5.1-1.7,10.3-1.3,15.5,0.1c5.5,1.5,10.8,4,16.3,5.5c5.6,1.5,11.4,1.8,17.1,0.9c13.3-2.2,25-10,35.9-17.5c1.9-1.3-0.8-5.5-2.7-4.2
		c-9.5,6.6-19.6,13.3-30.9,16.2c-5.4,1.5-11,1.8-16.5,0.9c-5.5-1-10.7-3.3-15.9-5.1s-10.7-3.1-16.3-2.4c-4.5,0.8-8.8,2.5-12.5,5
		c-7.8,4.9-14.3,11.9-22.9,15.6c-10.1,4.3-21.9,1.9-29.4-6.2c-0.7-0.7-2-1.3-2.7-0.4S244.3,345.9,244.9,346.6L244.9,346.6z"></path><path class="st2" d="M220.4,393.1c15,6.6,30.4,13.3,47,14.6c7.7,0.7,15.4,0,22.9-2.1c7-2,13-5.8,18.8-10.1
		c5.3-4,10.4-8.5,16.4-11.4c2.9-1.4,6-2.3,9.2-2.7c3.7-0.3,7.5,0.2,11.1,1.2c7.4,2.1,14.2,5.9,21.4,8.6c7,2.6,14.2,4.2,21.7,4.8
		c14.8,1.2,29.6-1.8,42.8-8.5c1.7-0.9,3.3-1.8,5-2.8c1.1-0.7,0.8-2.5,0.1-3.3c-0.7-1-2.2-1.3-3.2-0.6c-12.4,7.4-26.7,11.1-41.1,10.7
		c-7.1-0.1-14.1-1.3-20.9-3.5c-7.2-2.4-14-6.1-21.1-8.6s-14.5-3.8-22-1.7c-6.4,1.8-11.9,5.7-17,9.7s-10.4,8.4-16.5,11.2
		c-6.8,3.1-14.2,4.6-21.7,4.6c-16.1,0.2-31.4-5.7-45.9-12l-5.6-2.4C218.7,387.5,217.7,391.9,220.4,393.1L220.4,393.1z"></path></g></svg>